%FSLAX44Y44*%
%MOMM*%
G71*
G01*
G75*
G04 Layer_Color=16711935*
%ADD10C,0.5000*%
G04:AMPARAMS|DCode=11|XSize=1mm|YSize=0.95mm|CornerRadius=0.1995mm|HoleSize=0mm|Usage=FLASHONLY|Rotation=180.000|XOffset=0mm|YOffset=0mm|HoleType=Round|Shape=RoundedRectangle|*
%AMROUNDEDRECTD11*
21,1,1.0000,0.5510,0,0,180.0*
21,1,0.6010,0.9500,0,0,180.0*
1,1,0.3990,-0.3005,0.2755*
1,1,0.3990,0.3005,0.2755*
1,1,0.3990,0.3005,-0.2755*
1,1,0.3990,-0.3005,-0.2755*
%
%ADD11ROUNDEDRECTD11*%
G04:AMPARAMS|DCode=12|XSize=1mm|YSize=0.95mm|CornerRadius=0.1995mm|HoleSize=0mm|Usage=FLASHONLY|Rotation=270.000|XOffset=0mm|YOffset=0mm|HoleType=Round|Shape=RoundedRectangle|*
%AMROUNDEDRECTD12*
21,1,1.0000,0.5510,0,0,270.0*
21,1,0.6010,0.9500,0,0,270.0*
1,1,0.3990,-0.2755,-0.3005*
1,1,0.3990,-0.2755,0.3005*
1,1,0.3990,0.2755,0.3005*
1,1,0.3990,0.2755,-0.3005*
%
%ADD12ROUNDEDRECTD12*%
G04:AMPARAMS|DCode=13|XSize=2.7mm|YSize=1.15mm|CornerRadius=0.2013mm|HoleSize=0mm|Usage=FLASHONLY|Rotation=270.000|XOffset=0mm|YOffset=0mm|HoleType=Round|Shape=RoundedRectangle|*
%AMROUNDEDRECTD13*
21,1,2.7000,0.7475,0,0,270.0*
21,1,2.2975,1.1500,0,0,270.0*
1,1,0.4025,-0.3738,-1.1487*
1,1,0.4025,-0.3738,1.1487*
1,1,0.4025,0.3738,1.1487*
1,1,0.4025,0.3738,-1.1487*
%
%ADD13ROUNDEDRECTD13*%
G04:AMPARAMS|DCode=14|XSize=1.45mm|YSize=1.15mm|CornerRadius=0.2013mm|HoleSize=0mm|Usage=FLASHONLY|Rotation=90.000|XOffset=0mm|YOffset=0mm|HoleType=Round|Shape=RoundedRectangle|*
%AMROUNDEDRECTD14*
21,1,1.4500,0.7475,0,0,90.0*
21,1,1.0475,1.1500,0,0,90.0*
1,1,0.4025,0.3738,0.5238*
1,1,0.4025,0.3738,-0.5238*
1,1,0.4025,-0.3738,-0.5238*
1,1,0.4025,-0.3738,0.5238*
%
%ADD14ROUNDEDRECTD14*%
G04:AMPARAMS|DCode=15|XSize=0.62mm|YSize=0.62mm|CornerRadius=0.1488mm|HoleSize=0mm|Usage=FLASHONLY|Rotation=180.000|XOffset=0mm|YOffset=0mm|HoleType=Round|Shape=RoundedRectangle|*
%AMROUNDEDRECTD15*
21,1,0.6200,0.3224,0,0,180.0*
21,1,0.3224,0.6200,0,0,180.0*
1,1,0.2976,-0.1612,0.1612*
1,1,0.2976,0.1612,0.1612*
1,1,0.2976,0.1612,-0.1612*
1,1,0.2976,-0.1612,-0.1612*
%
%ADD15ROUNDEDRECTD15*%
G04:AMPARAMS|DCode=16|XSize=2.7mm|YSize=1.15mm|CornerRadius=0.2013mm|HoleSize=0mm|Usage=FLASHONLY|Rotation=0.000|XOffset=0mm|YOffset=0mm|HoleType=Round|Shape=RoundedRectangle|*
%AMROUNDEDRECTD16*
21,1,2.7000,0.7475,0,0,0.0*
21,1,2.2975,1.1500,0,0,0.0*
1,1,0.4025,1.1487,-0.3738*
1,1,0.4025,-1.1487,-0.3738*
1,1,0.4025,-1.1487,0.3738*
1,1,0.4025,1.1487,0.3738*
%
%ADD16ROUNDEDRECTD16*%
G04:AMPARAMS|DCode=17|XSize=1.45mm|YSize=1.15mm|CornerRadius=0.2013mm|HoleSize=0mm|Usage=FLASHONLY|Rotation=0.000|XOffset=0mm|YOffset=0mm|HoleType=Round|Shape=RoundedRectangle|*
%AMROUNDEDRECTD17*
21,1,1.4500,0.7475,0,0,0.0*
21,1,1.0475,1.1500,0,0,0.0*
1,1,0.4025,0.5238,-0.3738*
1,1,0.4025,-0.5238,-0.3738*
1,1,0.4025,-0.5238,0.3738*
1,1,0.4025,0.5238,0.3738*
%
%ADD17ROUNDEDRECTD17*%
G04:AMPARAMS|DCode=18|XSize=1.2mm|YSize=1.2mm|CornerRadius=0.198mm|HoleSize=0mm|Usage=FLASHONLY|Rotation=180.000|XOffset=0mm|YOffset=0mm|HoleType=Round|Shape=RoundedRectangle|*
%AMROUNDEDRECTD18*
21,1,1.2000,0.8040,0,0,180.0*
21,1,0.8040,1.2000,0,0,180.0*
1,1,0.3960,-0.4020,0.4020*
1,1,0.3960,0.4020,0.4020*
1,1,0.3960,0.4020,-0.4020*
1,1,0.3960,-0.4020,-0.4020*
%
%ADD18ROUNDEDRECTD18*%
G04:AMPARAMS|DCode=19|XSize=1.45mm|YSize=0.5mm|CornerRadius=0.2mm|HoleSize=0mm|Usage=FLASHONLY|Rotation=270.000|XOffset=0mm|YOffset=0mm|HoleType=Round|Shape=RoundedRectangle|*
%AMROUNDEDRECTD19*
21,1,1.4500,0.1000,0,0,270.0*
21,1,1.0500,0.5000,0,0,270.0*
1,1,0.4000,-0.0500,-0.5250*
1,1,0.4000,-0.0500,0.5250*
1,1,0.4000,0.0500,0.5250*
1,1,0.4000,0.0500,-0.5250*
%
%ADD19ROUNDEDRECTD19*%
G04:AMPARAMS|DCode=20|XSize=2.5mm|YSize=1.7mm|CornerRadius=0.204mm|HoleSize=0mm|Usage=FLASHONLY|Rotation=0.000|XOffset=0mm|YOffset=0mm|HoleType=Round|Shape=RoundedRectangle|*
%AMROUNDEDRECTD20*
21,1,2.5000,1.2920,0,0,0.0*
21,1,2.0920,1.7000,0,0,0.0*
1,1,0.4080,1.0460,-0.6460*
1,1,0.4080,-1.0460,-0.6460*
1,1,0.4080,-1.0460,0.6460*
1,1,0.4080,1.0460,0.6460*
%
%ADD20ROUNDEDRECTD20*%
G04:AMPARAMS|DCode=21|XSize=0.65mm|YSize=0.5mm|CornerRadius=0.2mm|HoleSize=0mm|Usage=FLASHONLY|Rotation=180.000|XOffset=0mm|YOffset=0mm|HoleType=Round|Shape=RoundedRectangle|*
%AMROUNDEDRECTD21*
21,1,0.6500,0.1000,0,0,180.0*
21,1,0.2500,0.5000,0,0,180.0*
1,1,0.4000,-0.1250,0.0500*
1,1,0.4000,0.1250,0.0500*
1,1,0.4000,0.1250,-0.0500*
1,1,0.4000,-0.1250,-0.0500*
%
%ADD21ROUNDEDRECTD21*%
G04:AMPARAMS|DCode=22|XSize=3.3mm|YSize=2.5mm|CornerRadius=0.2mm|HoleSize=0mm|Usage=FLASHONLY|Rotation=270.000|XOffset=0mm|YOffset=0mm|HoleType=Round|Shape=RoundedRectangle|*
%AMROUNDEDRECTD22*
21,1,3.3000,2.1000,0,0,270.0*
21,1,2.9000,2.5000,0,0,270.0*
1,1,0.4000,-1.0500,-1.4500*
1,1,0.4000,-1.0500,1.4500*
1,1,0.4000,1.0500,1.4500*
1,1,0.4000,1.0500,-1.4500*
%
%ADD22ROUNDEDRECTD22*%
%ADD23C,1.0000*%
G04:AMPARAMS|DCode=24|XSize=2.5mm|YSize=2mm|CornerRadius=0.2mm|HoleSize=0mm|Usage=FLASHONLY|Rotation=180.000|XOffset=0mm|YOffset=0mm|HoleType=Round|Shape=RoundedRectangle|*
%AMROUNDEDRECTD24*
21,1,2.5000,1.6000,0,0,180.0*
21,1,2.1000,2.0000,0,0,180.0*
1,1,0.4000,-1.0500,0.8000*
1,1,0.4000,1.0500,0.8000*
1,1,0.4000,1.0500,-0.8000*
1,1,0.4000,-1.0500,-0.8000*
%
%ADD24ROUNDEDRECTD24*%
G04:AMPARAMS|DCode=25|XSize=2.3mm|YSize=0.5mm|CornerRadius=0.2mm|HoleSize=0mm|Usage=FLASHONLY|Rotation=180.000|XOffset=0mm|YOffset=0mm|HoleType=Round|Shape=RoundedRectangle|*
%AMROUNDEDRECTD25*
21,1,2.3000,0.1000,0,0,180.0*
21,1,1.9000,0.5000,0,0,180.0*
1,1,0.4000,-0.9500,0.0500*
1,1,0.4000,0.9500,0.0500*
1,1,0.4000,0.9500,-0.0500*
1,1,0.4000,-0.9500,-0.0500*
%
%ADD25ROUNDEDRECTD25*%
G04:AMPARAMS|DCode=26|XSize=5.1mm|YSize=4.35mm|CornerRadius=0.1958mm|HoleSize=0mm|Usage=FLASHONLY|Rotation=270.000|XOffset=0mm|YOffset=0mm|HoleType=Round|Shape=RoundedRectangle|*
%AMROUNDEDRECTD26*
21,1,5.1000,3.9585,0,0,270.0*
21,1,4.7085,4.3500,0,0,270.0*
1,1,0.3915,-1.9792,-2.3542*
1,1,0.3915,-1.9792,2.3542*
1,1,0.3915,1.9792,2.3542*
1,1,0.3915,1.9792,-2.3542*
%
%ADD26ROUNDEDRECTD26*%
%ADD27O,0.6000X1.4000*%
%ADD28O,1.4000X0.6000*%
G04:AMPARAMS|DCode=29|XSize=1.05mm|YSize=0.65mm|CornerRadius=0.2015mm|HoleSize=0mm|Usage=FLASHONLY|Rotation=270.000|XOffset=0mm|YOffset=0mm|HoleType=Round|Shape=RoundedRectangle|*
%AMROUNDEDRECTD29*
21,1,1.0500,0.2470,0,0,270.0*
21,1,0.6470,0.6500,0,0,270.0*
1,1,0.4030,-0.1235,-0.3235*
1,1,0.4030,-0.1235,0.3235*
1,1,0.4030,0.1235,0.3235*
1,1,0.4030,0.1235,-0.3235*
%
%ADD29ROUNDEDRECTD29*%
G04:AMPARAMS|DCode=30|XSize=1mm|YSize=0.9mm|CornerRadius=0.198mm|HoleSize=0mm|Usage=FLASHONLY|Rotation=270.000|XOffset=0mm|YOffset=0mm|HoleType=Round|Shape=RoundedRectangle|*
%AMROUNDEDRECTD30*
21,1,1.0000,0.5040,0,0,270.0*
21,1,0.6040,0.9000,0,0,270.0*
1,1,0.3960,-0.2520,-0.3020*
1,1,0.3960,-0.2520,0.3020*
1,1,0.3960,0.2520,0.3020*
1,1,0.3960,0.2520,-0.3020*
%
%ADD30ROUNDEDRECTD30*%
G04:AMPARAMS|DCode=31|XSize=1mm|YSize=0.9mm|CornerRadius=0.198mm|HoleSize=0mm|Usage=FLASHONLY|Rotation=180.000|XOffset=0mm|YOffset=0mm|HoleType=Round|Shape=RoundedRectangle|*
%AMROUNDEDRECTD31*
21,1,1.0000,0.5040,0,0,180.0*
21,1,0.6040,0.9000,0,0,180.0*
1,1,0.3960,-0.3020,0.2520*
1,1,0.3960,0.3020,0.2520*
1,1,0.3960,0.3020,-0.2520*
1,1,0.3960,-0.3020,-0.2520*
%
%ADD31ROUNDEDRECTD31*%
G04:AMPARAMS|DCode=32|XSize=1.75mm|YSize=1.05mm|CornerRadius=0.1995mm|HoleSize=0mm|Usage=FLASHONLY|Rotation=270.000|XOffset=0mm|YOffset=0mm|HoleType=Round|Shape=RoundedRectangle|*
%AMROUNDEDRECTD32*
21,1,1.7500,0.6510,0,0,270.0*
21,1,1.3510,1.0500,0,0,270.0*
1,1,0.3990,-0.3255,-0.6755*
1,1,0.3990,-0.3255,0.6755*
1,1,0.3990,0.3255,0.6755*
1,1,0.3990,0.3255,-0.6755*
%
%ADD32ROUNDEDRECTD32*%
G04:AMPARAMS|DCode=33|XSize=1.75mm|YSize=1.05mm|CornerRadius=0.1995mm|HoleSize=0mm|Usage=FLASHONLY|Rotation=180.000|XOffset=0mm|YOffset=0mm|HoleType=Round|Shape=RoundedRectangle|*
%AMROUNDEDRECTD33*
21,1,1.7500,0.6510,0,0,180.0*
21,1,1.3510,1.0500,0,0,180.0*
1,1,0.3990,-0.6755,0.3255*
1,1,0.3990,0.6755,0.3255*
1,1,0.3990,0.6755,-0.3255*
1,1,0.3990,-0.6755,-0.3255*
%
%ADD33ROUNDEDRECTD33*%
G04:AMPARAMS|DCode=34|XSize=1.1mm|YSize=0.55mm|CornerRadius=0.2008mm|HoleSize=0mm|Usage=FLASHONLY|Rotation=180.000|XOffset=0mm|YOffset=0mm|HoleType=Round|Shape=RoundedRectangle|*
%AMROUNDEDRECTD34*
21,1,1.1000,0.1485,0,0,180.0*
21,1,0.6985,0.5500,0,0,180.0*
1,1,0.4015,-0.3493,0.0743*
1,1,0.4015,0.3493,0.0743*
1,1,0.4015,0.3493,-0.0743*
1,1,0.4015,-0.3493,-0.0743*
%
%ADD34ROUNDEDRECTD34*%
%ADD35O,0.6000X1.5500*%
G04:AMPARAMS|DCode=36|XSize=9.1mm|YSize=8.65mm|CornerRadius=0.2163mm|HoleSize=0mm|Usage=FLASHONLY|Rotation=0.000|XOffset=0mm|YOffset=0mm|HoleType=Round|Shape=RoundedRectangle|*
%AMROUNDEDRECTD36*
21,1,9.1000,8.2175,0,0,0.0*
21,1,8.6675,8.6500,0,0,0.0*
1,1,0.4325,4.3338,-4.1087*
1,1,0.4325,-4.3338,-4.1087*
1,1,0.4325,-4.3338,4.1087*
1,1,0.4325,4.3338,4.1087*
%
%ADD36ROUNDEDRECTD36*%
G04:AMPARAMS|DCode=37|XSize=3.75mm|YSize=1.05mm|CornerRadius=0.1995mm|HoleSize=0mm|Usage=FLASHONLY|Rotation=270.000|XOffset=0mm|YOffset=0mm|HoleType=Round|Shape=RoundedRectangle|*
%AMROUNDEDRECTD37*
21,1,3.7500,0.6510,0,0,270.0*
21,1,3.3510,1.0500,0,0,270.0*
1,1,0.3990,-0.3255,-1.6755*
1,1,0.3990,-0.3255,1.6755*
1,1,0.3990,0.3255,1.6755*
1,1,0.3990,0.3255,-1.6755*
%
%ADD37ROUNDEDRECTD37*%
G04:AMPARAMS|DCode=38|XSize=6.45mm|YSize=6mm|CornerRadius=0.21mm|HoleSize=0mm|Usage=FLASHONLY|Rotation=270.000|XOffset=0mm|YOffset=0mm|HoleType=Round|Shape=RoundedRectangle|*
%AMROUNDEDRECTD38*
21,1,6.4500,5.5800,0,0,270.0*
21,1,6.0300,6.0000,0,0,270.0*
1,1,0.4200,-2.7900,-3.0150*
1,1,0.4200,-2.7900,3.0150*
1,1,0.4200,2.7900,3.0150*
1,1,0.4200,2.7900,-3.0150*
%
%ADD38ROUNDEDRECTD38*%
G04:AMPARAMS|DCode=39|XSize=2.85mm|YSize=1mm|CornerRadius=0.2mm|HoleSize=0mm|Usage=FLASHONLY|Rotation=270.000|XOffset=0mm|YOffset=0mm|HoleType=Round|Shape=RoundedRectangle|*
%AMROUNDEDRECTD39*
21,1,2.8500,0.6000,0,0,270.0*
21,1,2.4500,1.0000,0,0,270.0*
1,1,0.4000,-0.3000,-1.2250*
1,1,0.4000,-0.3000,1.2250*
1,1,0.4000,0.3000,1.2250*
1,1,0.4000,0.3000,-1.2250*
%
%ADD39ROUNDEDRECTD39*%
%ADD40O,1.5500X0.6000*%
%ADD41O,0.3000X1.5000*%
%ADD42O,1.5000X0.3000*%
%ADD43O,0.8500X0.2500*%
%ADD44C,0.2000*%
%ADD45R,0.2000X0.5500*%
G04:AMPARAMS|DCode=46|XSize=4.9mm|YSize=1.6mm|CornerRadius=0.2mm|HoleSize=0mm|Usage=FLASHONLY|Rotation=0.000|XOffset=0mm|YOffset=0mm|HoleType=Round|Shape=RoundedRectangle|*
%AMROUNDEDRECTD46*
21,1,4.9000,1.2000,0,0,0.0*
21,1,4.5000,1.6000,0,0,0.0*
1,1,0.4000,2.2500,-0.6000*
1,1,0.4000,-2.2500,-0.6000*
1,1,0.4000,-2.2500,0.6000*
1,1,0.4000,2.2500,0.6000*
%
%ADD46ROUNDEDRECTD46*%
G04:AMPARAMS|DCode=47|XSize=1.75mm|YSize=1.4mm|CornerRadius=0.203mm|HoleSize=0mm|Usage=FLASHONLY|Rotation=90.000|XOffset=0mm|YOffset=0mm|HoleType=Round|Shape=RoundedRectangle|*
%AMROUNDEDRECTD47*
21,1,1.7500,0.9940,0,0,90.0*
21,1,1.3440,1.4000,0,0,90.0*
1,1,0.4060,0.4970,0.6720*
1,1,0.4060,0.4970,-0.6720*
1,1,0.4060,-0.4970,-0.6720*
1,1,0.4060,-0.4970,0.6720*
%
%ADD47ROUNDEDRECTD47*%
G04:AMPARAMS|DCode=48|XSize=1.4mm|YSize=1.2mm|CornerRadius=0.198mm|HoleSize=0mm|Usage=FLASHONLY|Rotation=90.000|XOffset=0mm|YOffset=0mm|HoleType=Round|Shape=RoundedRectangle|*
%AMROUNDEDRECTD48*
21,1,1.4000,0.8040,0,0,90.0*
21,1,1.0040,1.2000,0,0,90.0*
1,1,0.3960,0.4020,0.5020*
1,1,0.3960,0.4020,-0.5020*
1,1,0.3960,-0.4020,-0.5020*
1,1,0.3960,-0.4020,0.5020*
%
%ADD48ROUNDEDRECTD48*%
G04:AMPARAMS|DCode=49|XSize=1.15mm|YSize=1.05mm|CornerRadius=0.1995mm|HoleSize=0mm|Usage=FLASHONLY|Rotation=90.000|XOffset=0mm|YOffset=0mm|HoleType=Round|Shape=RoundedRectangle|*
%AMROUNDEDRECTD49*
21,1,1.1500,0.6510,0,0,90.0*
21,1,0.7510,1.0500,0,0,90.0*
1,1,0.3990,0.3255,0.3755*
1,1,0.3990,0.3255,-0.3755*
1,1,0.3990,-0.3255,-0.3755*
1,1,0.3990,-0.3255,0.3755*
%
%ADD49ROUNDEDRECTD49*%
%ADD50O,0.3000X0.8000*%
%ADD51O,0.8000X0.3000*%
%ADD52R,0.3500X0.3500*%
%ADD53C,0.2500*%
%ADD54C,0.5000*%
%ADD55C,0.4000*%
%ADD56C,0.3000*%
%ADD57C,1.0000*%
%ADD58C,2.0000*%
%ADD59C,0.2000*%
%ADD60C,2.5000*%
%ADD61C,1.8500*%
%ADD62C,1.9000*%
%ADD63C,7.0000*%
%ADD64C,0.6000*%
%ADD65C,5.0000*%
%ADD66C,0.1500*%
%ADD67C,0.0375*%
%ADD68C,0.0425*%
%ADD69C,0.0250*%
%ADD70C,0.0000*%
%ADD71C,0.6500*%
G04:AMPARAMS|DCode=72|XSize=1.15mm|YSize=1.1mm|CornerRadius=0.2745mm|HoleSize=0mm|Usage=FLASHONLY|Rotation=180.000|XOffset=0mm|YOffset=0mm|HoleType=Round|Shape=RoundedRectangle|*
%AMROUNDEDRECTD72*
21,1,1.1500,0.5510,0,0,180.0*
21,1,0.6010,1.1000,0,0,180.0*
1,1,0.5490,-0.3005,0.2755*
1,1,0.5490,0.3005,0.2755*
1,1,0.5490,0.3005,-0.2755*
1,1,0.5490,-0.3005,-0.2755*
%
%ADD72ROUNDEDRECTD72*%
G04:AMPARAMS|DCode=73|XSize=1.15mm|YSize=1.1mm|CornerRadius=0.2745mm|HoleSize=0mm|Usage=FLASHONLY|Rotation=270.000|XOffset=0mm|YOffset=0mm|HoleType=Round|Shape=RoundedRectangle|*
%AMROUNDEDRECTD73*
21,1,1.1500,0.5510,0,0,270.0*
21,1,0.6010,1.1000,0,0,270.0*
1,1,0.5490,-0.2755,-0.3005*
1,1,0.5490,-0.2755,0.3005*
1,1,0.5490,0.2755,0.3005*
1,1,0.5490,0.2755,-0.3005*
%
%ADD73ROUNDEDRECTD73*%
G04:AMPARAMS|DCode=74|XSize=2.85mm|YSize=1.3mm|CornerRadius=0.2763mm|HoleSize=0mm|Usage=FLASHONLY|Rotation=270.000|XOffset=0mm|YOffset=0mm|HoleType=Round|Shape=RoundedRectangle|*
%AMROUNDEDRECTD74*
21,1,2.8500,0.7475,0,0,270.0*
21,1,2.2975,1.3000,0,0,270.0*
1,1,0.5525,-0.3738,-1.1487*
1,1,0.5525,-0.3738,1.1487*
1,1,0.5525,0.3738,1.1487*
1,1,0.5525,0.3738,-1.1487*
%
%ADD74ROUNDEDRECTD74*%
G04:AMPARAMS|DCode=75|XSize=1.6mm|YSize=1.3mm|CornerRadius=0.2763mm|HoleSize=0mm|Usage=FLASHONLY|Rotation=90.000|XOffset=0mm|YOffset=0mm|HoleType=Round|Shape=RoundedRectangle|*
%AMROUNDEDRECTD75*
21,1,1.6000,0.7475,0,0,90.0*
21,1,1.0475,1.3000,0,0,90.0*
1,1,0.5525,0.3738,0.5238*
1,1,0.5525,0.3738,-0.5238*
1,1,0.5525,-0.3738,-0.5238*
1,1,0.5525,-0.3738,0.5238*
%
%ADD75ROUNDEDRECTD75*%
G04:AMPARAMS|DCode=76|XSize=0.77mm|YSize=0.77mm|CornerRadius=0.2238mm|HoleSize=0mm|Usage=FLASHONLY|Rotation=180.000|XOffset=0mm|YOffset=0mm|HoleType=Round|Shape=RoundedRectangle|*
%AMROUNDEDRECTD76*
21,1,0.7700,0.3224,0,0,180.0*
21,1,0.3224,0.7700,0,0,180.0*
1,1,0.4476,-0.1612,0.1612*
1,1,0.4476,0.1612,0.1612*
1,1,0.4476,0.1612,-0.1612*
1,1,0.4476,-0.1612,-0.1612*
%
%ADD76ROUNDEDRECTD76*%
G04:AMPARAMS|DCode=77|XSize=2.85mm|YSize=1.3mm|CornerRadius=0.2763mm|HoleSize=0mm|Usage=FLASHONLY|Rotation=0.000|XOffset=0mm|YOffset=0mm|HoleType=Round|Shape=RoundedRectangle|*
%AMROUNDEDRECTD77*
21,1,2.8500,0.7475,0,0,0.0*
21,1,2.2975,1.3000,0,0,0.0*
1,1,0.5525,1.1487,-0.3738*
1,1,0.5525,-1.1487,-0.3738*
1,1,0.5525,-1.1487,0.3738*
1,1,0.5525,1.1487,0.3738*
%
%ADD77ROUNDEDRECTD77*%
G04:AMPARAMS|DCode=78|XSize=1.6mm|YSize=1.3mm|CornerRadius=0.2763mm|HoleSize=0mm|Usage=FLASHONLY|Rotation=0.000|XOffset=0mm|YOffset=0mm|HoleType=Round|Shape=RoundedRectangle|*
%AMROUNDEDRECTD78*
21,1,1.6000,0.7475,0,0,0.0*
21,1,1.0475,1.3000,0,0,0.0*
1,1,0.5525,0.5238,-0.3738*
1,1,0.5525,-0.5238,-0.3738*
1,1,0.5525,-0.5238,0.3738*
1,1,0.5525,0.5238,0.3738*
%
%ADD78ROUNDEDRECTD78*%
G04:AMPARAMS|DCode=79|XSize=1.35mm|YSize=1.35mm|CornerRadius=0.273mm|HoleSize=0mm|Usage=FLASHONLY|Rotation=180.000|XOffset=0mm|YOffset=0mm|HoleType=Round|Shape=RoundedRectangle|*
%AMROUNDEDRECTD79*
21,1,1.3500,0.8040,0,0,180.0*
21,1,0.8040,1.3500,0,0,180.0*
1,1,0.5460,-0.4020,0.4020*
1,1,0.5460,0.4020,0.4020*
1,1,0.5460,0.4020,-0.4020*
1,1,0.5460,-0.4020,-0.4020*
%
%ADD79ROUNDEDRECTD79*%
G04:AMPARAMS|DCode=80|XSize=1.6mm|YSize=0.65mm|CornerRadius=0.275mm|HoleSize=0mm|Usage=FLASHONLY|Rotation=270.000|XOffset=0mm|YOffset=0mm|HoleType=Round|Shape=RoundedRectangle|*
%AMROUNDEDRECTD80*
21,1,1.6000,0.1000,0,0,270.0*
21,1,1.0500,0.6500,0,0,270.0*
1,1,0.5500,-0.0500,-0.5250*
1,1,0.5500,-0.0500,0.5250*
1,1,0.5500,0.0500,0.5250*
1,1,0.5500,0.0500,-0.5250*
%
%ADD80ROUNDEDRECTD80*%
G04:AMPARAMS|DCode=81|XSize=2.65mm|YSize=1.85mm|CornerRadius=0.279mm|HoleSize=0mm|Usage=FLASHONLY|Rotation=0.000|XOffset=0mm|YOffset=0mm|HoleType=Round|Shape=RoundedRectangle|*
%AMROUNDEDRECTD81*
21,1,2.6500,1.2920,0,0,0.0*
21,1,2.0920,1.8500,0,0,0.0*
1,1,0.5580,1.0460,-0.6460*
1,1,0.5580,-1.0460,-0.6460*
1,1,0.5580,-1.0460,0.6460*
1,1,0.5580,1.0460,0.6460*
%
%ADD81ROUNDEDRECTD81*%
G04:AMPARAMS|DCode=82|XSize=0.8mm|YSize=0.65mm|CornerRadius=0.275mm|HoleSize=0mm|Usage=FLASHONLY|Rotation=180.000|XOffset=0mm|YOffset=0mm|HoleType=Round|Shape=RoundedRectangle|*
%AMROUNDEDRECTD82*
21,1,0.8000,0.1000,0,0,180.0*
21,1,0.2500,0.6500,0,0,180.0*
1,1,0.5500,-0.1250,0.0500*
1,1,0.5500,0.1250,0.0500*
1,1,0.5500,0.1250,-0.0500*
1,1,0.5500,-0.1250,-0.0500*
%
%ADD82ROUNDEDRECTD82*%
G04:AMPARAMS|DCode=83|XSize=3.45mm|YSize=2.65mm|CornerRadius=0.275mm|HoleSize=0mm|Usage=FLASHONLY|Rotation=270.000|XOffset=0mm|YOffset=0mm|HoleType=Round|Shape=RoundedRectangle|*
%AMROUNDEDRECTD83*
21,1,3.4500,2.1000,0,0,270.0*
21,1,2.9000,2.6500,0,0,270.0*
1,1,0.5500,-1.0500,-1.4500*
1,1,0.5500,-1.0500,1.4500*
1,1,0.5500,1.0500,1.4500*
1,1,0.5500,1.0500,-1.4500*
%
%ADD83ROUNDEDRECTD83*%
%ADD84C,2.0000*%
G04:AMPARAMS|DCode=85|XSize=2.65mm|YSize=2.15mm|CornerRadius=0.275mm|HoleSize=0mm|Usage=FLASHONLY|Rotation=180.000|XOffset=0mm|YOffset=0mm|HoleType=Round|Shape=RoundedRectangle|*
%AMROUNDEDRECTD85*
21,1,2.6500,1.6000,0,0,180.0*
21,1,2.1000,2.1500,0,0,180.0*
1,1,0.5500,-1.0500,0.8000*
1,1,0.5500,1.0500,0.8000*
1,1,0.5500,1.0500,-0.8000*
1,1,0.5500,-1.0500,-0.8000*
%
%ADD85ROUNDEDRECTD85*%
G04:AMPARAMS|DCode=86|XSize=2.45mm|YSize=0.65mm|CornerRadius=0.275mm|HoleSize=0mm|Usage=FLASHONLY|Rotation=180.000|XOffset=0mm|YOffset=0mm|HoleType=Round|Shape=RoundedRectangle|*
%AMROUNDEDRECTD86*
21,1,2.4500,0.1000,0,0,180.0*
21,1,1.9000,0.6500,0,0,180.0*
1,1,0.5500,-0.9500,0.0500*
1,1,0.5500,0.9500,0.0500*
1,1,0.5500,0.9500,-0.0500*
1,1,0.5500,-0.9500,-0.0500*
%
%ADD86ROUNDEDRECTD86*%
G04:AMPARAMS|DCode=87|XSize=5.25mm|YSize=4.5mm|CornerRadius=0.2707mm|HoleSize=0mm|Usage=FLASHONLY|Rotation=270.000|XOffset=0mm|YOffset=0mm|HoleType=Round|Shape=RoundedRectangle|*
%AMROUNDEDRECTD87*
21,1,5.2500,3.9585,0,0,270.0*
21,1,4.7085,4.5000,0,0,270.0*
1,1,0.5415,-1.9792,-2.3542*
1,1,0.5415,-1.9792,2.3542*
1,1,0.5415,1.9792,2.3542*
1,1,0.5415,1.9792,-2.3542*
%
%ADD87ROUNDEDRECTD87*%
%ADD88O,0.7500X1.5500*%
%ADD89O,1.5500X0.7500*%
G04:AMPARAMS|DCode=90|XSize=1.2mm|YSize=0.8mm|CornerRadius=0.2765mm|HoleSize=0mm|Usage=FLASHONLY|Rotation=270.000|XOffset=0mm|YOffset=0mm|HoleType=Round|Shape=RoundedRectangle|*
%AMROUNDEDRECTD90*
21,1,1.2000,0.2470,0,0,270.0*
21,1,0.6470,0.8000,0,0,270.0*
1,1,0.5530,-0.1235,-0.3235*
1,1,0.5530,-0.1235,0.3235*
1,1,0.5530,0.1235,0.3235*
1,1,0.5530,0.1235,-0.3235*
%
%ADD90ROUNDEDRECTD90*%
G04:AMPARAMS|DCode=91|XSize=1.15mm|YSize=1.05mm|CornerRadius=0.273mm|HoleSize=0mm|Usage=FLASHONLY|Rotation=270.000|XOffset=0mm|YOffset=0mm|HoleType=Round|Shape=RoundedRectangle|*
%AMROUNDEDRECTD91*
21,1,1.1500,0.5040,0,0,270.0*
21,1,0.6040,1.0500,0,0,270.0*
1,1,0.5460,-0.2520,-0.3020*
1,1,0.5460,-0.2520,0.3020*
1,1,0.5460,0.2520,0.3020*
1,1,0.5460,0.2520,-0.3020*
%
%ADD91ROUNDEDRECTD91*%
G04:AMPARAMS|DCode=92|XSize=1.15mm|YSize=1.05mm|CornerRadius=0.273mm|HoleSize=0mm|Usage=FLASHONLY|Rotation=180.000|XOffset=0mm|YOffset=0mm|HoleType=Round|Shape=RoundedRectangle|*
%AMROUNDEDRECTD92*
21,1,1.1500,0.5040,0,0,180.0*
21,1,0.6040,1.0500,0,0,180.0*
1,1,0.5460,-0.3020,0.2520*
1,1,0.5460,0.3020,0.2520*
1,1,0.5460,0.3020,-0.2520*
1,1,0.5460,-0.3020,-0.2520*
%
%ADD92ROUNDEDRECTD92*%
G04:AMPARAMS|DCode=93|XSize=1.9mm|YSize=1.2mm|CornerRadius=0.2745mm|HoleSize=0mm|Usage=FLASHONLY|Rotation=270.000|XOffset=0mm|YOffset=0mm|HoleType=Round|Shape=RoundedRectangle|*
%AMROUNDEDRECTD93*
21,1,1.9000,0.6510,0,0,270.0*
21,1,1.3510,1.2000,0,0,270.0*
1,1,0.5490,-0.3255,-0.6755*
1,1,0.5490,-0.3255,0.6755*
1,1,0.5490,0.3255,0.6755*
1,1,0.5490,0.3255,-0.6755*
%
%ADD93ROUNDEDRECTD93*%
G04:AMPARAMS|DCode=94|XSize=1.9mm|YSize=1.2mm|CornerRadius=0.2745mm|HoleSize=0mm|Usage=FLASHONLY|Rotation=180.000|XOffset=0mm|YOffset=0mm|HoleType=Round|Shape=RoundedRectangle|*
%AMROUNDEDRECTD94*
21,1,1.9000,0.6510,0,0,180.0*
21,1,1.3510,1.2000,0,0,180.0*
1,1,0.5490,-0.6755,0.3255*
1,1,0.5490,0.6755,0.3255*
1,1,0.5490,0.6755,-0.3255*
1,1,0.5490,-0.6755,-0.3255*
%
%ADD94ROUNDEDRECTD94*%
G04:AMPARAMS|DCode=95|XSize=1.25mm|YSize=0.7mm|CornerRadius=0.2758mm|HoleSize=0mm|Usage=FLASHONLY|Rotation=180.000|XOffset=0mm|YOffset=0mm|HoleType=Round|Shape=RoundedRectangle|*
%AMROUNDEDRECTD95*
21,1,1.2500,0.1485,0,0,180.0*
21,1,0.6985,0.7000,0,0,180.0*
1,1,0.5515,-0.3493,0.0743*
1,1,0.5515,0.3493,0.0743*
1,1,0.5515,0.3493,-0.0743*
1,1,0.5515,-0.3493,-0.0743*
%
%ADD95ROUNDEDRECTD95*%
%ADD96O,0.7500X1.7000*%
G04:AMPARAMS|DCode=97|XSize=9.25mm|YSize=8.8mm|CornerRadius=0.2913mm|HoleSize=0mm|Usage=FLASHONLY|Rotation=0.000|XOffset=0mm|YOffset=0mm|HoleType=Round|Shape=RoundedRectangle|*
%AMROUNDEDRECTD97*
21,1,9.2500,8.2175,0,0,0.0*
21,1,8.6675,8.8000,0,0,0.0*
1,1,0.5825,4.3338,-4.1087*
1,1,0.5825,-4.3338,-4.1087*
1,1,0.5825,-4.3338,4.1087*
1,1,0.5825,4.3338,4.1087*
%
%ADD97ROUNDEDRECTD97*%
G04:AMPARAMS|DCode=98|XSize=3.9mm|YSize=1.2mm|CornerRadius=0.2745mm|HoleSize=0mm|Usage=FLASHONLY|Rotation=270.000|XOffset=0mm|YOffset=0mm|HoleType=Round|Shape=RoundedRectangle|*
%AMROUNDEDRECTD98*
21,1,3.9000,0.6510,0,0,270.0*
21,1,3.3510,1.2000,0,0,270.0*
1,1,0.5490,-0.3255,-1.6755*
1,1,0.5490,-0.3255,1.6755*
1,1,0.5490,0.3255,1.6755*
1,1,0.5490,0.3255,-1.6755*
%
%ADD98ROUNDEDRECTD98*%
G04:AMPARAMS|DCode=99|XSize=6.6mm|YSize=6.15mm|CornerRadius=0.285mm|HoleSize=0mm|Usage=FLASHONLY|Rotation=270.000|XOffset=0mm|YOffset=0mm|HoleType=Round|Shape=RoundedRectangle|*
%AMROUNDEDRECTD99*
21,1,6.6000,5.5800,0,0,270.0*
21,1,6.0300,6.1500,0,0,270.0*
1,1,0.5700,-2.7900,-3.0150*
1,1,0.5700,-2.7900,3.0150*
1,1,0.5700,2.7900,3.0150*
1,1,0.5700,2.7900,-3.0150*
%
%ADD99ROUNDEDRECTD99*%
G04:AMPARAMS|DCode=100|XSize=3mm|YSize=1.15mm|CornerRadius=0.275mm|HoleSize=0mm|Usage=FLASHONLY|Rotation=270.000|XOffset=0mm|YOffset=0mm|HoleType=Round|Shape=RoundedRectangle|*
%AMROUNDEDRECTD100*
21,1,3.0000,0.6000,0,0,270.0*
21,1,2.4500,1.1500,0,0,270.0*
1,1,0.5500,-0.3000,-1.2250*
1,1,0.5500,-0.3000,1.2250*
1,1,0.5500,0.3000,1.2250*
1,1,0.5500,0.3000,-1.2250*
%
%ADD100ROUNDEDRECTD100*%
%ADD101O,1.7000X0.7500*%
%ADD102O,0.4000X1.6000*%
%ADD103O,1.6000X0.4000*%
%ADD104O,0.9500X0.3500*%
%ADD105C,0.4032*%
%ADD106R,0.3000X0.6500*%
G04:AMPARAMS|DCode=107|XSize=5.05mm|YSize=1.75mm|CornerRadius=0.275mm|HoleSize=0mm|Usage=FLASHONLY|Rotation=0.000|XOffset=0mm|YOffset=0mm|HoleType=Round|Shape=RoundedRectangle|*
%AMROUNDEDRECTD107*
21,1,5.0500,1.2000,0,0,0.0*
21,1,4.5000,1.7500,0,0,0.0*
1,1,0.5500,2.2500,-0.6000*
1,1,0.5500,-2.2500,-0.6000*
1,1,0.5500,-2.2500,0.6000*
1,1,0.5500,2.2500,0.6000*
%
%ADD107ROUNDEDRECTD107*%
G04:AMPARAMS|DCode=108|XSize=1.9mm|YSize=1.55mm|CornerRadius=0.278mm|HoleSize=0mm|Usage=FLASHONLY|Rotation=90.000|XOffset=0mm|YOffset=0mm|HoleType=Round|Shape=RoundedRectangle|*
%AMROUNDEDRECTD108*
21,1,1.9000,0.9940,0,0,90.0*
21,1,1.3440,1.5500,0,0,90.0*
1,1,0.5560,0.4970,0.6720*
1,1,0.5560,0.4970,-0.6720*
1,1,0.5560,-0.4970,-0.6720*
1,1,0.5560,-0.4970,0.6720*
%
%ADD108ROUNDEDRECTD108*%
G04:AMPARAMS|DCode=109|XSize=1.55mm|YSize=1.35mm|CornerRadius=0.273mm|HoleSize=0mm|Usage=FLASHONLY|Rotation=90.000|XOffset=0mm|YOffset=0mm|HoleType=Round|Shape=RoundedRectangle|*
%AMROUNDEDRECTD109*
21,1,1.5500,0.8040,0,0,90.0*
21,1,1.0040,1.3500,0,0,90.0*
1,1,0.5460,0.4020,0.5020*
1,1,0.5460,0.4020,-0.5020*
1,1,0.5460,-0.4020,-0.5020*
1,1,0.5460,-0.4020,0.5020*
%
%ADD109ROUNDEDRECTD109*%
G04:AMPARAMS|DCode=110|XSize=1.3mm|YSize=1.2mm|CornerRadius=0.2745mm|HoleSize=0mm|Usage=FLASHONLY|Rotation=90.000|XOffset=0mm|YOffset=0mm|HoleType=Round|Shape=RoundedRectangle|*
%AMROUNDEDRECTD110*
21,1,1.3000,0.6510,0,0,90.0*
21,1,0.7510,1.2000,0,0,90.0*
1,1,0.5490,0.3255,0.3755*
1,1,0.5490,0.3255,-0.3755*
1,1,0.5490,-0.3255,-0.3755*
1,1,0.5490,-0.3255,0.3755*
%
%ADD110ROUNDEDRECTD110*%
%ADD111O,0.4000X0.9000*%
%ADD112O,0.9000X0.4000*%
%ADD113R,0.5532X0.5532*%
%ADD114C,2.6500*%
%ADD115C,2.0000*%
%ADD116C,1.0500*%
%ADD117C,2.0500*%
%ADD118C,7.1500*%
G36*
X930000Y1281000D02*
Y429000D01*
Y422000D01*
X55000D01*
Y429000D01*
Y1255000D01*
Y1333000D01*
X930000D01*
Y1281000D01*
D02*
G37*
%LPC*%
G36*
X359000Y855000D02*
X336000D01*
Y705000D01*
X359000D01*
Y855000D01*
D02*
G37*
G36*
X256000D02*
X241000D01*
Y705000D01*
X256000D01*
Y855000D01*
D02*
G37*
G36*
X159000D02*
X135000D01*
Y705000D01*
X159000D01*
Y855000D01*
D02*
G37*
G36*
X465000D02*
X441000D01*
Y705000D01*
X465000D01*
Y855000D01*
D02*
G37*
G36*
X759000D02*
X736000D01*
Y705000D01*
X759000D01*
Y855000D01*
D02*
G37*
G36*
X656000D02*
X641000D01*
Y705000D01*
X656000D01*
Y855000D01*
D02*
G37*
G36*
X559000D02*
X535000D01*
Y705000D01*
X559000D01*
Y855000D01*
D02*
G37*
G36*
X865000Y655000D02*
X841000D01*
Y506000D01*
X865000D01*
Y655000D01*
D02*
G37*
G36*
X359000D02*
X336000D01*
Y506000D01*
X359000D01*
Y655000D01*
D02*
G37*
G36*
X256000D02*
X241000D01*
Y506000D01*
X256000D01*
Y655000D01*
D02*
G37*
G36*
X159000D02*
X135000D01*
Y506000D01*
X159000D01*
Y655000D01*
D02*
G37*
G36*
X465000D02*
X441000D01*
Y506000D01*
X465000D01*
Y655000D01*
D02*
G37*
G36*
X759000D02*
X736000D01*
Y506000D01*
X759000D01*
Y655000D01*
D02*
G37*
G36*
X656000D02*
X641000D01*
Y506000D01*
X656000D01*
Y655000D01*
D02*
G37*
G36*
X559000D02*
X535000D01*
Y506000D01*
X559000D01*
Y655000D01*
D02*
G37*
G36*
X256000Y1255000D02*
X241000D01*
Y1105000D01*
X256000D01*
Y1255000D01*
D02*
G37*
G36*
X359000D02*
X336000D01*
Y1105000D01*
X359000D01*
Y1255000D01*
D02*
G37*
G36*
X865000Y1055000D02*
X841000D01*
Y905000D01*
X865000D01*
Y1055000D01*
D02*
G37*
G36*
X159000Y1255000D02*
X135000D01*
Y1105000D01*
X159000D01*
Y1255000D01*
D02*
G37*
G36*
X656000D02*
X641000D01*
Y1105000D01*
X656000D01*
Y1255000D01*
D02*
G37*
G36*
X865000Y1281000D02*
X736000D01*
Y1255000D01*
Y1105000D01*
X759000D01*
Y1247000D01*
X841000D01*
Y1105000D01*
X865000D01*
Y1281000D01*
D02*
G37*
G36*
X465000Y1255000D02*
X441000D01*
Y1105000D01*
X465000D01*
Y1255000D01*
D02*
G37*
G36*
X559000D02*
X535000D01*
Y1105000D01*
X559000D01*
Y1255000D01*
D02*
G37*
G36*
X256000Y1055000D02*
X241000D01*
Y905000D01*
X256000D01*
Y1055000D01*
D02*
G37*
G36*
X359000D02*
X336000D01*
Y905000D01*
X359000D01*
Y1055000D01*
D02*
G37*
G36*
X865000Y855000D02*
X841000D01*
Y705000D01*
X865000D01*
Y855000D01*
D02*
G37*
G36*
X159000Y1055000D02*
X135000D01*
Y905000D01*
X159000D01*
Y1055000D01*
D02*
G37*
G36*
X656000D02*
X641000D01*
Y905000D01*
X656000D01*
Y1055000D01*
D02*
G37*
G36*
X759000D02*
X736000D01*
Y905000D01*
X759000D01*
Y1055000D01*
D02*
G37*
G36*
X465000D02*
X441000D01*
Y905000D01*
X465000D01*
Y1055000D01*
D02*
G37*
G36*
X559000D02*
X535000D01*
Y905000D01*
X559000D01*
Y1055000D01*
D02*
G37*
%LPD*%
D114*
X1164150Y276950D02*
D03*
Y234950D02*
D03*
Y192950D02*
D03*
X1109150Y276950D02*
D03*
Y234950D02*
D03*
Y192950D02*
D03*
X1162880Y1563460D02*
D03*
Y1521460D02*
D03*
Y1479460D02*
D03*
X1107880Y1563460D02*
D03*
Y1521460D02*
D03*
Y1479460D02*
D03*
D115*
X974362Y1143895D02*
D03*
Y1118495D02*
D03*
Y1093095D02*
D03*
Y1067695D02*
D03*
Y1042295D02*
D03*
D116*
X1148000Y843000D02*
D03*
Y799000D02*
D03*
D117*
X1159000Y735000D02*
D03*
Y700000D02*
D03*
Y665000D02*
D03*
D118*
X87500Y467500D02*
D03*
X1125000Y355000D02*
D03*
X75000Y1405000D02*
D03*
X500000Y880000D02*
D03*
X87500Y1292500D02*
D03*
X912500Y467500D02*
D03*
X1125000Y1405000D02*
D03*
X75000Y355000D02*
D03*
X912500Y1292500D02*
D03*
X50000Y50000D02*
D03*
X1150000D02*
D03*
X50000Y1710000D02*
D03*
X1150000D02*
D03*
M02*
