%FSLAX44Y44*%
%MOMM*%
G71*
G01*
G75*
G04 Layer_Color=8388736*
%ADD10C,0.5000*%
G04:AMPARAMS|DCode=11|XSize=1mm|YSize=0.95mm|CornerRadius=0.1995mm|HoleSize=0mm|Usage=FLASHONLY|Rotation=180.000|XOffset=0mm|YOffset=0mm|HoleType=Round|Shape=RoundedRectangle|*
%AMROUNDEDRECTD11*
21,1,1.0000,0.5510,0,0,180.0*
21,1,0.6010,0.9500,0,0,180.0*
1,1,0.3990,-0.3005,0.2755*
1,1,0.3990,0.3005,0.2755*
1,1,0.3990,0.3005,-0.2755*
1,1,0.3990,-0.3005,-0.2755*
%
%ADD11ROUNDEDRECTD11*%
G04:AMPARAMS|DCode=12|XSize=1mm|YSize=0.95mm|CornerRadius=0.1995mm|HoleSize=0mm|Usage=FLASHONLY|Rotation=270.000|XOffset=0mm|YOffset=0mm|HoleType=Round|Shape=RoundedRectangle|*
%AMROUNDEDRECTD12*
21,1,1.0000,0.5510,0,0,270.0*
21,1,0.6010,0.9500,0,0,270.0*
1,1,0.3990,-0.2755,-0.3005*
1,1,0.3990,-0.2755,0.3005*
1,1,0.3990,0.2755,0.3005*
1,1,0.3990,0.2755,-0.3005*
%
%ADD12ROUNDEDRECTD12*%
G04:AMPARAMS|DCode=13|XSize=2.7mm|YSize=1.15mm|CornerRadius=0.2013mm|HoleSize=0mm|Usage=FLASHONLY|Rotation=270.000|XOffset=0mm|YOffset=0mm|HoleType=Round|Shape=RoundedRectangle|*
%AMROUNDEDRECTD13*
21,1,2.7000,0.7475,0,0,270.0*
21,1,2.2975,1.1500,0,0,270.0*
1,1,0.4025,-0.3738,-1.1487*
1,1,0.4025,-0.3738,1.1487*
1,1,0.4025,0.3738,1.1487*
1,1,0.4025,0.3738,-1.1487*
%
%ADD13ROUNDEDRECTD13*%
G04:AMPARAMS|DCode=14|XSize=1.45mm|YSize=1.15mm|CornerRadius=0.2013mm|HoleSize=0mm|Usage=FLASHONLY|Rotation=90.000|XOffset=0mm|YOffset=0mm|HoleType=Round|Shape=RoundedRectangle|*
%AMROUNDEDRECTD14*
21,1,1.4500,0.7475,0,0,90.0*
21,1,1.0475,1.1500,0,0,90.0*
1,1,0.4025,0.3738,0.5238*
1,1,0.4025,0.3738,-0.5238*
1,1,0.4025,-0.3738,-0.5238*
1,1,0.4025,-0.3738,0.5238*
%
%ADD14ROUNDEDRECTD14*%
G04:AMPARAMS|DCode=15|XSize=0.62mm|YSize=0.62mm|CornerRadius=0.1488mm|HoleSize=0mm|Usage=FLASHONLY|Rotation=180.000|XOffset=0mm|YOffset=0mm|HoleType=Round|Shape=RoundedRectangle|*
%AMROUNDEDRECTD15*
21,1,0.6200,0.3224,0,0,180.0*
21,1,0.3224,0.6200,0,0,180.0*
1,1,0.2976,-0.1612,0.1612*
1,1,0.2976,0.1612,0.1612*
1,1,0.2976,0.1612,-0.1612*
1,1,0.2976,-0.1612,-0.1612*
%
%ADD15ROUNDEDRECTD15*%
G04:AMPARAMS|DCode=16|XSize=2.7mm|YSize=1.15mm|CornerRadius=0.2013mm|HoleSize=0mm|Usage=FLASHONLY|Rotation=0.000|XOffset=0mm|YOffset=0mm|HoleType=Round|Shape=RoundedRectangle|*
%AMROUNDEDRECTD16*
21,1,2.7000,0.7475,0,0,0.0*
21,1,2.2975,1.1500,0,0,0.0*
1,1,0.4025,1.1487,-0.3738*
1,1,0.4025,-1.1487,-0.3738*
1,1,0.4025,-1.1487,0.3738*
1,1,0.4025,1.1487,0.3738*
%
%ADD16ROUNDEDRECTD16*%
G04:AMPARAMS|DCode=17|XSize=1.45mm|YSize=1.15mm|CornerRadius=0.2013mm|HoleSize=0mm|Usage=FLASHONLY|Rotation=0.000|XOffset=0mm|YOffset=0mm|HoleType=Round|Shape=RoundedRectangle|*
%AMROUNDEDRECTD17*
21,1,1.4500,0.7475,0,0,0.0*
21,1,1.0475,1.1500,0,0,0.0*
1,1,0.4025,0.5238,-0.3738*
1,1,0.4025,-0.5238,-0.3738*
1,1,0.4025,-0.5238,0.3738*
1,1,0.4025,0.5238,0.3738*
%
%ADD17ROUNDEDRECTD17*%
G04:AMPARAMS|DCode=18|XSize=1.2mm|YSize=1.2mm|CornerRadius=0.198mm|HoleSize=0mm|Usage=FLASHONLY|Rotation=180.000|XOffset=0mm|YOffset=0mm|HoleType=Round|Shape=RoundedRectangle|*
%AMROUNDEDRECTD18*
21,1,1.2000,0.8040,0,0,180.0*
21,1,0.8040,1.2000,0,0,180.0*
1,1,0.3960,-0.4020,0.4020*
1,1,0.3960,0.4020,0.4020*
1,1,0.3960,0.4020,-0.4020*
1,1,0.3960,-0.4020,-0.4020*
%
%ADD18ROUNDEDRECTD18*%
G04:AMPARAMS|DCode=19|XSize=1.45mm|YSize=0.5mm|CornerRadius=0.2mm|HoleSize=0mm|Usage=FLASHONLY|Rotation=270.000|XOffset=0mm|YOffset=0mm|HoleType=Round|Shape=RoundedRectangle|*
%AMROUNDEDRECTD19*
21,1,1.4500,0.1000,0,0,270.0*
21,1,1.0500,0.5000,0,0,270.0*
1,1,0.4000,-0.0500,-0.5250*
1,1,0.4000,-0.0500,0.5250*
1,1,0.4000,0.0500,0.5250*
1,1,0.4000,0.0500,-0.5250*
%
%ADD19ROUNDEDRECTD19*%
G04:AMPARAMS|DCode=20|XSize=2.5mm|YSize=1.7mm|CornerRadius=0.204mm|HoleSize=0mm|Usage=FLASHONLY|Rotation=0.000|XOffset=0mm|YOffset=0mm|HoleType=Round|Shape=RoundedRectangle|*
%AMROUNDEDRECTD20*
21,1,2.5000,1.2920,0,0,0.0*
21,1,2.0920,1.7000,0,0,0.0*
1,1,0.4080,1.0460,-0.6460*
1,1,0.4080,-1.0460,-0.6460*
1,1,0.4080,-1.0460,0.6460*
1,1,0.4080,1.0460,0.6460*
%
%ADD20ROUNDEDRECTD20*%
G04:AMPARAMS|DCode=21|XSize=0.65mm|YSize=0.5mm|CornerRadius=0.2mm|HoleSize=0mm|Usage=FLASHONLY|Rotation=180.000|XOffset=0mm|YOffset=0mm|HoleType=Round|Shape=RoundedRectangle|*
%AMROUNDEDRECTD21*
21,1,0.6500,0.1000,0,0,180.0*
21,1,0.2500,0.5000,0,0,180.0*
1,1,0.4000,-0.1250,0.0500*
1,1,0.4000,0.1250,0.0500*
1,1,0.4000,0.1250,-0.0500*
1,1,0.4000,-0.1250,-0.0500*
%
%ADD21ROUNDEDRECTD21*%
G04:AMPARAMS|DCode=22|XSize=3.3mm|YSize=2.5mm|CornerRadius=0.2mm|HoleSize=0mm|Usage=FLASHONLY|Rotation=270.000|XOffset=0mm|YOffset=0mm|HoleType=Round|Shape=RoundedRectangle|*
%AMROUNDEDRECTD22*
21,1,3.3000,2.1000,0,0,270.0*
21,1,2.9000,2.5000,0,0,270.0*
1,1,0.4000,-1.0500,-1.4500*
1,1,0.4000,-1.0500,1.4500*
1,1,0.4000,1.0500,1.4500*
1,1,0.4000,1.0500,-1.4500*
%
%ADD22ROUNDEDRECTD22*%
%ADD23C,1.0000*%
G04:AMPARAMS|DCode=24|XSize=2.5mm|YSize=2mm|CornerRadius=0.2mm|HoleSize=0mm|Usage=FLASHONLY|Rotation=180.000|XOffset=0mm|YOffset=0mm|HoleType=Round|Shape=RoundedRectangle|*
%AMROUNDEDRECTD24*
21,1,2.5000,1.6000,0,0,180.0*
21,1,2.1000,2.0000,0,0,180.0*
1,1,0.4000,-1.0500,0.8000*
1,1,0.4000,1.0500,0.8000*
1,1,0.4000,1.0500,-0.8000*
1,1,0.4000,-1.0500,-0.8000*
%
%ADD24ROUNDEDRECTD24*%
G04:AMPARAMS|DCode=25|XSize=2.3mm|YSize=0.5mm|CornerRadius=0.2mm|HoleSize=0mm|Usage=FLASHONLY|Rotation=180.000|XOffset=0mm|YOffset=0mm|HoleType=Round|Shape=RoundedRectangle|*
%AMROUNDEDRECTD25*
21,1,2.3000,0.1000,0,0,180.0*
21,1,1.9000,0.5000,0,0,180.0*
1,1,0.4000,-0.9500,0.0500*
1,1,0.4000,0.9500,0.0500*
1,1,0.4000,0.9500,-0.0500*
1,1,0.4000,-0.9500,-0.0500*
%
%ADD25ROUNDEDRECTD25*%
G04:AMPARAMS|DCode=26|XSize=5.1mm|YSize=4.35mm|CornerRadius=0.1958mm|HoleSize=0mm|Usage=FLASHONLY|Rotation=270.000|XOffset=0mm|YOffset=0mm|HoleType=Round|Shape=RoundedRectangle|*
%AMROUNDEDRECTD26*
21,1,5.1000,3.9585,0,0,270.0*
21,1,4.7085,4.3500,0,0,270.0*
1,1,0.3915,-1.9792,-2.3542*
1,1,0.3915,-1.9792,2.3542*
1,1,0.3915,1.9792,2.3542*
1,1,0.3915,1.9792,-2.3542*
%
%ADD26ROUNDEDRECTD26*%
%ADD27O,0.6000X1.4000*%
%ADD28O,1.4000X0.6000*%
G04:AMPARAMS|DCode=29|XSize=1.05mm|YSize=0.65mm|CornerRadius=0.2015mm|HoleSize=0mm|Usage=FLASHONLY|Rotation=270.000|XOffset=0mm|YOffset=0mm|HoleType=Round|Shape=RoundedRectangle|*
%AMROUNDEDRECTD29*
21,1,1.0500,0.2470,0,0,270.0*
21,1,0.6470,0.6500,0,0,270.0*
1,1,0.4030,-0.1235,-0.3235*
1,1,0.4030,-0.1235,0.3235*
1,1,0.4030,0.1235,0.3235*
1,1,0.4030,0.1235,-0.3235*
%
%ADD29ROUNDEDRECTD29*%
G04:AMPARAMS|DCode=30|XSize=1mm|YSize=0.9mm|CornerRadius=0.198mm|HoleSize=0mm|Usage=FLASHONLY|Rotation=270.000|XOffset=0mm|YOffset=0mm|HoleType=Round|Shape=RoundedRectangle|*
%AMROUNDEDRECTD30*
21,1,1.0000,0.5040,0,0,270.0*
21,1,0.6040,0.9000,0,0,270.0*
1,1,0.3960,-0.2520,-0.3020*
1,1,0.3960,-0.2520,0.3020*
1,1,0.3960,0.2520,0.3020*
1,1,0.3960,0.2520,-0.3020*
%
%ADD30ROUNDEDRECTD30*%
G04:AMPARAMS|DCode=31|XSize=1mm|YSize=0.9mm|CornerRadius=0.198mm|HoleSize=0mm|Usage=FLASHONLY|Rotation=180.000|XOffset=0mm|YOffset=0mm|HoleType=Round|Shape=RoundedRectangle|*
%AMROUNDEDRECTD31*
21,1,1.0000,0.5040,0,0,180.0*
21,1,0.6040,0.9000,0,0,180.0*
1,1,0.3960,-0.3020,0.2520*
1,1,0.3960,0.3020,0.2520*
1,1,0.3960,0.3020,-0.2520*
1,1,0.3960,-0.3020,-0.2520*
%
%ADD31ROUNDEDRECTD31*%
G04:AMPARAMS|DCode=32|XSize=1.75mm|YSize=1.05mm|CornerRadius=0.1995mm|HoleSize=0mm|Usage=FLASHONLY|Rotation=270.000|XOffset=0mm|YOffset=0mm|HoleType=Round|Shape=RoundedRectangle|*
%AMROUNDEDRECTD32*
21,1,1.7500,0.6510,0,0,270.0*
21,1,1.3510,1.0500,0,0,270.0*
1,1,0.3990,-0.3255,-0.6755*
1,1,0.3990,-0.3255,0.6755*
1,1,0.3990,0.3255,0.6755*
1,1,0.3990,0.3255,-0.6755*
%
%ADD32ROUNDEDRECTD32*%
G04:AMPARAMS|DCode=33|XSize=1.75mm|YSize=1.05mm|CornerRadius=0.1995mm|HoleSize=0mm|Usage=FLASHONLY|Rotation=180.000|XOffset=0mm|YOffset=0mm|HoleType=Round|Shape=RoundedRectangle|*
%AMROUNDEDRECTD33*
21,1,1.7500,0.6510,0,0,180.0*
21,1,1.3510,1.0500,0,0,180.0*
1,1,0.3990,-0.6755,0.3255*
1,1,0.3990,0.6755,0.3255*
1,1,0.3990,0.6755,-0.3255*
1,1,0.3990,-0.6755,-0.3255*
%
%ADD33ROUNDEDRECTD33*%
G04:AMPARAMS|DCode=34|XSize=1.1mm|YSize=0.55mm|CornerRadius=0.2008mm|HoleSize=0mm|Usage=FLASHONLY|Rotation=180.000|XOffset=0mm|YOffset=0mm|HoleType=Round|Shape=RoundedRectangle|*
%AMROUNDEDRECTD34*
21,1,1.1000,0.1485,0,0,180.0*
21,1,0.6985,0.5500,0,0,180.0*
1,1,0.4015,-0.3493,0.0743*
1,1,0.4015,0.3493,0.0743*
1,1,0.4015,0.3493,-0.0743*
1,1,0.4015,-0.3493,-0.0743*
%
%ADD34ROUNDEDRECTD34*%
%ADD35O,0.6000X1.5500*%
G04:AMPARAMS|DCode=36|XSize=9.1mm|YSize=8.65mm|CornerRadius=0.2163mm|HoleSize=0mm|Usage=FLASHONLY|Rotation=0.000|XOffset=0mm|YOffset=0mm|HoleType=Round|Shape=RoundedRectangle|*
%AMROUNDEDRECTD36*
21,1,9.1000,8.2175,0,0,0.0*
21,1,8.6675,8.6500,0,0,0.0*
1,1,0.4325,4.3338,-4.1087*
1,1,0.4325,-4.3338,-4.1087*
1,1,0.4325,-4.3338,4.1087*
1,1,0.4325,4.3338,4.1087*
%
%ADD36ROUNDEDRECTD36*%
G04:AMPARAMS|DCode=37|XSize=3.75mm|YSize=1.05mm|CornerRadius=0.1995mm|HoleSize=0mm|Usage=FLASHONLY|Rotation=270.000|XOffset=0mm|YOffset=0mm|HoleType=Round|Shape=RoundedRectangle|*
%AMROUNDEDRECTD37*
21,1,3.7500,0.6510,0,0,270.0*
21,1,3.3510,1.0500,0,0,270.0*
1,1,0.3990,-0.3255,-1.6755*
1,1,0.3990,-0.3255,1.6755*
1,1,0.3990,0.3255,1.6755*
1,1,0.3990,0.3255,-1.6755*
%
%ADD37ROUNDEDRECTD37*%
G04:AMPARAMS|DCode=38|XSize=6.45mm|YSize=6mm|CornerRadius=0.21mm|HoleSize=0mm|Usage=FLASHONLY|Rotation=270.000|XOffset=0mm|YOffset=0mm|HoleType=Round|Shape=RoundedRectangle|*
%AMROUNDEDRECTD38*
21,1,6.4500,5.5800,0,0,270.0*
21,1,6.0300,6.0000,0,0,270.0*
1,1,0.4200,-2.7900,-3.0150*
1,1,0.4200,-2.7900,3.0150*
1,1,0.4200,2.7900,3.0150*
1,1,0.4200,2.7900,-3.0150*
%
%ADD38ROUNDEDRECTD38*%
G04:AMPARAMS|DCode=39|XSize=2.85mm|YSize=1mm|CornerRadius=0.2mm|HoleSize=0mm|Usage=FLASHONLY|Rotation=270.000|XOffset=0mm|YOffset=0mm|HoleType=Round|Shape=RoundedRectangle|*
%AMROUNDEDRECTD39*
21,1,2.8500,0.6000,0,0,270.0*
21,1,2.4500,1.0000,0,0,270.0*
1,1,0.4000,-0.3000,-1.2250*
1,1,0.4000,-0.3000,1.2250*
1,1,0.4000,0.3000,1.2250*
1,1,0.4000,0.3000,-1.2250*
%
%ADD39ROUNDEDRECTD39*%
%ADD40O,1.5500X0.6000*%
%ADD41O,0.3000X1.5000*%
%ADD42O,1.5000X0.3000*%
%ADD43O,0.8500X0.2500*%
%ADD44C,0.2000*%
%ADD45R,0.2000X0.5500*%
G04:AMPARAMS|DCode=46|XSize=4.9mm|YSize=1.6mm|CornerRadius=0.2mm|HoleSize=0mm|Usage=FLASHONLY|Rotation=0.000|XOffset=0mm|YOffset=0mm|HoleType=Round|Shape=RoundedRectangle|*
%AMROUNDEDRECTD46*
21,1,4.9000,1.2000,0,0,0.0*
21,1,4.5000,1.6000,0,0,0.0*
1,1,0.4000,2.2500,-0.6000*
1,1,0.4000,-2.2500,-0.6000*
1,1,0.4000,-2.2500,0.6000*
1,1,0.4000,2.2500,0.6000*
%
%ADD46ROUNDEDRECTD46*%
G04:AMPARAMS|DCode=47|XSize=1.75mm|YSize=1.4mm|CornerRadius=0.203mm|HoleSize=0mm|Usage=FLASHONLY|Rotation=90.000|XOffset=0mm|YOffset=0mm|HoleType=Round|Shape=RoundedRectangle|*
%AMROUNDEDRECTD47*
21,1,1.7500,0.9940,0,0,90.0*
21,1,1.3440,1.4000,0,0,90.0*
1,1,0.4060,0.4970,0.6720*
1,1,0.4060,0.4970,-0.6720*
1,1,0.4060,-0.4970,-0.6720*
1,1,0.4060,-0.4970,0.6720*
%
%ADD47ROUNDEDRECTD47*%
G04:AMPARAMS|DCode=48|XSize=1.4mm|YSize=1.2mm|CornerRadius=0.198mm|HoleSize=0mm|Usage=FLASHONLY|Rotation=90.000|XOffset=0mm|YOffset=0mm|HoleType=Round|Shape=RoundedRectangle|*
%AMROUNDEDRECTD48*
21,1,1.4000,0.8040,0,0,90.0*
21,1,1.0040,1.2000,0,0,90.0*
1,1,0.3960,0.4020,0.5020*
1,1,0.3960,0.4020,-0.5020*
1,1,0.3960,-0.4020,-0.5020*
1,1,0.3960,-0.4020,0.5020*
%
%ADD48ROUNDEDRECTD48*%
G04:AMPARAMS|DCode=49|XSize=1.15mm|YSize=1.05mm|CornerRadius=0.1995mm|HoleSize=0mm|Usage=FLASHONLY|Rotation=90.000|XOffset=0mm|YOffset=0mm|HoleType=Round|Shape=RoundedRectangle|*
%AMROUNDEDRECTD49*
21,1,1.1500,0.6510,0,0,90.0*
21,1,0.7510,1.0500,0,0,90.0*
1,1,0.3990,0.3255,0.3755*
1,1,0.3990,0.3255,-0.3755*
1,1,0.3990,-0.3255,-0.3755*
1,1,0.3990,-0.3255,0.3755*
%
%ADD49ROUNDEDRECTD49*%
%ADD50O,0.3000X0.8000*%
%ADD51O,0.8000X0.3000*%
%ADD52R,0.3500X0.3500*%
%ADD53C,0.2500*%
%ADD54C,0.5000*%
%ADD55C,0.4000*%
%ADD56C,0.3000*%
%ADD57C,1.0000*%
%ADD58C,2.0000*%
%ADD59C,0.2000*%
%ADD60C,2.5000*%
%ADD61C,1.8500*%
%ADD62C,1.9000*%
%ADD63C,7.0000*%
%ADD64C,0.6000*%
%ADD65C,5.0000*%
%ADD66C,0.1500*%
%ADD67C,0.0375*%
%ADD68C,0.0425*%
%ADD69C,0.0250*%
%ADD70C,0.0000*%
%ADD71C,0.6500*%
G04:AMPARAMS|DCode=72|XSize=1.15mm|YSize=1.1mm|CornerRadius=0.2745mm|HoleSize=0mm|Usage=FLASHONLY|Rotation=180.000|XOffset=0mm|YOffset=0mm|HoleType=Round|Shape=RoundedRectangle|*
%AMROUNDEDRECTD72*
21,1,1.1500,0.5510,0,0,180.0*
21,1,0.6010,1.1000,0,0,180.0*
1,1,0.5490,-0.3005,0.2755*
1,1,0.5490,0.3005,0.2755*
1,1,0.5490,0.3005,-0.2755*
1,1,0.5490,-0.3005,-0.2755*
%
%ADD72ROUNDEDRECTD72*%
G04:AMPARAMS|DCode=73|XSize=1.15mm|YSize=1.1mm|CornerRadius=0.2745mm|HoleSize=0mm|Usage=FLASHONLY|Rotation=270.000|XOffset=0mm|YOffset=0mm|HoleType=Round|Shape=RoundedRectangle|*
%AMROUNDEDRECTD73*
21,1,1.1500,0.5510,0,0,270.0*
21,1,0.6010,1.1000,0,0,270.0*
1,1,0.5490,-0.2755,-0.3005*
1,1,0.5490,-0.2755,0.3005*
1,1,0.5490,0.2755,0.3005*
1,1,0.5490,0.2755,-0.3005*
%
%ADD73ROUNDEDRECTD73*%
G04:AMPARAMS|DCode=74|XSize=2.85mm|YSize=1.3mm|CornerRadius=0.2763mm|HoleSize=0mm|Usage=FLASHONLY|Rotation=270.000|XOffset=0mm|YOffset=0mm|HoleType=Round|Shape=RoundedRectangle|*
%AMROUNDEDRECTD74*
21,1,2.8500,0.7475,0,0,270.0*
21,1,2.2975,1.3000,0,0,270.0*
1,1,0.5525,-0.3738,-1.1487*
1,1,0.5525,-0.3738,1.1487*
1,1,0.5525,0.3738,1.1487*
1,1,0.5525,0.3738,-1.1487*
%
%ADD74ROUNDEDRECTD74*%
G04:AMPARAMS|DCode=75|XSize=1.6mm|YSize=1.3mm|CornerRadius=0.2763mm|HoleSize=0mm|Usage=FLASHONLY|Rotation=90.000|XOffset=0mm|YOffset=0mm|HoleType=Round|Shape=RoundedRectangle|*
%AMROUNDEDRECTD75*
21,1,1.6000,0.7475,0,0,90.0*
21,1,1.0475,1.3000,0,0,90.0*
1,1,0.5525,0.3738,0.5238*
1,1,0.5525,0.3738,-0.5238*
1,1,0.5525,-0.3738,-0.5238*
1,1,0.5525,-0.3738,0.5238*
%
%ADD75ROUNDEDRECTD75*%
G04:AMPARAMS|DCode=76|XSize=0.77mm|YSize=0.77mm|CornerRadius=0.2238mm|HoleSize=0mm|Usage=FLASHONLY|Rotation=180.000|XOffset=0mm|YOffset=0mm|HoleType=Round|Shape=RoundedRectangle|*
%AMROUNDEDRECTD76*
21,1,0.7700,0.3224,0,0,180.0*
21,1,0.3224,0.7700,0,0,180.0*
1,1,0.4476,-0.1612,0.1612*
1,1,0.4476,0.1612,0.1612*
1,1,0.4476,0.1612,-0.1612*
1,1,0.4476,-0.1612,-0.1612*
%
%ADD76ROUNDEDRECTD76*%
G04:AMPARAMS|DCode=77|XSize=2.85mm|YSize=1.3mm|CornerRadius=0.2763mm|HoleSize=0mm|Usage=FLASHONLY|Rotation=0.000|XOffset=0mm|YOffset=0mm|HoleType=Round|Shape=RoundedRectangle|*
%AMROUNDEDRECTD77*
21,1,2.8500,0.7475,0,0,0.0*
21,1,2.2975,1.3000,0,0,0.0*
1,1,0.5525,1.1487,-0.3738*
1,1,0.5525,-1.1487,-0.3738*
1,1,0.5525,-1.1487,0.3738*
1,1,0.5525,1.1487,0.3738*
%
%ADD77ROUNDEDRECTD77*%
G04:AMPARAMS|DCode=78|XSize=1.6mm|YSize=1.3mm|CornerRadius=0.2763mm|HoleSize=0mm|Usage=FLASHONLY|Rotation=0.000|XOffset=0mm|YOffset=0mm|HoleType=Round|Shape=RoundedRectangle|*
%AMROUNDEDRECTD78*
21,1,1.6000,0.7475,0,0,0.0*
21,1,1.0475,1.3000,0,0,0.0*
1,1,0.5525,0.5238,-0.3738*
1,1,0.5525,-0.5238,-0.3738*
1,1,0.5525,-0.5238,0.3738*
1,1,0.5525,0.5238,0.3738*
%
%ADD78ROUNDEDRECTD78*%
G04:AMPARAMS|DCode=79|XSize=1.35mm|YSize=1.35mm|CornerRadius=0.273mm|HoleSize=0mm|Usage=FLASHONLY|Rotation=180.000|XOffset=0mm|YOffset=0mm|HoleType=Round|Shape=RoundedRectangle|*
%AMROUNDEDRECTD79*
21,1,1.3500,0.8040,0,0,180.0*
21,1,0.8040,1.3500,0,0,180.0*
1,1,0.5460,-0.4020,0.4020*
1,1,0.5460,0.4020,0.4020*
1,1,0.5460,0.4020,-0.4020*
1,1,0.5460,-0.4020,-0.4020*
%
%ADD79ROUNDEDRECTD79*%
G04:AMPARAMS|DCode=80|XSize=1.6mm|YSize=0.65mm|CornerRadius=0.275mm|HoleSize=0mm|Usage=FLASHONLY|Rotation=270.000|XOffset=0mm|YOffset=0mm|HoleType=Round|Shape=RoundedRectangle|*
%AMROUNDEDRECTD80*
21,1,1.6000,0.1000,0,0,270.0*
21,1,1.0500,0.6500,0,0,270.0*
1,1,0.5500,-0.0500,-0.5250*
1,1,0.5500,-0.0500,0.5250*
1,1,0.5500,0.0500,0.5250*
1,1,0.5500,0.0500,-0.5250*
%
%ADD80ROUNDEDRECTD80*%
G04:AMPARAMS|DCode=81|XSize=2.65mm|YSize=1.85mm|CornerRadius=0.279mm|HoleSize=0mm|Usage=FLASHONLY|Rotation=0.000|XOffset=0mm|YOffset=0mm|HoleType=Round|Shape=RoundedRectangle|*
%AMROUNDEDRECTD81*
21,1,2.6500,1.2920,0,0,0.0*
21,1,2.0920,1.8500,0,0,0.0*
1,1,0.5580,1.0460,-0.6460*
1,1,0.5580,-1.0460,-0.6460*
1,1,0.5580,-1.0460,0.6460*
1,1,0.5580,1.0460,0.6460*
%
%ADD81ROUNDEDRECTD81*%
G04:AMPARAMS|DCode=82|XSize=0.8mm|YSize=0.65mm|CornerRadius=0.275mm|HoleSize=0mm|Usage=FLASHONLY|Rotation=180.000|XOffset=0mm|YOffset=0mm|HoleType=Round|Shape=RoundedRectangle|*
%AMROUNDEDRECTD82*
21,1,0.8000,0.1000,0,0,180.0*
21,1,0.2500,0.6500,0,0,180.0*
1,1,0.5500,-0.1250,0.0500*
1,1,0.5500,0.1250,0.0500*
1,1,0.5500,0.1250,-0.0500*
1,1,0.5500,-0.1250,-0.0500*
%
%ADD82ROUNDEDRECTD82*%
G04:AMPARAMS|DCode=83|XSize=3.45mm|YSize=2.65mm|CornerRadius=0.275mm|HoleSize=0mm|Usage=FLASHONLY|Rotation=270.000|XOffset=0mm|YOffset=0mm|HoleType=Round|Shape=RoundedRectangle|*
%AMROUNDEDRECTD83*
21,1,3.4500,2.1000,0,0,270.0*
21,1,2.9000,2.6500,0,0,270.0*
1,1,0.5500,-1.0500,-1.4500*
1,1,0.5500,-1.0500,1.4500*
1,1,0.5500,1.0500,1.4500*
1,1,0.5500,1.0500,-1.4500*
%
%ADD83ROUNDEDRECTD83*%
%ADD84C,2.0000*%
G04:AMPARAMS|DCode=85|XSize=2.65mm|YSize=2.15mm|CornerRadius=0.275mm|HoleSize=0mm|Usage=FLASHONLY|Rotation=180.000|XOffset=0mm|YOffset=0mm|HoleType=Round|Shape=RoundedRectangle|*
%AMROUNDEDRECTD85*
21,1,2.6500,1.6000,0,0,180.0*
21,1,2.1000,2.1500,0,0,180.0*
1,1,0.5500,-1.0500,0.8000*
1,1,0.5500,1.0500,0.8000*
1,1,0.5500,1.0500,-0.8000*
1,1,0.5500,-1.0500,-0.8000*
%
%ADD85ROUNDEDRECTD85*%
G04:AMPARAMS|DCode=86|XSize=2.45mm|YSize=0.65mm|CornerRadius=0.275mm|HoleSize=0mm|Usage=FLASHONLY|Rotation=180.000|XOffset=0mm|YOffset=0mm|HoleType=Round|Shape=RoundedRectangle|*
%AMROUNDEDRECTD86*
21,1,2.4500,0.1000,0,0,180.0*
21,1,1.9000,0.6500,0,0,180.0*
1,1,0.5500,-0.9500,0.0500*
1,1,0.5500,0.9500,0.0500*
1,1,0.5500,0.9500,-0.0500*
1,1,0.5500,-0.9500,-0.0500*
%
%ADD86ROUNDEDRECTD86*%
G04:AMPARAMS|DCode=87|XSize=5.25mm|YSize=4.5mm|CornerRadius=0.2707mm|HoleSize=0mm|Usage=FLASHONLY|Rotation=270.000|XOffset=0mm|YOffset=0mm|HoleType=Round|Shape=RoundedRectangle|*
%AMROUNDEDRECTD87*
21,1,5.2500,3.9585,0,0,270.0*
21,1,4.7085,4.5000,0,0,270.0*
1,1,0.5415,-1.9792,-2.3542*
1,1,0.5415,-1.9792,2.3542*
1,1,0.5415,1.9792,2.3542*
1,1,0.5415,1.9792,-2.3542*
%
%ADD87ROUNDEDRECTD87*%
%ADD88O,0.7500X1.5500*%
%ADD89O,1.5500X0.7500*%
G04:AMPARAMS|DCode=90|XSize=1.2mm|YSize=0.8mm|CornerRadius=0.2765mm|HoleSize=0mm|Usage=FLASHONLY|Rotation=270.000|XOffset=0mm|YOffset=0mm|HoleType=Round|Shape=RoundedRectangle|*
%AMROUNDEDRECTD90*
21,1,1.2000,0.2470,0,0,270.0*
21,1,0.6470,0.8000,0,0,270.0*
1,1,0.5530,-0.1235,-0.3235*
1,1,0.5530,-0.1235,0.3235*
1,1,0.5530,0.1235,0.3235*
1,1,0.5530,0.1235,-0.3235*
%
%ADD90ROUNDEDRECTD90*%
G04:AMPARAMS|DCode=91|XSize=1.15mm|YSize=1.05mm|CornerRadius=0.273mm|HoleSize=0mm|Usage=FLASHONLY|Rotation=270.000|XOffset=0mm|YOffset=0mm|HoleType=Round|Shape=RoundedRectangle|*
%AMROUNDEDRECTD91*
21,1,1.1500,0.5040,0,0,270.0*
21,1,0.6040,1.0500,0,0,270.0*
1,1,0.5460,-0.2520,-0.3020*
1,1,0.5460,-0.2520,0.3020*
1,1,0.5460,0.2520,0.3020*
1,1,0.5460,0.2520,-0.3020*
%
%ADD91ROUNDEDRECTD91*%
G04:AMPARAMS|DCode=92|XSize=1.15mm|YSize=1.05mm|CornerRadius=0.273mm|HoleSize=0mm|Usage=FLASHONLY|Rotation=180.000|XOffset=0mm|YOffset=0mm|HoleType=Round|Shape=RoundedRectangle|*
%AMROUNDEDRECTD92*
21,1,1.1500,0.5040,0,0,180.0*
21,1,0.6040,1.0500,0,0,180.0*
1,1,0.5460,-0.3020,0.2520*
1,1,0.5460,0.3020,0.2520*
1,1,0.5460,0.3020,-0.2520*
1,1,0.5460,-0.3020,-0.2520*
%
%ADD92ROUNDEDRECTD92*%
G04:AMPARAMS|DCode=93|XSize=1.9mm|YSize=1.2mm|CornerRadius=0.2745mm|HoleSize=0mm|Usage=FLASHONLY|Rotation=270.000|XOffset=0mm|YOffset=0mm|HoleType=Round|Shape=RoundedRectangle|*
%AMROUNDEDRECTD93*
21,1,1.9000,0.6510,0,0,270.0*
21,1,1.3510,1.2000,0,0,270.0*
1,1,0.5490,-0.3255,-0.6755*
1,1,0.5490,-0.3255,0.6755*
1,1,0.5490,0.3255,0.6755*
1,1,0.5490,0.3255,-0.6755*
%
%ADD93ROUNDEDRECTD93*%
G04:AMPARAMS|DCode=94|XSize=1.9mm|YSize=1.2mm|CornerRadius=0.2745mm|HoleSize=0mm|Usage=FLASHONLY|Rotation=180.000|XOffset=0mm|YOffset=0mm|HoleType=Round|Shape=RoundedRectangle|*
%AMROUNDEDRECTD94*
21,1,1.9000,0.6510,0,0,180.0*
21,1,1.3510,1.2000,0,0,180.0*
1,1,0.5490,-0.6755,0.3255*
1,1,0.5490,0.6755,0.3255*
1,1,0.5490,0.6755,-0.3255*
1,1,0.5490,-0.6755,-0.3255*
%
%ADD94ROUNDEDRECTD94*%
G04:AMPARAMS|DCode=95|XSize=1.25mm|YSize=0.7mm|CornerRadius=0.2758mm|HoleSize=0mm|Usage=FLASHONLY|Rotation=180.000|XOffset=0mm|YOffset=0mm|HoleType=Round|Shape=RoundedRectangle|*
%AMROUNDEDRECTD95*
21,1,1.2500,0.1485,0,0,180.0*
21,1,0.6985,0.7000,0,0,180.0*
1,1,0.5515,-0.3493,0.0743*
1,1,0.5515,0.3493,0.0743*
1,1,0.5515,0.3493,-0.0743*
1,1,0.5515,-0.3493,-0.0743*
%
%ADD95ROUNDEDRECTD95*%
%ADD96O,0.7500X1.7000*%
G04:AMPARAMS|DCode=97|XSize=9.25mm|YSize=8.8mm|CornerRadius=0.2913mm|HoleSize=0mm|Usage=FLASHONLY|Rotation=0.000|XOffset=0mm|YOffset=0mm|HoleType=Round|Shape=RoundedRectangle|*
%AMROUNDEDRECTD97*
21,1,9.2500,8.2175,0,0,0.0*
21,1,8.6675,8.8000,0,0,0.0*
1,1,0.5825,4.3338,-4.1087*
1,1,0.5825,-4.3338,-4.1087*
1,1,0.5825,-4.3338,4.1087*
1,1,0.5825,4.3338,4.1087*
%
%ADD97ROUNDEDRECTD97*%
G04:AMPARAMS|DCode=98|XSize=3.9mm|YSize=1.2mm|CornerRadius=0.2745mm|HoleSize=0mm|Usage=FLASHONLY|Rotation=270.000|XOffset=0mm|YOffset=0mm|HoleType=Round|Shape=RoundedRectangle|*
%AMROUNDEDRECTD98*
21,1,3.9000,0.6510,0,0,270.0*
21,1,3.3510,1.2000,0,0,270.0*
1,1,0.5490,-0.3255,-1.6755*
1,1,0.5490,-0.3255,1.6755*
1,1,0.5490,0.3255,1.6755*
1,1,0.5490,0.3255,-1.6755*
%
%ADD98ROUNDEDRECTD98*%
G04:AMPARAMS|DCode=99|XSize=6.6mm|YSize=6.15mm|CornerRadius=0.285mm|HoleSize=0mm|Usage=FLASHONLY|Rotation=270.000|XOffset=0mm|YOffset=0mm|HoleType=Round|Shape=RoundedRectangle|*
%AMROUNDEDRECTD99*
21,1,6.6000,5.5800,0,0,270.0*
21,1,6.0300,6.1500,0,0,270.0*
1,1,0.5700,-2.7900,-3.0150*
1,1,0.5700,-2.7900,3.0150*
1,1,0.5700,2.7900,3.0150*
1,1,0.5700,2.7900,-3.0150*
%
%ADD99ROUNDEDRECTD99*%
G04:AMPARAMS|DCode=100|XSize=3mm|YSize=1.15mm|CornerRadius=0.275mm|HoleSize=0mm|Usage=FLASHONLY|Rotation=270.000|XOffset=0mm|YOffset=0mm|HoleType=Round|Shape=RoundedRectangle|*
%AMROUNDEDRECTD100*
21,1,3.0000,0.6000,0,0,270.0*
21,1,2.4500,1.1500,0,0,270.0*
1,1,0.5500,-0.3000,-1.2250*
1,1,0.5500,-0.3000,1.2250*
1,1,0.5500,0.3000,1.2250*
1,1,0.5500,0.3000,-1.2250*
%
%ADD100ROUNDEDRECTD100*%
%ADD101O,1.7000X0.7500*%
%ADD102O,0.4000X1.6000*%
%ADD103O,1.6000X0.4000*%
%ADD104O,0.9500X0.3500*%
%ADD105C,0.4032*%
%ADD106R,0.3000X0.6500*%
G04:AMPARAMS|DCode=107|XSize=5.05mm|YSize=1.75mm|CornerRadius=0.275mm|HoleSize=0mm|Usage=FLASHONLY|Rotation=0.000|XOffset=0mm|YOffset=0mm|HoleType=Round|Shape=RoundedRectangle|*
%AMROUNDEDRECTD107*
21,1,5.0500,1.2000,0,0,0.0*
21,1,4.5000,1.7500,0,0,0.0*
1,1,0.5500,2.2500,-0.6000*
1,1,0.5500,-2.2500,-0.6000*
1,1,0.5500,-2.2500,0.6000*
1,1,0.5500,2.2500,0.6000*
%
%ADD107ROUNDEDRECTD107*%
G04:AMPARAMS|DCode=108|XSize=1.9mm|YSize=1.55mm|CornerRadius=0.278mm|HoleSize=0mm|Usage=FLASHONLY|Rotation=90.000|XOffset=0mm|YOffset=0mm|HoleType=Round|Shape=RoundedRectangle|*
%AMROUNDEDRECTD108*
21,1,1.9000,0.9940,0,0,90.0*
21,1,1.3440,1.5500,0,0,90.0*
1,1,0.5560,0.4970,0.6720*
1,1,0.5560,0.4970,-0.6720*
1,1,0.5560,-0.4970,-0.6720*
1,1,0.5560,-0.4970,0.6720*
%
%ADD108ROUNDEDRECTD108*%
G04:AMPARAMS|DCode=109|XSize=1.55mm|YSize=1.35mm|CornerRadius=0.273mm|HoleSize=0mm|Usage=FLASHONLY|Rotation=90.000|XOffset=0mm|YOffset=0mm|HoleType=Round|Shape=RoundedRectangle|*
%AMROUNDEDRECTD109*
21,1,1.5500,0.8040,0,0,90.0*
21,1,1.0040,1.3500,0,0,90.0*
1,1,0.5460,0.4020,0.5020*
1,1,0.5460,0.4020,-0.5020*
1,1,0.5460,-0.4020,-0.5020*
1,1,0.5460,-0.4020,0.5020*
%
%ADD109ROUNDEDRECTD109*%
G04:AMPARAMS|DCode=110|XSize=1.3mm|YSize=1.2mm|CornerRadius=0.2745mm|HoleSize=0mm|Usage=FLASHONLY|Rotation=90.000|XOffset=0mm|YOffset=0mm|HoleType=Round|Shape=RoundedRectangle|*
%AMROUNDEDRECTD110*
21,1,1.3000,0.6510,0,0,90.0*
21,1,0.7510,1.2000,0,0,90.0*
1,1,0.5490,0.3255,0.3755*
1,1,0.5490,0.3255,-0.3755*
1,1,0.5490,-0.3255,-0.3755*
1,1,0.5490,-0.3255,0.3755*
%
%ADD110ROUNDEDRECTD110*%
%ADD111O,0.4000X0.9000*%
%ADD112O,0.9000X0.4000*%
%ADD113R,0.5532X0.5532*%
%ADD114C,2.6500*%
%ADD115C,2.0000*%
%ADD116C,1.0500*%
%ADD117C,2.0500*%
%ADD118C,7.1500*%
G36*
X994000Y247500D02*
X1019500D01*
Y202500D01*
X994000D01*
Y199500D01*
X981000D01*
Y250500D01*
X994000D01*
Y247500D01*
D02*
G37*
G36*
X234000Y546000D02*
X169500D01*
X166000Y549500D01*
Y614000D01*
X234000D01*
Y546000D01*
D02*
G37*
G36*
X434000Y610500D02*
Y546000D01*
X366000D01*
Y614000D01*
X430500D01*
X434000Y610500D01*
D02*
G37*
G36*
X274000Y247500D02*
X299500D01*
Y202500D01*
X274000D01*
Y199500D01*
X261000D01*
Y250500D01*
X274000D01*
Y247500D01*
D02*
G37*
G36*
X514000D02*
X539500D01*
Y202500D01*
X514000D01*
Y199500D01*
X501000D01*
Y250500D01*
X514000D01*
Y247500D01*
D02*
G37*
G36*
X754000D02*
X779500D01*
Y202500D01*
X754000D01*
Y199500D01*
X741000D01*
Y250500D01*
X754000D01*
Y247500D01*
D02*
G37*
G36*
X434000Y810500D02*
Y746000D01*
X366000D01*
Y814000D01*
X430500D01*
X434000Y810500D01*
D02*
G37*
G36*
X634000Y746000D02*
X569500D01*
X566000Y749500D01*
Y814000D01*
X634000D01*
Y746000D01*
D02*
G37*
G36*
X834000Y810500D02*
Y746000D01*
X766000D01*
Y814000D01*
X830500D01*
X834000Y810500D01*
D02*
G37*
G36*
X634000Y546000D02*
X569500D01*
X566000Y549500D01*
Y614000D01*
X634000D01*
Y546000D01*
D02*
G37*
G36*
X834000Y610500D02*
Y546000D01*
X766000D01*
Y614000D01*
X830500D01*
X834000Y610500D01*
D02*
G37*
G36*
X234000Y746000D02*
X169500D01*
X166000Y749500D01*
Y814000D01*
X234000D01*
Y746000D01*
D02*
G37*
G36*
X1029500Y104000D02*
X1026500D01*
Y78500D01*
X981500D01*
Y104000D01*
X978500D01*
Y117000D01*
X1029500D01*
Y104000D01*
D02*
G37*
G36*
X224500Y125250D02*
X207500D01*
Y140750D01*
X224500D01*
Y125250D01*
D02*
G37*
G36*
X464500D02*
X447500D01*
Y140750D01*
X464500D01*
Y125250D01*
D02*
G37*
G36*
X309500Y104000D02*
X306500D01*
Y78500D01*
X261500D01*
Y104000D01*
X258500D01*
Y117000D01*
X309500D01*
Y104000D01*
D02*
G37*
G36*
X549500D02*
X546500D01*
Y78500D01*
X501500D01*
Y104000D01*
X498500D01*
Y117000D01*
X549500D01*
Y104000D01*
D02*
G37*
G36*
X789500D02*
X786500D01*
Y78500D01*
X741500D01*
Y104000D01*
X738500D01*
Y117000D01*
X789500D01*
Y104000D01*
D02*
G37*
G36*
X514000Y191500D02*
X539500D01*
Y146500D01*
X514000D01*
Y143500D01*
X501000D01*
Y194500D01*
X514000D01*
Y191500D01*
D02*
G37*
G36*
X754000D02*
X779500D01*
Y146500D01*
X754000D01*
Y143500D01*
X741000D01*
Y194500D01*
X754000D01*
Y191500D01*
D02*
G37*
G36*
X994000D02*
X1019500D01*
Y146500D01*
X994000D01*
Y143500D01*
X981000D01*
Y194500D01*
X994000D01*
Y191500D01*
D02*
G37*
G36*
X704500Y125250D02*
X687500D01*
Y140750D01*
X704500D01*
Y125250D01*
D02*
G37*
G36*
X944500D02*
X927500D01*
Y140750D01*
X944500D01*
Y125250D01*
D02*
G37*
G36*
X274000Y191500D02*
X299500D01*
Y146500D01*
X274000D01*
Y143500D01*
X261000D01*
Y194500D01*
X274000D01*
Y191500D01*
D02*
G37*
G36*
X915000Y1565500D02*
X902000D01*
Y1568500D01*
X876500D01*
Y1613500D01*
X902000D01*
Y1616500D01*
X915000D01*
Y1565500D01*
D02*
G37*
G36*
X248500Y1619250D02*
X231500D01*
Y1634750D01*
X248500D01*
Y1619250D01*
D02*
G37*
G36*
X488500D02*
X471500D01*
Y1634750D01*
X488500D01*
Y1619250D01*
D02*
G37*
G36*
X195000Y1565500D02*
X182000D01*
Y1568500D01*
X156500D01*
Y1613500D01*
X182000D01*
Y1616500D01*
X195000D01*
Y1565500D01*
D02*
G37*
G36*
X435000D02*
X422000D01*
Y1568500D01*
X396500D01*
Y1613500D01*
X422000D01*
Y1616500D01*
X435000D01*
Y1565500D01*
D02*
G37*
G36*
X675000D02*
X662000D01*
Y1568500D01*
X636500D01*
Y1613500D01*
X662000D01*
Y1616500D01*
X675000D01*
Y1565500D01*
D02*
G37*
G36*
X434500Y1656000D02*
X437500D01*
Y1643000D01*
X386500D01*
Y1656000D01*
X389500D01*
Y1681500D01*
X434500D01*
Y1656000D01*
D02*
G37*
G36*
X674500D02*
X677500D01*
Y1643000D01*
X626500D01*
Y1656000D01*
X629500D01*
Y1681500D01*
X674500D01*
Y1656000D01*
D02*
G37*
G36*
X914500D02*
X917500D01*
Y1643000D01*
X866500D01*
Y1656000D01*
X869500D01*
Y1681500D01*
X914500D01*
Y1656000D01*
D02*
G37*
G36*
X728500Y1619250D02*
X711500D01*
Y1634750D01*
X728500D01*
Y1619250D01*
D02*
G37*
G36*
X968500D02*
X951500D01*
Y1634750D01*
X968500D01*
Y1619250D01*
D02*
G37*
G36*
X194500Y1656000D02*
X197500D01*
Y1643000D01*
X146500D01*
Y1656000D01*
X149500D01*
Y1681500D01*
X194500D01*
Y1656000D01*
D02*
G37*
G36*
X834000Y1010500D02*
Y946000D01*
X766000D01*
Y1014000D01*
X830500D01*
X834000Y1010500D01*
D02*
G37*
G36*
X234000Y1146000D02*
X169500D01*
X166000Y1149500D01*
Y1214000D01*
X234000D01*
Y1146000D01*
D02*
G37*
G36*
X434000Y1210500D02*
Y1146000D01*
X366000D01*
Y1214000D01*
X430500D01*
X434000Y1210500D01*
D02*
G37*
G36*
X234000Y946000D02*
X169500D01*
X166000Y949500D01*
Y1014000D01*
X234000D01*
Y946000D01*
D02*
G37*
G36*
X434000Y1010500D02*
Y946000D01*
X366000D01*
Y1014000D01*
X430500D01*
X434000Y1010500D01*
D02*
G37*
G36*
X634000Y946000D02*
X569500D01*
X566000Y949500D01*
Y1014000D01*
X634000D01*
Y946000D01*
D02*
G37*
G36*
X435000Y1509500D02*
X422000D01*
Y1512500D01*
X396500D01*
Y1557500D01*
X422000D01*
Y1560500D01*
X435000D01*
Y1509500D01*
D02*
G37*
G36*
X675000D02*
X662000D01*
Y1512500D01*
X636500D01*
Y1557500D01*
X662000D01*
Y1560500D01*
X675000D01*
Y1509500D01*
D02*
G37*
G36*
X915000D02*
X902000D01*
Y1512500D01*
X876500D01*
Y1557500D01*
X902000D01*
Y1560500D01*
X915000D01*
Y1509500D01*
D02*
G37*
G36*
X634000Y1146000D02*
X569500D01*
X566000Y1149500D01*
Y1214000D01*
X634000D01*
Y1146000D01*
D02*
G37*
G36*
X834000Y1210500D02*
Y1146000D01*
X766000D01*
Y1214000D01*
X830500D01*
X834000Y1210500D01*
D02*
G37*
G36*
X195000Y1509500D02*
X182000D01*
Y1512500D01*
X156500D01*
Y1557500D01*
X182000D01*
Y1560500D01*
X195000D01*
Y1509500D01*
D02*
G37*
D71*
X857000Y1255000D02*
D03*
X736000Y504000D02*
D03*
X746000Y497500D02*
D03*
X756000Y491000D02*
D03*
X766000Y484500D02*
D03*
X776000Y478000D02*
D03*
X786000Y471500D02*
D03*
X1059000Y1133000D02*
D03*
X784500Y663500D02*
D03*
X791000Y673500D02*
D03*
X1059000Y1122000D02*
D03*
X797500Y683500D02*
D03*
X804000Y693500D02*
D03*
X810500Y703500D02*
D03*
X817000Y713500D02*
D03*
X1069000Y1122000D02*
D03*
X784500Y863500D02*
D03*
X791000Y873500D02*
D03*
X797500Y883500D02*
D03*
X804000Y893500D02*
D03*
X810500Y903500D02*
D03*
X817000Y913500D02*
D03*
X384500Y1063500D02*
D03*
X743000Y1256000D02*
D03*
X181000Y1237000D02*
D03*
X219000D02*
D03*
X210000D02*
D03*
X190000D02*
D03*
X472000Y1289500D02*
D03*
X791000Y1073500D02*
D03*
X482000Y1283000D02*
D03*
X797500Y1083500D02*
D03*
X1175000Y997000D02*
D03*
X492000Y1276500D02*
D03*
X502000Y1270000D02*
D03*
X215500Y1096500D02*
D03*
Y896500D02*
D03*
Y696500D02*
D03*
X336000Y504500D02*
D03*
X384500Y663500D02*
D03*
X1136000Y948000D02*
D03*
X384500Y863500D02*
D03*
X512000Y1263500D02*
D03*
X209000Y1086500D02*
D03*
Y886500D02*
D03*
Y686500D02*
D03*
X346000Y498000D02*
D03*
X391000Y673500D02*
D03*
Y873500D02*
D03*
Y1073500D02*
D03*
X522000Y1257000D02*
D03*
X1175000Y967000D02*
D03*
X202500Y1076500D02*
D03*
Y876500D02*
D03*
Y676500D02*
D03*
X356000Y491500D02*
D03*
X397500Y683500D02*
D03*
Y883500D02*
D03*
Y1083500D02*
D03*
X196000Y1066500D02*
D03*
Y866500D02*
D03*
Y666500D02*
D03*
X1175000Y977000D02*
D03*
X366000Y485000D02*
D03*
X404000Y693500D02*
D03*
Y893500D02*
D03*
Y1093500D02*
D03*
X189500Y1056500D02*
D03*
Y856500D02*
D03*
Y656500D02*
D03*
X376000Y478500D02*
D03*
X410500Y703500D02*
D03*
Y903500D02*
D03*
X1033000Y958000D02*
D03*
X410500Y1103500D02*
D03*
X183000Y1046500D02*
D03*
Y846500D02*
D03*
Y646500D02*
D03*
X386000Y472000D02*
D03*
X417000Y713500D02*
D03*
Y913500D02*
D03*
Y1113500D02*
D03*
X1175000Y987000D02*
D03*
X995000Y1005000D02*
D03*
X1175000Y1007000D02*
D03*
Y1017000D02*
D03*
X804000Y1093500D02*
D03*
X810500Y1103500D02*
D03*
X784500Y1063500D02*
D03*
X776000Y1265000D02*
D03*
X817000Y1113500D02*
D03*
X786000Y1265000D02*
D03*
X796000D02*
D03*
X806000D02*
D03*
X615500Y1096500D02*
D03*
X1012000Y1037000D02*
D03*
X996000Y1058000D02*
D03*
X615500Y896500D02*
D03*
X1110000Y937000D02*
D03*
X1177000Y1060000D02*
D03*
X1069000Y1133000D02*
D03*
X995000Y955000D02*
D03*
Y965000D02*
D03*
Y975000D02*
D03*
Y985000D02*
D03*
Y995000D02*
D03*
X615500Y696500D02*
D03*
X816000Y1265000D02*
D03*
X609000Y1086500D02*
D03*
X1120000Y937000D02*
D03*
X609000Y886500D02*
D03*
Y686500D02*
D03*
X826000Y1265000D02*
D03*
X602500Y1076500D02*
D03*
Y876500D02*
D03*
Y676500D02*
D03*
X596000Y1066500D02*
D03*
Y866500D02*
D03*
Y666500D02*
D03*
X589500Y1056500D02*
D03*
X1006000Y1058000D02*
D03*
X589500Y856500D02*
D03*
Y656500D02*
D03*
X583000Y1046500D02*
D03*
Y846500D02*
D03*
Y646500D02*
D03*
X1016000Y1058000D02*
D03*
D72*
X1032000Y1109000D02*
D03*
Y1125000D02*
D03*
X1177000Y1030000D02*
D03*
Y1046000D02*
D03*
X1102000Y1114000D02*
D03*
Y1130000D02*
D03*
X999000Y1022000D02*
D03*
Y1038000D02*
D03*
X949000Y1058000D02*
D03*
Y1074000D02*
D03*
X1084000Y1114000D02*
D03*
Y1130000D02*
D03*
X183000Y111000D02*
D03*
Y127000D02*
D03*
X993000Y1649000D02*
D03*
Y1633000D02*
D03*
X423000Y111000D02*
D03*
Y127000D02*
D03*
X753000Y1649000D02*
D03*
Y1633000D02*
D03*
X663000Y111000D02*
D03*
Y127000D02*
D03*
X513000Y1649000D02*
D03*
Y1633000D02*
D03*
X903000Y111000D02*
D03*
Y127000D02*
D03*
X273000Y1649000D02*
D03*
Y1633000D02*
D03*
X1123000Y1330000D02*
D03*
Y1346000D02*
D03*
D73*
X1014250Y1093000D02*
D03*
X998250D02*
D03*
X1065000Y956000D02*
D03*
X1049000D02*
D03*
X1014250Y1076000D02*
D03*
X998250D02*
D03*
X1065000Y940000D02*
D03*
X1049000D02*
D03*
X1081000D02*
D03*
X1097000D02*
D03*
X1103000Y586000D02*
D03*
X1119000D02*
D03*
X1072000Y570000D02*
D03*
X1056000D02*
D03*
X1007000Y693000D02*
D03*
X991000D02*
D03*
X1115000Y1182000D02*
D03*
X1099000D02*
D03*
X232000Y111000D02*
D03*
X248000D02*
D03*
X944000Y1649000D02*
D03*
X928000D02*
D03*
X472000Y111000D02*
D03*
X488000D02*
D03*
X704000Y1649000D02*
D03*
X688000D02*
D03*
X712000Y111000D02*
D03*
X728000D02*
D03*
X464000Y1649000D02*
D03*
X448000D02*
D03*
X952000Y111000D02*
D03*
X968000D02*
D03*
X224000Y1649000D02*
D03*
X208000D02*
D03*
X1115000Y1166000D02*
D03*
X1099000D02*
D03*
X1007000Y765000D02*
D03*
X991000D02*
D03*
X1123000Y1309000D02*
D03*
X1107000D02*
D03*
X1123000Y1293000D02*
D03*
X1107000D02*
D03*
X823132Y1234714D02*
D03*
X839132D02*
D03*
X823132Y1034714D02*
D03*
X839132D02*
D03*
X823132Y834714D02*
D03*
X839132D02*
D03*
X823132Y634714D02*
D03*
X839132D02*
D03*
X423132Y1234714D02*
D03*
X439132D02*
D03*
X423132Y1034714D02*
D03*
X439132D02*
D03*
X423132Y834714D02*
D03*
X439132D02*
D03*
X423132Y634714D02*
D03*
X439132D02*
D03*
X576868Y525286D02*
D03*
X560868D02*
D03*
X576868Y725286D02*
D03*
X560868D02*
D03*
X576868Y925286D02*
D03*
X560868D02*
D03*
X576868Y1125286D02*
D03*
X560868D02*
D03*
X176868Y525286D02*
D03*
X160868D02*
D03*
X176868Y725286D02*
D03*
X160868D02*
D03*
X176868Y925286D02*
D03*
X160868D02*
D03*
X176868Y1125286D02*
D03*
X160868D02*
D03*
X777128Y1234570D02*
D03*
X761128D02*
D03*
X777128Y1034570D02*
D03*
X761128D02*
D03*
X777128Y834570D02*
D03*
X761128D02*
D03*
X777128Y634570D02*
D03*
X761128D02*
D03*
X377128Y1234570D02*
D03*
X361128D02*
D03*
X377128Y1034570D02*
D03*
X361128D02*
D03*
X377128Y834570D02*
D03*
X361128D02*
D03*
X377128Y634570D02*
D03*
X361128D02*
D03*
X622872Y525430D02*
D03*
X638872D02*
D03*
X622872Y725430D02*
D03*
X638872D02*
D03*
X622872Y925430D02*
D03*
X638872D02*
D03*
X622872Y1125430D02*
D03*
X638872D02*
D03*
X222872Y525430D02*
D03*
X238872D02*
D03*
X222872Y725430D02*
D03*
X238872D02*
D03*
X222872Y925430D02*
D03*
X238872D02*
D03*
X222872Y1125430D02*
D03*
X238872D02*
D03*
X1122000Y1246000D02*
D03*
X1106000D02*
D03*
X1122000Y1230000D02*
D03*
X1106000D02*
D03*
X1033000Y476000D02*
D03*
X1049000D02*
D03*
D74*
X1034000Y430000D02*
D03*
X1064000D02*
D03*
X247000Y87000D02*
D03*
X217000D02*
D03*
X321000Y94000D02*
D03*
X351000D02*
D03*
X164000Y254000D02*
D03*
X134000D02*
D03*
X164000Y214000D02*
D03*
X134000D02*
D03*
X929000Y1673000D02*
D03*
X959000D02*
D03*
X855000Y1666000D02*
D03*
X825000D02*
D03*
X1012000Y1506000D02*
D03*
X1042000D02*
D03*
X1012000Y1546000D02*
D03*
X1042000D02*
D03*
X1012000Y1586000D02*
D03*
X1042000D02*
D03*
X541000Y620000D02*
D03*
X511000D02*
D03*
X541000Y580000D02*
D03*
X511000D02*
D03*
X541000Y540000D02*
D03*
X511000D02*
D03*
X659000D02*
D03*
X689000D02*
D03*
X659000Y580000D02*
D03*
X689000D02*
D03*
X659000Y620000D02*
D03*
X689000D02*
D03*
X859000Y1140000D02*
D03*
X889000D02*
D03*
X859000Y1180000D02*
D03*
X889000D02*
D03*
X859000Y1220000D02*
D03*
X889000D02*
D03*
X741000D02*
D03*
X711000D02*
D03*
X487000Y87000D02*
D03*
X457000D02*
D03*
X561000Y94000D02*
D03*
X591000D02*
D03*
X404000Y254000D02*
D03*
X374000D02*
D03*
X404000Y214000D02*
D03*
X374000D02*
D03*
X404000Y174000D02*
D03*
X374000D02*
D03*
X689000Y1673000D02*
D03*
X719000D02*
D03*
X615000Y1666000D02*
D03*
X585000D02*
D03*
X772000Y1506000D02*
D03*
X802000D02*
D03*
X772000Y1546000D02*
D03*
X802000D02*
D03*
X772000Y1586000D02*
D03*
X802000D02*
D03*
X727000Y87000D02*
D03*
X697000D02*
D03*
X801000Y94000D02*
D03*
X831000D02*
D03*
X644000Y254000D02*
D03*
X614000D02*
D03*
X644000Y214000D02*
D03*
X614000D02*
D03*
X644000Y174000D02*
D03*
X614000D02*
D03*
X449000Y1673000D02*
D03*
X479000D02*
D03*
X375000Y1666000D02*
D03*
X345000D02*
D03*
X532000Y1506000D02*
D03*
X562000D02*
D03*
X532000Y1546000D02*
D03*
X562000D02*
D03*
X532000Y1586000D02*
D03*
X562000D02*
D03*
X967000Y87000D02*
D03*
X937000D02*
D03*
X1041000Y94000D02*
D03*
X1071000D02*
D03*
X884000Y254000D02*
D03*
X854000D02*
D03*
X884000Y214000D02*
D03*
X854000D02*
D03*
X884000Y174000D02*
D03*
X854000D02*
D03*
X209000Y1673000D02*
D03*
X239000D02*
D03*
X134919Y1705916D02*
D03*
X104919D02*
D03*
X292000Y1506000D02*
D03*
X322000D02*
D03*
X292000Y1546000D02*
D03*
X322000D02*
D03*
X292000Y1586000D02*
D03*
X322000D02*
D03*
X741000Y1180000D02*
D03*
X711000D02*
D03*
X741000Y1140000D02*
D03*
X711000D02*
D03*
X859000Y940000D02*
D03*
X889000D02*
D03*
X859000Y980000D02*
D03*
X889000D02*
D03*
X859000Y1020000D02*
D03*
X889000D02*
D03*
X741000D02*
D03*
X711000D02*
D03*
X741000Y980000D02*
D03*
X711000D02*
D03*
X741000Y940000D02*
D03*
X711000D02*
D03*
X859000Y740000D02*
D03*
X889000D02*
D03*
X859000Y780000D02*
D03*
X889000D02*
D03*
X859000Y820000D02*
D03*
X889000D02*
D03*
X741000D02*
D03*
X711000D02*
D03*
X741000Y780000D02*
D03*
X711000D02*
D03*
X741000Y740000D02*
D03*
X711000D02*
D03*
X541000Y820000D02*
D03*
X511000D02*
D03*
X541000Y780000D02*
D03*
X511000D02*
D03*
X541000Y740000D02*
D03*
X511000D02*
D03*
X859000Y540000D02*
D03*
X889000D02*
D03*
X859000Y580000D02*
D03*
X889000D02*
D03*
X859000Y620000D02*
D03*
X889000D02*
D03*
X741000D02*
D03*
X711000D02*
D03*
X741000Y580000D02*
D03*
X711000D02*
D03*
X741000Y540000D02*
D03*
X711000D02*
D03*
X659000Y740000D02*
D03*
X689000D02*
D03*
X659000Y780000D02*
D03*
X689000D02*
D03*
X659000Y820000D02*
D03*
X689000D02*
D03*
X541000Y1020000D02*
D03*
X511000D02*
D03*
X541000Y980000D02*
D03*
X511000D02*
D03*
X541000Y940000D02*
D03*
X511000D02*
D03*
X659000D02*
D03*
X689000D02*
D03*
X659000Y980000D02*
D03*
X689000D02*
D03*
X659000Y1020000D02*
D03*
X689000D02*
D03*
X541000Y1220000D02*
D03*
X511000D02*
D03*
X541000Y1180000D02*
D03*
X511000D02*
D03*
X541000Y1140000D02*
D03*
X511000D02*
D03*
X659000D02*
D03*
X689000D02*
D03*
X659000Y1180000D02*
D03*
X689000D02*
D03*
X659000Y1220000D02*
D03*
X689000D02*
D03*
X459000Y1140000D02*
D03*
X489000D02*
D03*
X459000Y1180000D02*
D03*
X489000D02*
D03*
X459000Y1220000D02*
D03*
X489000D02*
D03*
X164000Y174000D02*
D03*
X134000D02*
D03*
X341000Y1220000D02*
D03*
X311000D02*
D03*
X341000Y1180000D02*
D03*
X311000D02*
D03*
X341000Y1140000D02*
D03*
X311000D02*
D03*
X459000Y940000D02*
D03*
X489000D02*
D03*
X459000Y980000D02*
D03*
X489000D02*
D03*
X459000Y1020000D02*
D03*
X489000D02*
D03*
X341000D02*
D03*
X311000D02*
D03*
X341000Y980000D02*
D03*
X311000D02*
D03*
X341000Y940000D02*
D03*
X311000D02*
D03*
X141000Y620000D02*
D03*
X111000D02*
D03*
X141000Y580000D02*
D03*
X111000D02*
D03*
X141000Y540000D02*
D03*
X111000D02*
D03*
X259000D02*
D03*
X289000D02*
D03*
X259000Y580000D02*
D03*
X289000D02*
D03*
X259000Y620000D02*
D03*
X289000D02*
D03*
X141000Y820000D02*
D03*
X111000D02*
D03*
X141000Y780000D02*
D03*
X111000D02*
D03*
X141000Y740000D02*
D03*
X111000D02*
D03*
X259000D02*
D03*
X289000D02*
D03*
X259000Y780000D02*
D03*
X289000D02*
D03*
X259000Y820000D02*
D03*
X289000D02*
D03*
X141000Y1020000D02*
D03*
X111000D02*
D03*
X141000Y980000D02*
D03*
X111000D02*
D03*
X141000Y940000D02*
D03*
X111000D02*
D03*
X259000D02*
D03*
X289000D02*
D03*
X259000Y980000D02*
D03*
X289000D02*
D03*
X259000Y1020000D02*
D03*
X289000D02*
D03*
X459000Y740000D02*
D03*
X489000D02*
D03*
X459000Y780000D02*
D03*
X489000D02*
D03*
X459000Y820000D02*
D03*
X489000D02*
D03*
X341000D02*
D03*
X311000D02*
D03*
X341000Y780000D02*
D03*
X311000D02*
D03*
X341000Y740000D02*
D03*
X311000D02*
D03*
X459000Y540000D02*
D03*
X489000D02*
D03*
X459000Y580000D02*
D03*
X489000D02*
D03*
X459000Y620000D02*
D03*
X489000D02*
D03*
X341000D02*
D03*
X311000D02*
D03*
X341000Y580000D02*
D03*
X311000D02*
D03*
X341000Y540000D02*
D03*
X311000D02*
D03*
X141000Y1220000D02*
D03*
X111000D02*
D03*
X141000Y1180000D02*
D03*
X111000D02*
D03*
X141000Y1140000D02*
D03*
X111000D02*
D03*
X259000D02*
D03*
X289000D02*
D03*
X259000Y1180000D02*
D03*
X289000D02*
D03*
X259000Y1220000D02*
D03*
X289000D02*
D03*
X855000Y1706000D02*
D03*
X825000D02*
D03*
X929000D02*
D03*
X959000D02*
D03*
X990000Y1546000D02*
D03*
X960000D02*
D03*
X990000Y1506000D02*
D03*
X960000D02*
D03*
X990000Y1586000D02*
D03*
X960000D02*
D03*
X750000Y1546000D02*
D03*
X720000D02*
D03*
X750000Y1506000D02*
D03*
X720000D02*
D03*
X750000Y1586000D02*
D03*
X720000D02*
D03*
X510000Y1546000D02*
D03*
X480000D02*
D03*
X510000Y1506000D02*
D03*
X480000D02*
D03*
X510000Y1586000D02*
D03*
X480000D02*
D03*
X270000Y1546000D02*
D03*
X240000D02*
D03*
X270000Y1506000D02*
D03*
X240000D02*
D03*
X270000Y1586000D02*
D03*
X240000D02*
D03*
X615000Y1706000D02*
D03*
X585000D02*
D03*
X689000D02*
D03*
X719000D02*
D03*
X375000D02*
D03*
X345000D02*
D03*
X449000D02*
D03*
X479000D02*
D03*
X134919Y1665916D02*
D03*
X104919D02*
D03*
X209000Y1706000D02*
D03*
X239000D02*
D03*
X186000Y214000D02*
D03*
X216000D02*
D03*
X186000Y254000D02*
D03*
X216000D02*
D03*
X186000Y174000D02*
D03*
X216000D02*
D03*
X426000Y214000D02*
D03*
X456000D02*
D03*
X426000Y254000D02*
D03*
X456000D02*
D03*
X426000Y174000D02*
D03*
X456000D02*
D03*
X666000Y214000D02*
D03*
X696000D02*
D03*
X666000Y254000D02*
D03*
X696000D02*
D03*
X666000Y174000D02*
D03*
X696000D02*
D03*
X906000Y214000D02*
D03*
X936000D02*
D03*
X906000Y254000D02*
D03*
X936000D02*
D03*
X906000Y174000D02*
D03*
X936000D02*
D03*
X321000Y54000D02*
D03*
X351000D02*
D03*
X247000D02*
D03*
X217000D02*
D03*
X561000D02*
D03*
X591000D02*
D03*
X487000D02*
D03*
X457000D02*
D03*
X801000D02*
D03*
X831000D02*
D03*
X727000D02*
D03*
X697000D02*
D03*
X1041000D02*
D03*
X1071000D02*
D03*
X967000D02*
D03*
X937000D02*
D03*
X164000Y294000D02*
D03*
X134000D02*
D03*
X404000D02*
D03*
X374000D02*
D03*
X644000D02*
D03*
X614000D02*
D03*
X884000D02*
D03*
X854000D02*
D03*
X1012000Y1466000D02*
D03*
X1042000D02*
D03*
X772000D02*
D03*
X802000D02*
D03*
X532000D02*
D03*
X562000D02*
D03*
X292000D02*
D03*
X322000D02*
D03*
X59000Y1020000D02*
D03*
X89000D02*
D03*
X59000Y940000D02*
D03*
X89000D02*
D03*
X59000Y980000D02*
D03*
X89000D02*
D03*
X59000Y820000D02*
D03*
X89000D02*
D03*
X59000Y740000D02*
D03*
X89000D02*
D03*
X59000Y780000D02*
D03*
X89000D02*
D03*
X59000Y620000D02*
D03*
X89000D02*
D03*
X59000Y540000D02*
D03*
X89000D02*
D03*
X59000Y580000D02*
D03*
X89000D02*
D03*
X941000Y1140000D02*
D03*
X911000D02*
D03*
X941000Y1220000D02*
D03*
X911000D02*
D03*
X941000Y1180000D02*
D03*
X911000D02*
D03*
X164000Y334000D02*
D03*
X134000D02*
D03*
X404000D02*
D03*
X374000D02*
D03*
X644000D02*
D03*
X614000D02*
D03*
X884000D02*
D03*
X854000D02*
D03*
X1012000Y1426000D02*
D03*
X1042000D02*
D03*
X772000D02*
D03*
X802000D02*
D03*
X532000D02*
D03*
X562000D02*
D03*
X292000D02*
D03*
X322000D02*
D03*
X941000Y940000D02*
D03*
X911000D02*
D03*
X941000Y1020000D02*
D03*
X911000D02*
D03*
X941000Y980000D02*
D03*
X911000D02*
D03*
X941000Y740000D02*
D03*
X911000D02*
D03*
X941000Y820000D02*
D03*
X911000D02*
D03*
X941000Y780000D02*
D03*
X911000D02*
D03*
X941000Y540000D02*
D03*
X911000D02*
D03*
X941000Y620000D02*
D03*
X911000D02*
D03*
X941000Y580000D02*
D03*
X911000D02*
D03*
X164000Y374000D02*
D03*
X134000D02*
D03*
X404000D02*
D03*
X374000D02*
D03*
X644000D02*
D03*
X614000D02*
D03*
X884000D02*
D03*
X854000D02*
D03*
X1012000Y1386000D02*
D03*
X1042000D02*
D03*
X772000D02*
D03*
X802000D02*
D03*
X532000D02*
D03*
X562000D02*
D03*
X292000D02*
D03*
X322000D02*
D03*
X59000Y1220000D02*
D03*
X89000D02*
D03*
X59000Y1140000D02*
D03*
X89000D02*
D03*
X59000Y1180000D02*
D03*
X89000D02*
D03*
D75*
X1034000Y457000D02*
D03*
X1052000D02*
D03*
X1006000Y712000D02*
D03*
X988000D02*
D03*
X517000Y630000D02*
D03*
X535000D02*
D03*
X517000Y570000D02*
D03*
X535000D02*
D03*
X517000Y550000D02*
D03*
X535000D02*
D03*
X517000Y530000D02*
D03*
X535000D02*
D03*
X517000Y610000D02*
D03*
X535000D02*
D03*
X517000Y590000D02*
D03*
X535000D02*
D03*
X683000Y530000D02*
D03*
X665000D02*
D03*
X683000Y590000D02*
D03*
X665000D02*
D03*
X683000Y610000D02*
D03*
X665000D02*
D03*
X683000Y630000D02*
D03*
X665000D02*
D03*
X683000Y550000D02*
D03*
X665000D02*
D03*
X683000Y570000D02*
D03*
X665000D02*
D03*
X883000Y1130000D02*
D03*
X865000D02*
D03*
X883000Y1190000D02*
D03*
X865000D02*
D03*
X883000Y1210000D02*
D03*
X865000D02*
D03*
X883000Y1230000D02*
D03*
X865000D02*
D03*
X883000Y1150000D02*
D03*
X865000D02*
D03*
X883000Y1170000D02*
D03*
X865000D02*
D03*
X717000Y1230000D02*
D03*
X735000D02*
D03*
X717000Y1170000D02*
D03*
X735000D02*
D03*
X717000Y1150000D02*
D03*
X735000D02*
D03*
X717000Y1130000D02*
D03*
X735000D02*
D03*
X717000Y1210000D02*
D03*
X735000D02*
D03*
X717000Y1190000D02*
D03*
X735000D02*
D03*
X883000Y930000D02*
D03*
X865000D02*
D03*
X883000Y990000D02*
D03*
X865000D02*
D03*
X883000Y1010000D02*
D03*
X865000D02*
D03*
X883000Y1030000D02*
D03*
X865000D02*
D03*
X883000Y950000D02*
D03*
X865000D02*
D03*
X883000Y970000D02*
D03*
X865000D02*
D03*
X717000Y1030000D02*
D03*
X735000D02*
D03*
X717000Y970000D02*
D03*
X735000D02*
D03*
X717000Y950000D02*
D03*
X735000D02*
D03*
X717000Y930000D02*
D03*
X735000D02*
D03*
X717000Y1010000D02*
D03*
X735000D02*
D03*
X717000Y990000D02*
D03*
X735000D02*
D03*
X883000Y730000D02*
D03*
X865000D02*
D03*
X883000Y790000D02*
D03*
X865000D02*
D03*
X883000Y810000D02*
D03*
X865000D02*
D03*
X883000Y830000D02*
D03*
X865000D02*
D03*
X883000Y750000D02*
D03*
X865000D02*
D03*
X883000Y770000D02*
D03*
X865000D02*
D03*
X717000Y830000D02*
D03*
X735000D02*
D03*
X717000Y770000D02*
D03*
X735000D02*
D03*
X717000Y750000D02*
D03*
X735000D02*
D03*
X717000Y730000D02*
D03*
X735000D02*
D03*
X717000Y810000D02*
D03*
X735000D02*
D03*
X717000Y790000D02*
D03*
X735000D02*
D03*
X883000Y530000D02*
D03*
X865000D02*
D03*
X883000Y590000D02*
D03*
X865000D02*
D03*
X883000Y610000D02*
D03*
X865000D02*
D03*
X883000Y630000D02*
D03*
X865000D02*
D03*
X517000Y830000D02*
D03*
X535000D02*
D03*
X517000Y770000D02*
D03*
X535000D02*
D03*
X517000Y750000D02*
D03*
X535000D02*
D03*
X517000Y730000D02*
D03*
X535000D02*
D03*
X517000Y810000D02*
D03*
X535000D02*
D03*
X517000Y790000D02*
D03*
X535000D02*
D03*
X883000Y550000D02*
D03*
X865000D02*
D03*
X883000Y570000D02*
D03*
X865000D02*
D03*
X717000Y630000D02*
D03*
X735000D02*
D03*
X717000Y570000D02*
D03*
X735000D02*
D03*
X717000Y550000D02*
D03*
X735000D02*
D03*
X717000Y530000D02*
D03*
X735000D02*
D03*
X717000Y610000D02*
D03*
X735000D02*
D03*
X717000Y590000D02*
D03*
X735000D02*
D03*
X683000Y730000D02*
D03*
X665000D02*
D03*
X683000Y790000D02*
D03*
X665000D02*
D03*
X683000Y810000D02*
D03*
X665000D02*
D03*
X683000Y830000D02*
D03*
X665000D02*
D03*
X683000Y750000D02*
D03*
X665000D02*
D03*
X683000Y770000D02*
D03*
X665000D02*
D03*
X517000Y1030000D02*
D03*
X535000D02*
D03*
X517000Y970000D02*
D03*
X535000D02*
D03*
X517000Y950000D02*
D03*
X535000D02*
D03*
X517000Y930000D02*
D03*
X535000D02*
D03*
X517000Y1010000D02*
D03*
X535000D02*
D03*
X517000Y990000D02*
D03*
X535000D02*
D03*
X683000Y930000D02*
D03*
X665000D02*
D03*
X683000Y990000D02*
D03*
X665000D02*
D03*
X683000Y1010000D02*
D03*
X665000D02*
D03*
X683000Y1030000D02*
D03*
X665000D02*
D03*
X683000Y950000D02*
D03*
X665000D02*
D03*
X683000Y970000D02*
D03*
X665000D02*
D03*
X517000Y1230000D02*
D03*
X535000D02*
D03*
X517000Y1170000D02*
D03*
X535000D02*
D03*
X517000Y1150000D02*
D03*
X535000D02*
D03*
X517000Y1130000D02*
D03*
X535000D02*
D03*
X517000Y1210000D02*
D03*
X535000D02*
D03*
X517000Y1190000D02*
D03*
X535000D02*
D03*
X683000Y1130000D02*
D03*
X665000D02*
D03*
X683000Y1190000D02*
D03*
X665000D02*
D03*
X683000Y1210000D02*
D03*
X665000D02*
D03*
X683000Y1230000D02*
D03*
X665000D02*
D03*
X683000Y1150000D02*
D03*
X665000D02*
D03*
X683000Y1170000D02*
D03*
X665000D02*
D03*
X483000Y1130000D02*
D03*
X465000D02*
D03*
X483000Y1190000D02*
D03*
X465000D02*
D03*
X1010000Y784000D02*
D03*
X992000D02*
D03*
X483000Y1210000D02*
D03*
X465000D02*
D03*
X483000Y1230000D02*
D03*
X465000D02*
D03*
X158000Y264000D02*
D03*
X140000D02*
D03*
X158000Y244000D02*
D03*
X140000D02*
D03*
X158000Y204000D02*
D03*
X140000D02*
D03*
X158000Y224000D02*
D03*
X140000D02*
D03*
X158000Y164000D02*
D03*
X140000D02*
D03*
X158000Y184000D02*
D03*
X140000D02*
D03*
X192000Y264000D02*
D03*
X210000D02*
D03*
X192000Y244000D02*
D03*
X210000D02*
D03*
X192000Y224000D02*
D03*
X210000D02*
D03*
X192000Y204000D02*
D03*
X210000D02*
D03*
X192000Y164000D02*
D03*
X210000D02*
D03*
X192000Y184000D02*
D03*
X210000D02*
D03*
X398000Y264000D02*
D03*
X380000D02*
D03*
X398000Y244000D02*
D03*
X380000D02*
D03*
X398000Y204000D02*
D03*
X380000D02*
D03*
X398000Y224000D02*
D03*
X380000D02*
D03*
X398000Y164000D02*
D03*
X380000D02*
D03*
X398000Y184000D02*
D03*
X380000D02*
D03*
X432000Y264000D02*
D03*
X450000D02*
D03*
X432000Y244000D02*
D03*
X450000D02*
D03*
X432000Y224000D02*
D03*
X450000D02*
D03*
X432000Y204000D02*
D03*
X450000D02*
D03*
X432000Y164000D02*
D03*
X450000D02*
D03*
X432000Y184000D02*
D03*
X450000D02*
D03*
X638000Y264000D02*
D03*
X620000D02*
D03*
X638000Y244000D02*
D03*
X620000D02*
D03*
X638000Y204000D02*
D03*
X620000D02*
D03*
X638000Y224000D02*
D03*
X620000D02*
D03*
X638000Y164000D02*
D03*
X620000D02*
D03*
X638000Y184000D02*
D03*
X620000D02*
D03*
X672000Y264000D02*
D03*
X690000D02*
D03*
X672000Y244000D02*
D03*
X690000D02*
D03*
X672000Y224000D02*
D03*
X690000D02*
D03*
X672000Y204000D02*
D03*
X690000D02*
D03*
X672000Y164000D02*
D03*
X690000D02*
D03*
X672000Y184000D02*
D03*
X690000D02*
D03*
X878000Y264000D02*
D03*
X860000D02*
D03*
X878000Y244000D02*
D03*
X860000D02*
D03*
X878000Y204000D02*
D03*
X860000D02*
D03*
X878000Y224000D02*
D03*
X860000D02*
D03*
X878000Y164000D02*
D03*
X860000D02*
D03*
X878000Y184000D02*
D03*
X860000D02*
D03*
X912000Y264000D02*
D03*
X930000D02*
D03*
X912000Y244000D02*
D03*
X930000D02*
D03*
X912000Y224000D02*
D03*
X930000D02*
D03*
X912000Y204000D02*
D03*
X930000D02*
D03*
X912000Y164000D02*
D03*
X930000D02*
D03*
X912000Y184000D02*
D03*
X930000D02*
D03*
X327000Y84000D02*
D03*
X345000D02*
D03*
X327000Y104000D02*
D03*
X345000D02*
D03*
X327000Y44000D02*
D03*
X345000D02*
D03*
X327000Y64000D02*
D03*
X345000D02*
D03*
X567000Y84000D02*
D03*
X585000D02*
D03*
X567000Y104000D02*
D03*
X585000D02*
D03*
X567000Y44000D02*
D03*
X585000D02*
D03*
X567000Y64000D02*
D03*
X585000D02*
D03*
X807000Y84000D02*
D03*
X825000D02*
D03*
X807000Y104000D02*
D03*
X825000D02*
D03*
X807000Y44000D02*
D03*
X825000D02*
D03*
X807000Y64000D02*
D03*
X825000D02*
D03*
X1047000Y84000D02*
D03*
X1065000D02*
D03*
X1047000Y104000D02*
D03*
X1065000D02*
D03*
X1047000Y44000D02*
D03*
X1065000D02*
D03*
X1047000Y64000D02*
D03*
X1065000D02*
D03*
X849000Y1676000D02*
D03*
X831000D02*
D03*
X849000Y1656000D02*
D03*
X831000D02*
D03*
X849000Y1716000D02*
D03*
X831000D02*
D03*
X849000Y1696000D02*
D03*
X831000D02*
D03*
X609000Y1676000D02*
D03*
X591000D02*
D03*
X609000Y1656000D02*
D03*
X591000D02*
D03*
X609000Y1716000D02*
D03*
X591000D02*
D03*
X609000Y1696000D02*
D03*
X591000D02*
D03*
X369000Y1676000D02*
D03*
X351000D02*
D03*
X369000Y1656000D02*
D03*
X351000D02*
D03*
X369000Y1716000D02*
D03*
X351000D02*
D03*
X369000Y1696000D02*
D03*
X351000D02*
D03*
X128919Y1715916D02*
D03*
X110919D02*
D03*
X128919Y1695916D02*
D03*
X110919D02*
D03*
X128919Y1675916D02*
D03*
X110919D02*
D03*
X128919Y1655916D02*
D03*
X110919D02*
D03*
X1018000Y1496000D02*
D03*
X1036000D02*
D03*
X1018000Y1516000D02*
D03*
X1036000D02*
D03*
X1018000Y1556000D02*
D03*
X1036000D02*
D03*
X1018000Y1536000D02*
D03*
X1036000D02*
D03*
X1018000Y1596000D02*
D03*
X1036000D02*
D03*
X1018000Y1576000D02*
D03*
X1036000D02*
D03*
X984000Y1496000D02*
D03*
X966000D02*
D03*
X984000Y1516000D02*
D03*
X966000D02*
D03*
X984000Y1536000D02*
D03*
X966000D02*
D03*
X984000Y1556000D02*
D03*
X966000D02*
D03*
X984000Y1596000D02*
D03*
X966000D02*
D03*
X984000Y1576000D02*
D03*
X966000D02*
D03*
X778000Y1496000D02*
D03*
X796000D02*
D03*
X778000Y1516000D02*
D03*
X796000D02*
D03*
X778000Y1556000D02*
D03*
X796000D02*
D03*
X778000Y1536000D02*
D03*
X796000D02*
D03*
X778000Y1596000D02*
D03*
X796000D02*
D03*
X778000Y1576000D02*
D03*
X796000D02*
D03*
X744000Y1496000D02*
D03*
X726000D02*
D03*
X744000Y1516000D02*
D03*
X726000D02*
D03*
X744000Y1536000D02*
D03*
X726000D02*
D03*
X744000Y1556000D02*
D03*
X726000D02*
D03*
X744000Y1596000D02*
D03*
X726000D02*
D03*
X744000Y1576000D02*
D03*
X726000D02*
D03*
X538000Y1496000D02*
D03*
X556000D02*
D03*
X538000Y1516000D02*
D03*
X556000D02*
D03*
X538000Y1556000D02*
D03*
X556000D02*
D03*
X538000Y1536000D02*
D03*
X556000D02*
D03*
X538000Y1596000D02*
D03*
X556000D02*
D03*
X538000Y1576000D02*
D03*
X556000D02*
D03*
X504000Y1496000D02*
D03*
X486000D02*
D03*
X504000Y1516000D02*
D03*
X486000D02*
D03*
X504000Y1536000D02*
D03*
X486000D02*
D03*
X504000Y1556000D02*
D03*
X486000D02*
D03*
X504000Y1596000D02*
D03*
X486000D02*
D03*
X504000Y1576000D02*
D03*
X486000D02*
D03*
X298000Y1496000D02*
D03*
X316000D02*
D03*
X298000Y1516000D02*
D03*
X316000D02*
D03*
X298000Y1556000D02*
D03*
X316000D02*
D03*
X298000Y1536000D02*
D03*
X316000D02*
D03*
X298000Y1596000D02*
D03*
X316000D02*
D03*
X298000Y1576000D02*
D03*
X316000D02*
D03*
X264000Y1496000D02*
D03*
X246000D02*
D03*
X264000Y1516000D02*
D03*
X246000D02*
D03*
X264000Y1536000D02*
D03*
X246000D02*
D03*
X264000Y1556000D02*
D03*
X246000D02*
D03*
X264000Y1596000D02*
D03*
X246000D02*
D03*
X264000Y1576000D02*
D03*
X246000D02*
D03*
X483000Y1150000D02*
D03*
X465000D02*
D03*
X483000Y1170000D02*
D03*
X465000D02*
D03*
X317000Y1230000D02*
D03*
X335000D02*
D03*
X317000Y1170000D02*
D03*
X335000D02*
D03*
X317000Y1150000D02*
D03*
X335000D02*
D03*
X317000Y1130000D02*
D03*
X335000D02*
D03*
X317000Y1210000D02*
D03*
X335000D02*
D03*
X317000Y1190000D02*
D03*
X335000D02*
D03*
X483000Y930000D02*
D03*
X465000D02*
D03*
X483000Y990000D02*
D03*
X465000D02*
D03*
X483000Y1010000D02*
D03*
X465000D02*
D03*
X483000Y1030000D02*
D03*
X465000D02*
D03*
X483000Y950000D02*
D03*
X465000D02*
D03*
X483000Y970000D02*
D03*
X465000D02*
D03*
X317000Y1030000D02*
D03*
X335000D02*
D03*
X317000Y970000D02*
D03*
X335000D02*
D03*
X317000Y950000D02*
D03*
X335000D02*
D03*
X317000Y930000D02*
D03*
X335000D02*
D03*
X317000Y1010000D02*
D03*
X335000D02*
D03*
X317000Y990000D02*
D03*
X335000D02*
D03*
X117000Y630000D02*
D03*
X135000D02*
D03*
X117000Y570000D02*
D03*
X135000D02*
D03*
X117000Y550000D02*
D03*
X135000D02*
D03*
X117000Y530000D02*
D03*
X135000D02*
D03*
X117000Y610000D02*
D03*
X135000D02*
D03*
X117000Y590000D02*
D03*
X135000D02*
D03*
X283000Y530000D02*
D03*
X265000D02*
D03*
X283000Y590000D02*
D03*
X265000D02*
D03*
X283000Y610000D02*
D03*
X265000D02*
D03*
X283000Y630000D02*
D03*
X265000D02*
D03*
X283000Y550000D02*
D03*
X265000D02*
D03*
X283000Y570000D02*
D03*
X265000D02*
D03*
X117000Y830000D02*
D03*
X135000D02*
D03*
X117000Y770000D02*
D03*
X135000D02*
D03*
X117000Y750000D02*
D03*
X135000D02*
D03*
X117000Y730000D02*
D03*
X135000D02*
D03*
X117000Y810000D02*
D03*
X135000D02*
D03*
X117000Y790000D02*
D03*
X135000D02*
D03*
X283000Y730000D02*
D03*
X265000D02*
D03*
X283000Y790000D02*
D03*
X265000D02*
D03*
X283000Y810000D02*
D03*
X265000D02*
D03*
X283000Y830000D02*
D03*
X265000D02*
D03*
X283000Y750000D02*
D03*
X265000D02*
D03*
X283000Y770000D02*
D03*
X265000D02*
D03*
X117000Y1030000D02*
D03*
X135000D02*
D03*
X117000Y970000D02*
D03*
X135000D02*
D03*
X117000Y950000D02*
D03*
X135000D02*
D03*
X117000Y930000D02*
D03*
X135000D02*
D03*
X117000Y1010000D02*
D03*
X135000D02*
D03*
X117000Y990000D02*
D03*
X135000D02*
D03*
X283000Y930000D02*
D03*
X265000D02*
D03*
X283000Y990000D02*
D03*
X265000D02*
D03*
X283000Y1010000D02*
D03*
X265000D02*
D03*
X283000Y1030000D02*
D03*
X265000D02*
D03*
X283000Y950000D02*
D03*
X265000D02*
D03*
X283000Y970000D02*
D03*
X265000D02*
D03*
X483000Y730000D02*
D03*
X465000D02*
D03*
X483000Y790000D02*
D03*
X465000D02*
D03*
X483000Y810000D02*
D03*
X465000D02*
D03*
X483000Y830000D02*
D03*
X465000D02*
D03*
X483000Y750000D02*
D03*
X465000D02*
D03*
X483000Y770000D02*
D03*
X465000D02*
D03*
X317000Y830000D02*
D03*
X335000D02*
D03*
X317000Y770000D02*
D03*
X335000D02*
D03*
X317000Y750000D02*
D03*
X335000D02*
D03*
X317000Y730000D02*
D03*
X335000D02*
D03*
X317000Y810000D02*
D03*
X335000D02*
D03*
X317000Y790000D02*
D03*
X335000D02*
D03*
X483000Y530000D02*
D03*
X465000D02*
D03*
X483000Y590000D02*
D03*
X465000D02*
D03*
X483000Y610000D02*
D03*
X465000D02*
D03*
X483000Y630000D02*
D03*
X465000D02*
D03*
X483000Y550000D02*
D03*
X465000D02*
D03*
X483000Y570000D02*
D03*
X465000D02*
D03*
X317000Y630000D02*
D03*
X335000D02*
D03*
X317000Y570000D02*
D03*
X335000D02*
D03*
X317000Y550000D02*
D03*
X335000D02*
D03*
X317000Y530000D02*
D03*
X335000D02*
D03*
X317000Y610000D02*
D03*
X335000D02*
D03*
X317000Y590000D02*
D03*
X335000D02*
D03*
X117000Y1230000D02*
D03*
X135000D02*
D03*
X117000Y1170000D02*
D03*
X135000D02*
D03*
X117000Y1150000D02*
D03*
X135000D02*
D03*
X117000Y1130000D02*
D03*
X135000D02*
D03*
X117000Y1210000D02*
D03*
X135000D02*
D03*
X117000Y1190000D02*
D03*
X135000D02*
D03*
X283000Y1130000D02*
D03*
X265000D02*
D03*
X283000Y1190000D02*
D03*
X265000D02*
D03*
X283000Y1210000D02*
D03*
X265000D02*
D03*
X283000Y1230000D02*
D03*
X265000D02*
D03*
X283000Y1150000D02*
D03*
X265000D02*
D03*
X283000Y1170000D02*
D03*
X265000D02*
D03*
X1154000Y588000D02*
D03*
X1136000D02*
D03*
X158000Y304000D02*
D03*
X140000D02*
D03*
X158000Y284000D02*
D03*
X140000D02*
D03*
X398000Y304000D02*
D03*
X380000D02*
D03*
X398000Y284000D02*
D03*
X380000D02*
D03*
X638000Y304000D02*
D03*
X620000D02*
D03*
X638000Y284000D02*
D03*
X620000D02*
D03*
X878000Y304000D02*
D03*
X860000D02*
D03*
X878000Y284000D02*
D03*
X860000D02*
D03*
X1018000Y1456000D02*
D03*
X1036000D02*
D03*
X1018000Y1476000D02*
D03*
X1036000D02*
D03*
X778000Y1456000D02*
D03*
X796000D02*
D03*
X778000Y1476000D02*
D03*
X796000D02*
D03*
X538000Y1456000D02*
D03*
X556000D02*
D03*
X538000Y1476000D02*
D03*
X556000D02*
D03*
X298000Y1456000D02*
D03*
X316000D02*
D03*
X298000Y1476000D02*
D03*
X316000D02*
D03*
X65000Y1010000D02*
D03*
X83000D02*
D03*
X65000Y1030000D02*
D03*
X83000D02*
D03*
X65000Y990000D02*
D03*
X83000D02*
D03*
X65000Y970000D02*
D03*
X83000D02*
D03*
X65000Y930000D02*
D03*
X83000D02*
D03*
X65000Y950000D02*
D03*
X83000D02*
D03*
X65000Y810000D02*
D03*
X83000D02*
D03*
X65000Y830000D02*
D03*
X83000D02*
D03*
X65000Y1210000D02*
D03*
X83000D02*
D03*
X65000Y1230000D02*
D03*
X83000D02*
D03*
X65000Y1190000D02*
D03*
X83000D02*
D03*
X65000Y1170000D02*
D03*
X83000D02*
D03*
X65000Y1130000D02*
D03*
X83000D02*
D03*
X65000Y790000D02*
D03*
X83000D02*
D03*
X65000Y770000D02*
D03*
X83000D02*
D03*
X65000Y730000D02*
D03*
X83000D02*
D03*
X65000Y750000D02*
D03*
X83000D02*
D03*
X65000Y610000D02*
D03*
X83000D02*
D03*
X65000Y630000D02*
D03*
X83000D02*
D03*
X65000Y590000D02*
D03*
X83000D02*
D03*
X65000Y570000D02*
D03*
X83000D02*
D03*
X65000Y530000D02*
D03*
X83000D02*
D03*
X65000Y550000D02*
D03*
X83000D02*
D03*
X935000Y1150000D02*
D03*
X917000D02*
D03*
X158000Y344000D02*
D03*
X140000D02*
D03*
X158000Y324000D02*
D03*
X140000D02*
D03*
X398000Y344000D02*
D03*
X380000D02*
D03*
X398000Y324000D02*
D03*
X380000D02*
D03*
X638000Y344000D02*
D03*
X620000D02*
D03*
X638000Y324000D02*
D03*
X620000D02*
D03*
X878000Y344000D02*
D03*
X860000D02*
D03*
X878000Y324000D02*
D03*
X860000D02*
D03*
X1018000Y1416000D02*
D03*
X1036000D02*
D03*
X1018000Y1436000D02*
D03*
X1036000D02*
D03*
X778000Y1416000D02*
D03*
X796000D02*
D03*
X778000Y1436000D02*
D03*
X796000D02*
D03*
X538000Y1416000D02*
D03*
X556000D02*
D03*
X538000Y1436000D02*
D03*
X556000D02*
D03*
X298000Y1416000D02*
D03*
X316000D02*
D03*
X298000Y1436000D02*
D03*
X316000D02*
D03*
X935000Y1130000D02*
D03*
X917000D02*
D03*
X935000Y1170000D02*
D03*
X917000D02*
D03*
X935000Y1190000D02*
D03*
X917000D02*
D03*
X935000Y1230000D02*
D03*
X917000D02*
D03*
X935000Y1210000D02*
D03*
X917000D02*
D03*
X935000Y950000D02*
D03*
X917000D02*
D03*
X935000Y930000D02*
D03*
X917000D02*
D03*
X935000Y970000D02*
D03*
X917000D02*
D03*
X935000Y990000D02*
D03*
X917000D02*
D03*
X935000Y1030000D02*
D03*
X917000D02*
D03*
X935000Y1010000D02*
D03*
X917000D02*
D03*
X935000Y750000D02*
D03*
X917000D02*
D03*
X935000Y730000D02*
D03*
X917000D02*
D03*
X935000Y770000D02*
D03*
X917000D02*
D03*
X935000Y790000D02*
D03*
X917000D02*
D03*
X935000Y830000D02*
D03*
X917000D02*
D03*
X935000Y810000D02*
D03*
X917000D02*
D03*
X935000Y550000D02*
D03*
X917000D02*
D03*
X935000Y530000D02*
D03*
X917000D02*
D03*
X935000Y570000D02*
D03*
X917000D02*
D03*
X935000Y590000D02*
D03*
X917000D02*
D03*
X935000Y630000D02*
D03*
X917000D02*
D03*
X935000Y610000D02*
D03*
X917000D02*
D03*
X158000Y384000D02*
D03*
X140000D02*
D03*
X158000Y364000D02*
D03*
X140000D02*
D03*
X398000Y384000D02*
D03*
X380000D02*
D03*
X398000Y364000D02*
D03*
X380000D02*
D03*
X638000Y384000D02*
D03*
X620000D02*
D03*
X638000Y364000D02*
D03*
X620000D02*
D03*
X878000Y384000D02*
D03*
X860000D02*
D03*
X878000Y364000D02*
D03*
X860000D02*
D03*
X1018000Y1376000D02*
D03*
X1036000D02*
D03*
X1018000Y1396000D02*
D03*
X1036000D02*
D03*
X778000Y1376000D02*
D03*
X796000D02*
D03*
X778000Y1396000D02*
D03*
X796000D02*
D03*
X538000Y1376000D02*
D03*
X556000D02*
D03*
X538000Y1396000D02*
D03*
X556000D02*
D03*
X298000Y1376000D02*
D03*
X316000D02*
D03*
X298000Y1396000D02*
D03*
X316000D02*
D03*
X65000Y1150000D02*
D03*
X83000D02*
D03*
D76*
X183000Y148500D02*
D03*
Y139500D02*
D03*
X993000Y1611500D02*
D03*
Y1620500D02*
D03*
X423000Y148500D02*
D03*
Y139500D02*
D03*
X753000Y1611500D02*
D03*
Y1620500D02*
D03*
X663000Y148500D02*
D03*
Y139500D02*
D03*
X513000Y1611500D02*
D03*
Y1620500D02*
D03*
X903000Y148500D02*
D03*
Y139500D02*
D03*
X273000Y1611500D02*
D03*
Y1620500D02*
D03*
D77*
X840000Y419000D02*
D03*
Y449000D02*
D03*
X160000Y1341000D02*
D03*
Y1311000D02*
D03*
X840000Y1341000D02*
D03*
Y1311000D02*
D03*
X160000Y419000D02*
D03*
Y449000D02*
D03*
X184000Y24000D02*
D03*
Y54000D02*
D03*
X992000Y1736000D02*
D03*
Y1706000D02*
D03*
X752000Y1736000D02*
D03*
Y1706000D02*
D03*
X1032000Y1736000D02*
D03*
Y1706000D02*
D03*
X424000Y24000D02*
D03*
Y54000D02*
D03*
X552000Y1736000D02*
D03*
Y1706000D02*
D03*
X144000Y24000D02*
D03*
Y54000D02*
D03*
X624000Y24000D02*
D03*
Y54000D02*
D03*
X664000Y24000D02*
D03*
Y54000D02*
D03*
X512000Y1736000D02*
D03*
Y1706000D02*
D03*
X312000Y1736000D02*
D03*
Y1706000D02*
D03*
X864000Y24000D02*
D03*
Y54000D02*
D03*
X904000Y24000D02*
D03*
Y54000D02*
D03*
X272000Y1736000D02*
D03*
Y1706000D02*
D03*
X792000Y1736000D02*
D03*
Y1706000D02*
D03*
X384000Y24000D02*
D03*
Y54000D02*
D03*
X200000Y419000D02*
D03*
Y449000D02*
D03*
X280000Y419000D02*
D03*
Y449000D02*
D03*
X240000Y419000D02*
D03*
Y449000D02*
D03*
X320000Y419000D02*
D03*
Y449000D02*
D03*
X400000Y419000D02*
D03*
Y449000D02*
D03*
X360000Y419000D02*
D03*
Y449000D02*
D03*
X440000Y419000D02*
D03*
Y449000D02*
D03*
X520000Y419000D02*
D03*
Y449000D02*
D03*
X480000Y419000D02*
D03*
Y449000D02*
D03*
X560000Y419000D02*
D03*
Y449000D02*
D03*
X640000Y419000D02*
D03*
Y449000D02*
D03*
X600000Y419000D02*
D03*
Y449000D02*
D03*
X680000Y419000D02*
D03*
Y449000D02*
D03*
X760000Y419000D02*
D03*
Y449000D02*
D03*
X720000Y419000D02*
D03*
Y449000D02*
D03*
X280000Y1341000D02*
D03*
Y1311000D02*
D03*
X200000Y1341000D02*
D03*
Y1311000D02*
D03*
X240000Y1341000D02*
D03*
Y1311000D02*
D03*
X400000Y1341000D02*
D03*
Y1311000D02*
D03*
X320000Y1341000D02*
D03*
Y1311000D02*
D03*
X360000Y1341000D02*
D03*
Y1311000D02*
D03*
X520000Y1341000D02*
D03*
Y1311000D02*
D03*
X440000Y1341000D02*
D03*
Y1311000D02*
D03*
X480000Y1341000D02*
D03*
Y1311000D02*
D03*
X640000Y1341000D02*
D03*
Y1311000D02*
D03*
X560000Y1341000D02*
D03*
Y1311000D02*
D03*
X600000Y1341000D02*
D03*
Y1311000D02*
D03*
X760000Y1341000D02*
D03*
Y1311000D02*
D03*
X680000Y1341000D02*
D03*
Y1311000D02*
D03*
X720000Y1341000D02*
D03*
Y1311000D02*
D03*
X800000Y1341000D02*
D03*
Y1311000D02*
D03*
Y419000D02*
D03*
Y449000D02*
D03*
D78*
X830000Y443000D02*
D03*
Y425000D02*
D03*
X850000Y443000D02*
D03*
Y425000D02*
D03*
X150000Y1317000D02*
D03*
Y1335000D02*
D03*
X170000Y1317000D02*
D03*
Y1335000D02*
D03*
X830000Y1317000D02*
D03*
Y1335000D02*
D03*
X850000Y1317000D02*
D03*
Y1335000D02*
D03*
X150000Y443000D02*
D03*
Y425000D02*
D03*
X170000Y443000D02*
D03*
Y425000D02*
D03*
X1042000Y1730000D02*
D03*
Y1712000D02*
D03*
X134000Y30000D02*
D03*
Y48000D02*
D03*
X414000Y30000D02*
D03*
Y48000D02*
D03*
X762000Y1730000D02*
D03*
Y1712000D02*
D03*
X322000Y1730000D02*
D03*
Y1712000D02*
D03*
X282000Y1730000D02*
D03*
Y1712000D02*
D03*
X262000Y1730000D02*
D03*
Y1712000D02*
D03*
X854000Y30000D02*
D03*
Y48000D02*
D03*
X894000Y30000D02*
D03*
Y48000D02*
D03*
X914000Y30000D02*
D03*
Y48000D02*
D03*
X302000Y1730000D02*
D03*
Y1712000D02*
D03*
X542000Y1730000D02*
D03*
Y1712000D02*
D03*
X562000Y1730000D02*
D03*
Y1712000D02*
D03*
X874000Y30000D02*
D03*
Y48000D02*
D03*
X634000Y30000D02*
D03*
Y48000D02*
D03*
X614000Y30000D02*
D03*
Y48000D02*
D03*
X154000Y30000D02*
D03*
Y48000D02*
D03*
X434000Y30000D02*
D03*
Y48000D02*
D03*
X1022000Y1730000D02*
D03*
Y1712000D02*
D03*
X174000Y30000D02*
D03*
Y48000D02*
D03*
X742000Y1730000D02*
D03*
Y1712000D02*
D03*
X374000Y30000D02*
D03*
Y48000D02*
D03*
X654000Y30000D02*
D03*
Y48000D02*
D03*
X194000Y30000D02*
D03*
Y48000D02*
D03*
X1002000Y1730000D02*
D03*
Y1712000D02*
D03*
X802000Y1730000D02*
D03*
Y1712000D02*
D03*
X522000Y1730000D02*
D03*
Y1712000D02*
D03*
X394000Y30000D02*
D03*
Y48000D02*
D03*
X674000Y30000D02*
D03*
Y48000D02*
D03*
X982000Y1730000D02*
D03*
Y1712000D02*
D03*
X782000Y1730000D02*
D03*
Y1712000D02*
D03*
X502000Y1730000D02*
D03*
Y1712000D02*
D03*
X210000Y425000D02*
D03*
Y443000D02*
D03*
X190000Y425000D02*
D03*
Y443000D02*
D03*
X230000Y425000D02*
D03*
Y443000D02*
D03*
X250000Y425000D02*
D03*
Y443000D02*
D03*
X290000Y425000D02*
D03*
Y443000D02*
D03*
X270000Y425000D02*
D03*
Y443000D02*
D03*
X330000Y425000D02*
D03*
Y443000D02*
D03*
X310000Y425000D02*
D03*
Y443000D02*
D03*
X350000Y425000D02*
D03*
Y443000D02*
D03*
X370000Y425000D02*
D03*
Y443000D02*
D03*
X410000Y425000D02*
D03*
Y443000D02*
D03*
X390000Y425000D02*
D03*
Y443000D02*
D03*
X450000Y425000D02*
D03*
Y443000D02*
D03*
X430000Y425000D02*
D03*
Y443000D02*
D03*
X470000Y425000D02*
D03*
Y443000D02*
D03*
X490000Y425000D02*
D03*
Y443000D02*
D03*
X530000Y425000D02*
D03*
Y443000D02*
D03*
X510000Y425000D02*
D03*
Y443000D02*
D03*
X570000Y425000D02*
D03*
Y443000D02*
D03*
X550000Y425000D02*
D03*
Y443000D02*
D03*
X590000Y425000D02*
D03*
Y443000D02*
D03*
X610000Y425000D02*
D03*
Y443000D02*
D03*
X650000Y425000D02*
D03*
Y443000D02*
D03*
X630000Y425000D02*
D03*
Y443000D02*
D03*
X690000Y425000D02*
D03*
Y443000D02*
D03*
X670000Y425000D02*
D03*
Y443000D02*
D03*
X710000Y425000D02*
D03*
Y443000D02*
D03*
X730000Y425000D02*
D03*
Y443000D02*
D03*
X770000Y425000D02*
D03*
Y443000D02*
D03*
X750000Y425000D02*
D03*
Y443000D02*
D03*
X270000Y1335000D02*
D03*
Y1317000D02*
D03*
X290000Y1335000D02*
D03*
Y1317000D02*
D03*
X250000Y1335000D02*
D03*
Y1317000D02*
D03*
X230000Y1335000D02*
D03*
Y1317000D02*
D03*
X190000Y1335000D02*
D03*
Y1317000D02*
D03*
X210000Y1335000D02*
D03*
Y1317000D02*
D03*
X390000Y1335000D02*
D03*
Y1317000D02*
D03*
X410000Y1335000D02*
D03*
Y1317000D02*
D03*
X370000Y1335000D02*
D03*
Y1317000D02*
D03*
X350000Y1335000D02*
D03*
Y1317000D02*
D03*
X310000Y1335000D02*
D03*
Y1317000D02*
D03*
X330000Y1335000D02*
D03*
Y1317000D02*
D03*
X510000Y1335000D02*
D03*
Y1317000D02*
D03*
X530000Y1335000D02*
D03*
Y1317000D02*
D03*
X490000Y1335000D02*
D03*
Y1317000D02*
D03*
X470000Y1335000D02*
D03*
Y1317000D02*
D03*
X430000Y1335000D02*
D03*
Y1317000D02*
D03*
X450000Y1335000D02*
D03*
Y1317000D02*
D03*
X630000Y1335000D02*
D03*
Y1317000D02*
D03*
X650000Y1335000D02*
D03*
Y1317000D02*
D03*
X610000Y1335000D02*
D03*
Y1317000D02*
D03*
X590000Y1335000D02*
D03*
Y1317000D02*
D03*
X550000Y1335000D02*
D03*
Y1317000D02*
D03*
X570000Y1335000D02*
D03*
Y1317000D02*
D03*
X750000Y1335000D02*
D03*
Y1317000D02*
D03*
X770000Y1335000D02*
D03*
Y1317000D02*
D03*
X730000Y1335000D02*
D03*
Y1317000D02*
D03*
X710000Y1335000D02*
D03*
Y1317000D02*
D03*
X670000Y1335000D02*
D03*
Y1317000D02*
D03*
X690000Y1335000D02*
D03*
Y1317000D02*
D03*
X790000Y1335000D02*
D03*
Y1317000D02*
D03*
X810000Y1335000D02*
D03*
Y1317000D02*
D03*
Y425000D02*
D03*
Y443000D02*
D03*
X790000Y425000D02*
D03*
Y443000D02*
D03*
D79*
X1175500Y949000D02*
D03*
X1154500D02*
D03*
X1175500Y929000D02*
D03*
X1154500D02*
D03*
X1175500Y889000D02*
D03*
X1154500D02*
D03*
X1175500Y909000D02*
D03*
X1154500D02*
D03*
D80*
X1091500Y820500D02*
D03*
X1082000D02*
D03*
X1072500D02*
D03*
Y797500D02*
D03*
X1082000D02*
D03*
X1091500D02*
D03*
D81*
X1109000Y620000D02*
D03*
X1149000D02*
D03*
D82*
X217000Y111000D02*
D03*
X201000D02*
D03*
X959000Y1649000D02*
D03*
X975000D02*
D03*
X457000Y111000D02*
D03*
X441000D02*
D03*
X719000Y1649000D02*
D03*
X735000D02*
D03*
X697000Y111000D02*
D03*
X681000D02*
D03*
X479000Y1649000D02*
D03*
X495000D02*
D03*
X937000Y111000D02*
D03*
X921000D02*
D03*
X239000Y1649000D02*
D03*
X255000D02*
D03*
D83*
X1101380Y1631950D02*
D03*
X1169380D02*
D03*
X1102650Y127000D02*
D03*
X1170650D02*
D03*
D84*
X1100000Y20000D02*
D03*
X1092000Y1734000D02*
D03*
X1033392Y1089799D02*
D03*
X1148392Y974799D02*
D03*
D85*
X1123000Y776500D02*
D03*
X1178000D02*
D03*
Y865500D02*
D03*
X1123000D02*
D03*
D86*
X1122000Y837000D02*
D03*
Y829000D02*
D03*
Y821000D02*
D03*
Y813000D02*
D03*
Y805000D02*
D03*
D87*
X305250Y342000D02*
D03*
X202750D02*
D03*
X870750Y1418000D02*
D03*
X973250D02*
D03*
X545250Y342000D02*
D03*
X442750D02*
D03*
X630750Y1418000D02*
D03*
X733250D02*
D03*
X785250Y342000D02*
D03*
X682750D02*
D03*
X390750Y1418000D02*
D03*
X493250D02*
D03*
X1025250Y342000D02*
D03*
X922750D02*
D03*
X150750Y1418000D02*
D03*
X253250D02*
D03*
D88*
X303050Y75000D02*
D03*
X290350D02*
D03*
X277650D02*
D03*
X264954D02*
D03*
Y131000D02*
D03*
X277650D02*
D03*
X290350D02*
D03*
X303050D02*
D03*
X872950Y1685000D02*
D03*
X885650D02*
D03*
X898350D02*
D03*
X911046D02*
D03*
Y1629000D02*
D03*
X898350D02*
D03*
X885650D02*
D03*
X872950D02*
D03*
X543050Y75000D02*
D03*
X530350D02*
D03*
X517650D02*
D03*
X504954D02*
D03*
Y131000D02*
D03*
X517650D02*
D03*
X530350D02*
D03*
X543050D02*
D03*
X632950Y1685000D02*
D03*
X645650D02*
D03*
X658350D02*
D03*
X671046D02*
D03*
Y1629000D02*
D03*
X658350D02*
D03*
X645650D02*
D03*
X632950D02*
D03*
X783050Y75000D02*
D03*
X770350D02*
D03*
X757650D02*
D03*
X744954D02*
D03*
Y131000D02*
D03*
X757650D02*
D03*
X770350D02*
D03*
X783050D02*
D03*
X392950Y1685000D02*
D03*
X405650D02*
D03*
X418350D02*
D03*
X431046D02*
D03*
Y1629000D02*
D03*
X418350D02*
D03*
X405650D02*
D03*
X392950D02*
D03*
X1023050Y75000D02*
D03*
X1010350D02*
D03*
X997650D02*
D03*
X984954D02*
D03*
Y131000D02*
D03*
X997650D02*
D03*
X1010350D02*
D03*
X1023050D02*
D03*
X152950Y1685000D02*
D03*
X165650D02*
D03*
X178350D02*
D03*
X191046D02*
D03*
Y1629000D02*
D03*
X178350D02*
D03*
X165650D02*
D03*
X152950D02*
D03*
D89*
X303000Y188050D02*
D03*
Y175350D02*
D03*
Y162650D02*
D03*
Y149954D02*
D03*
X247000D02*
D03*
Y162650D02*
D03*
Y175350D02*
D03*
Y188050D02*
D03*
X303000Y244050D02*
D03*
Y231350D02*
D03*
Y218650D02*
D03*
Y205954D02*
D03*
X247000D02*
D03*
Y218650D02*
D03*
Y231350D02*
D03*
Y244050D02*
D03*
X873000Y1571950D02*
D03*
Y1584650D02*
D03*
Y1597350D02*
D03*
Y1610046D02*
D03*
X929000D02*
D03*
Y1597350D02*
D03*
Y1584650D02*
D03*
Y1571950D02*
D03*
X873000Y1515950D02*
D03*
Y1528650D02*
D03*
Y1541350D02*
D03*
Y1554046D02*
D03*
X929000D02*
D03*
Y1541350D02*
D03*
Y1528650D02*
D03*
Y1515950D02*
D03*
X543000Y188050D02*
D03*
Y175350D02*
D03*
Y162650D02*
D03*
Y149954D02*
D03*
X487000D02*
D03*
Y162650D02*
D03*
Y175350D02*
D03*
Y188050D02*
D03*
X543000Y244050D02*
D03*
Y231350D02*
D03*
Y218650D02*
D03*
Y205954D02*
D03*
X487000D02*
D03*
Y218650D02*
D03*
Y231350D02*
D03*
Y244050D02*
D03*
X633000Y1571950D02*
D03*
Y1584650D02*
D03*
Y1597350D02*
D03*
Y1610046D02*
D03*
X689000D02*
D03*
Y1597350D02*
D03*
Y1584650D02*
D03*
Y1571950D02*
D03*
X633000Y1515950D02*
D03*
Y1528650D02*
D03*
Y1541350D02*
D03*
Y1554046D02*
D03*
X689000D02*
D03*
Y1541350D02*
D03*
Y1528650D02*
D03*
Y1515950D02*
D03*
X783000Y188050D02*
D03*
Y175350D02*
D03*
Y162650D02*
D03*
Y149954D02*
D03*
X727000D02*
D03*
Y162650D02*
D03*
Y175350D02*
D03*
Y188050D02*
D03*
X783000Y244050D02*
D03*
Y231350D02*
D03*
Y218650D02*
D03*
Y205954D02*
D03*
X727000D02*
D03*
Y218650D02*
D03*
Y231350D02*
D03*
Y244050D02*
D03*
X393000Y1571950D02*
D03*
Y1584650D02*
D03*
Y1597350D02*
D03*
Y1610046D02*
D03*
X449000D02*
D03*
Y1597350D02*
D03*
Y1584650D02*
D03*
Y1571950D02*
D03*
X393000Y1515950D02*
D03*
Y1528650D02*
D03*
Y1541350D02*
D03*
Y1554046D02*
D03*
X449000D02*
D03*
Y1541350D02*
D03*
Y1528650D02*
D03*
Y1515950D02*
D03*
X1023000Y188050D02*
D03*
Y175350D02*
D03*
Y162650D02*
D03*
Y149954D02*
D03*
X967000D02*
D03*
Y162650D02*
D03*
Y175350D02*
D03*
Y188050D02*
D03*
X1023000Y244050D02*
D03*
Y231350D02*
D03*
Y218650D02*
D03*
Y205954D02*
D03*
X967000D02*
D03*
Y218650D02*
D03*
Y231350D02*
D03*
Y244050D02*
D03*
X153000Y1571950D02*
D03*
Y1584650D02*
D03*
Y1597350D02*
D03*
Y1610046D02*
D03*
X209000D02*
D03*
Y1597350D02*
D03*
Y1584650D02*
D03*
Y1571950D02*
D03*
X153000Y1515950D02*
D03*
Y1528650D02*
D03*
Y1541350D02*
D03*
Y1554046D02*
D03*
X209000D02*
D03*
Y1541350D02*
D03*
Y1528650D02*
D03*
Y1515950D02*
D03*
D90*
X1038000Y1188500D02*
D03*
X1028500Y1211500D02*
D03*
X1047500D02*
D03*
D91*
X1122000Y1214000D02*
D03*
X1106000D02*
D03*
X592000Y1248000D02*
D03*
X608000D02*
D03*
X1054000Y1318000D02*
D03*
X1070000D02*
D03*
X967000Y1018000D02*
D03*
X983000D02*
D03*
X1064000Y610000D02*
D03*
X1080000D02*
D03*
X192000Y1251000D02*
D03*
X208000D02*
D03*
X1077000Y1198000D02*
D03*
X1093000D02*
D03*
X1123000Y1278000D02*
D03*
X1107000D02*
D03*
X1054000Y1258000D02*
D03*
X1070000D02*
D03*
D92*
X1138000Y1214000D02*
D03*
Y1230000D02*
D03*
X1165000D02*
D03*
Y1214000D02*
D03*
X1016000Y1125000D02*
D03*
Y1109000D02*
D03*
X949000Y1105000D02*
D03*
Y1089000D02*
D03*
X1055000Y1302000D02*
D03*
Y1286000D02*
D03*
X1056000Y794000D02*
D03*
Y810000D02*
D03*
X1006000Y677000D02*
D03*
Y661000D02*
D03*
Y646000D02*
D03*
Y630000D02*
D03*
X1032000Y1157000D02*
D03*
Y1173000D02*
D03*
X1048000D02*
D03*
Y1157000D02*
D03*
X1055000Y1243000D02*
D03*
Y1227000D02*
D03*
X1139000Y1278000D02*
D03*
Y1294000D02*
D03*
X1007000Y749000D02*
D03*
Y733000D02*
D03*
X991000D02*
D03*
Y749000D02*
D03*
D93*
X1087000Y590000D02*
D03*
X1057000D02*
D03*
D94*
X1176000Y587000D02*
D03*
Y617000D02*
D03*
X1010000Y612000D02*
D03*
Y582000D02*
D03*
X1035000Y612000D02*
D03*
Y582000D02*
D03*
D95*
X1038500Y513500D02*
D03*
Y532500D02*
D03*
X1065500D02*
D03*
Y523000D02*
D03*
Y513500D02*
D03*
D96*
X1032950Y551000D02*
D03*
X1045650D02*
D03*
X1058350D02*
D03*
X1071046D02*
D03*
Y495000D02*
D03*
X1058350D02*
D03*
X1045650D02*
D03*
X1032950D02*
D03*
D97*
X1135000Y452500D02*
D03*
D98*
X1109600Y556000D02*
D03*
X1160400D02*
D03*
D99*
X1135000Y486500D02*
D03*
D100*
X1112100Y551500D02*
D03*
X1157900D02*
D03*
D101*
X1082000Y676050D02*
D03*
Y663350D02*
D03*
Y650650D02*
D03*
Y637954D02*
D03*
X1026000D02*
D03*
Y650650D02*
D03*
Y663350D02*
D03*
Y676050D02*
D03*
X1162000Y540050D02*
D03*
Y527350D02*
D03*
Y514650D02*
D03*
Y501954D02*
D03*
X1108000D02*
D03*
Y514650D02*
D03*
Y527350D02*
D03*
Y540050D02*
D03*
X1082000Y748050D02*
D03*
Y735350D02*
D03*
Y722650D02*
D03*
Y709954D02*
D03*
X1026000D02*
D03*
Y722650D02*
D03*
Y735350D02*
D03*
Y748050D02*
D03*
D102*
X1128392Y1089799D02*
D03*
X1123392D02*
D03*
X1118392D02*
D03*
X1113392D02*
D03*
X1108392D02*
D03*
X1103392D02*
D03*
X1098392D02*
D03*
X1093392D02*
D03*
X1088392D02*
D03*
X1083392D02*
D03*
X1078392D02*
D03*
X1073392D02*
D03*
X1068392D02*
D03*
X1063392D02*
D03*
X1058392D02*
D03*
X1053392D02*
D03*
Y974799D02*
D03*
X1058392D02*
D03*
X1063392D02*
D03*
X1068392D02*
D03*
X1073392D02*
D03*
X1078392D02*
D03*
X1083392D02*
D03*
X1088392D02*
D03*
X1093392D02*
D03*
X1098392D02*
D03*
X1103392D02*
D03*
X1108392D02*
D03*
X1113392D02*
D03*
X1118392D02*
D03*
X1123392D02*
D03*
X1128392D02*
D03*
D103*
X1033392Y1069799D02*
D03*
Y1064799D02*
D03*
Y1059799D02*
D03*
Y1054799D02*
D03*
Y1049799D02*
D03*
Y1044799D02*
D03*
Y1039799D02*
D03*
Y1034799D02*
D03*
Y1029799D02*
D03*
Y1024799D02*
D03*
Y1019799D02*
D03*
Y1014799D02*
D03*
Y1009799D02*
D03*
Y1004799D02*
D03*
Y999799D02*
D03*
Y994799D02*
D03*
X1148392D02*
D03*
Y999799D02*
D03*
Y1004799D02*
D03*
Y1009799D02*
D03*
Y1014799D02*
D03*
Y1019799D02*
D03*
Y1024799D02*
D03*
Y1029799D02*
D03*
Y1034799D02*
D03*
Y1039799D02*
D03*
Y1044799D02*
D03*
Y1049799D02*
D03*
Y1054799D02*
D03*
Y1059799D02*
D03*
Y1064799D02*
D03*
Y1069799D02*
D03*
D104*
X230500Y126250D02*
D03*
Y130750D02*
D03*
Y135250D02*
D03*
Y139750D02*
D03*
X201500D02*
D03*
Y135250D02*
D03*
Y130750D02*
D03*
Y126250D02*
D03*
X945500Y1633750D02*
D03*
Y1629250D02*
D03*
Y1624750D02*
D03*
Y1620250D02*
D03*
X974500D02*
D03*
Y1624750D02*
D03*
Y1629250D02*
D03*
Y1633750D02*
D03*
X470500Y126250D02*
D03*
Y130750D02*
D03*
Y135250D02*
D03*
Y139750D02*
D03*
X441500D02*
D03*
Y135250D02*
D03*
Y130750D02*
D03*
Y126250D02*
D03*
X705500Y1633750D02*
D03*
Y1629250D02*
D03*
Y1624750D02*
D03*
Y1620250D02*
D03*
X734500D02*
D03*
Y1624750D02*
D03*
Y1629250D02*
D03*
Y1633750D02*
D03*
X710500Y126250D02*
D03*
Y130750D02*
D03*
Y135250D02*
D03*
Y139750D02*
D03*
X681500D02*
D03*
Y135250D02*
D03*
Y130750D02*
D03*
Y126250D02*
D03*
X465500Y1633750D02*
D03*
Y1629250D02*
D03*
Y1624750D02*
D03*
Y1620250D02*
D03*
X494500D02*
D03*
Y1624750D02*
D03*
Y1629250D02*
D03*
Y1633750D02*
D03*
X950500Y126250D02*
D03*
Y130750D02*
D03*
Y135250D02*
D03*
Y139750D02*
D03*
X921500D02*
D03*
Y135250D02*
D03*
Y130750D02*
D03*
Y126250D02*
D03*
X225500Y1633750D02*
D03*
Y1629250D02*
D03*
Y1624750D02*
D03*
Y1620250D02*
D03*
X254500D02*
D03*
Y1624750D02*
D03*
Y1629250D02*
D03*
Y1633750D02*
D03*
D105*
X216000Y133000D02*
D03*
X960000Y1627000D02*
D03*
X456000Y133000D02*
D03*
X720000Y1627000D02*
D03*
X696000Y133000D02*
D03*
X480000Y1627000D02*
D03*
X936000Y133000D02*
D03*
X240000Y1627000D02*
D03*
D106*
X1081000Y1179000D02*
D03*
X1077000D02*
D03*
X1073000D02*
D03*
X1069000D02*
D03*
Y1171000D02*
D03*
X1073000D02*
D03*
X1077000D02*
D03*
X1081000D02*
D03*
X1087000Y1301000D02*
D03*
X1083000D02*
D03*
X1079000D02*
D03*
X1075000D02*
D03*
Y1293000D02*
D03*
X1079000D02*
D03*
X1083000D02*
D03*
X1087000D02*
D03*
Y1242000D02*
D03*
X1083000D02*
D03*
X1079000D02*
D03*
X1075000D02*
D03*
Y1234000D02*
D03*
X1079000D02*
D03*
X1083000D02*
D03*
X1087000D02*
D03*
D107*
X1099500Y905000D02*
D03*
X1006500D02*
D03*
D108*
X1140875Y1342875D02*
D03*
Y1313875D02*
D03*
X1165875D02*
D03*
Y1342875D02*
D03*
D109*
X1163375Y1340875D02*
D03*
Y1315875D02*
D03*
X1143375D02*
D03*
Y1340875D02*
D03*
D110*
X1145375Y1338375D02*
D03*
Y1318375D02*
D03*
X1161375D02*
D03*
Y1338375D02*
D03*
D111*
X832500Y620000D02*
D03*
X827500D02*
D03*
X822500D02*
D03*
X817500D02*
D03*
X812500D02*
D03*
X807500D02*
D03*
X802500D02*
D03*
X797500D02*
D03*
X792500D02*
D03*
X787500D02*
D03*
X782500D02*
D03*
X777500D02*
D03*
X772500D02*
D03*
X767500D02*
D03*
Y540000D02*
D03*
X772500D02*
D03*
X777500D02*
D03*
X782500D02*
D03*
X787500D02*
D03*
X792500D02*
D03*
X797500D02*
D03*
X802500D02*
D03*
X807500D02*
D03*
X812500D02*
D03*
X817500D02*
D03*
X822500D02*
D03*
X827500D02*
D03*
X832500D02*
D03*
X167500Y1140000D02*
D03*
X172500D02*
D03*
X177500D02*
D03*
X182500D02*
D03*
X187500D02*
D03*
X192500D02*
D03*
X197500D02*
D03*
X202500D02*
D03*
X207500D02*
D03*
X212500D02*
D03*
X217500D02*
D03*
X222500D02*
D03*
X227500D02*
D03*
X232500D02*
D03*
Y1220000D02*
D03*
X227500D02*
D03*
X222500D02*
D03*
X217500D02*
D03*
X212500D02*
D03*
X207500D02*
D03*
X202500D02*
D03*
X197500D02*
D03*
X192500D02*
D03*
X187500D02*
D03*
X182500D02*
D03*
X177500D02*
D03*
X172500D02*
D03*
X167500D02*
D03*
Y940000D02*
D03*
X172500D02*
D03*
X177500D02*
D03*
X182500D02*
D03*
X187500D02*
D03*
X192500D02*
D03*
X197500D02*
D03*
X202500D02*
D03*
X207500D02*
D03*
X212500D02*
D03*
X217500D02*
D03*
X222500D02*
D03*
X227500D02*
D03*
X232500D02*
D03*
Y1020000D02*
D03*
X227500D02*
D03*
X222500D02*
D03*
X217500D02*
D03*
X212500D02*
D03*
X207500D02*
D03*
X202500D02*
D03*
X197500D02*
D03*
X192500D02*
D03*
X187500D02*
D03*
X182500D02*
D03*
X177500D02*
D03*
X172500D02*
D03*
X167500D02*
D03*
Y740000D02*
D03*
X172500D02*
D03*
X177500D02*
D03*
X182500D02*
D03*
X187500D02*
D03*
X192500D02*
D03*
X197500D02*
D03*
X202500D02*
D03*
X207500D02*
D03*
X212500D02*
D03*
X217500D02*
D03*
X222500D02*
D03*
X227500D02*
D03*
X232500D02*
D03*
Y820000D02*
D03*
X227500D02*
D03*
X222500D02*
D03*
X217500D02*
D03*
X212500D02*
D03*
X207500D02*
D03*
X202500D02*
D03*
X197500D02*
D03*
X192500D02*
D03*
X187500D02*
D03*
X182500D02*
D03*
X177500D02*
D03*
X172500D02*
D03*
X167500D02*
D03*
Y540000D02*
D03*
X172500D02*
D03*
X177500D02*
D03*
X182500D02*
D03*
X187500D02*
D03*
X192500D02*
D03*
X197500D02*
D03*
X202500D02*
D03*
X207500D02*
D03*
X212500D02*
D03*
X217500D02*
D03*
X222500D02*
D03*
X227500D02*
D03*
X232500D02*
D03*
Y620000D02*
D03*
X227500D02*
D03*
X222500D02*
D03*
X217500D02*
D03*
X212500D02*
D03*
X207500D02*
D03*
X202500D02*
D03*
X197500D02*
D03*
X192500D02*
D03*
X187500D02*
D03*
X182500D02*
D03*
X177500D02*
D03*
X172500D02*
D03*
X167500D02*
D03*
X832500Y820000D02*
D03*
X827500D02*
D03*
X822500D02*
D03*
X817500D02*
D03*
X812500D02*
D03*
X807500D02*
D03*
X802500D02*
D03*
X797500D02*
D03*
X792500D02*
D03*
X787500D02*
D03*
X782500D02*
D03*
X777500D02*
D03*
X772500D02*
D03*
X767500D02*
D03*
Y740000D02*
D03*
X772500D02*
D03*
X777500D02*
D03*
X782500D02*
D03*
X787500D02*
D03*
X792500D02*
D03*
X797500D02*
D03*
X802500D02*
D03*
X807500D02*
D03*
X812500D02*
D03*
X817500D02*
D03*
X822500D02*
D03*
X827500D02*
D03*
X832500D02*
D03*
X432500Y620000D02*
D03*
X427500D02*
D03*
X422500D02*
D03*
X417500D02*
D03*
X412500D02*
D03*
X407500D02*
D03*
X402500D02*
D03*
X397500D02*
D03*
X392500D02*
D03*
X387500D02*
D03*
X382500D02*
D03*
X377500D02*
D03*
X372500D02*
D03*
X367500D02*
D03*
Y540000D02*
D03*
X372500D02*
D03*
X377500D02*
D03*
X382500D02*
D03*
X387500D02*
D03*
X392500D02*
D03*
X397500D02*
D03*
X402500D02*
D03*
X407500D02*
D03*
X412500D02*
D03*
X417500D02*
D03*
X422500D02*
D03*
X427500D02*
D03*
X432500D02*
D03*
Y820000D02*
D03*
X427500D02*
D03*
X422500D02*
D03*
X417500D02*
D03*
X412500D02*
D03*
X407500D02*
D03*
X402500D02*
D03*
X397500D02*
D03*
X392500D02*
D03*
X387500D02*
D03*
X382500D02*
D03*
X377500D02*
D03*
X372500D02*
D03*
X367500D02*
D03*
Y740000D02*
D03*
X372500D02*
D03*
X377500D02*
D03*
X382500D02*
D03*
X387500D02*
D03*
X392500D02*
D03*
X397500D02*
D03*
X402500D02*
D03*
X407500D02*
D03*
X412500D02*
D03*
X417500D02*
D03*
X422500D02*
D03*
X427500D02*
D03*
X432500D02*
D03*
Y1020000D02*
D03*
X427500D02*
D03*
X422500D02*
D03*
X417500D02*
D03*
X412500D02*
D03*
X407500D02*
D03*
X402500D02*
D03*
X397500D02*
D03*
X392500D02*
D03*
X387500D02*
D03*
X382500D02*
D03*
X377500D02*
D03*
X372500D02*
D03*
X367500D02*
D03*
Y940000D02*
D03*
X372500D02*
D03*
X377500D02*
D03*
X382500D02*
D03*
X387500D02*
D03*
X392500D02*
D03*
X397500D02*
D03*
X402500D02*
D03*
X407500D02*
D03*
X412500D02*
D03*
X417500D02*
D03*
X422500D02*
D03*
X427500D02*
D03*
X432500D02*
D03*
Y1220000D02*
D03*
X427500D02*
D03*
X422500D02*
D03*
X417500D02*
D03*
X412500D02*
D03*
X407500D02*
D03*
X402500D02*
D03*
X397500D02*
D03*
X392500D02*
D03*
X387500D02*
D03*
X382500D02*
D03*
X377500D02*
D03*
X372500D02*
D03*
X367500D02*
D03*
Y1140000D02*
D03*
X372500D02*
D03*
X377500D02*
D03*
X382500D02*
D03*
X387500D02*
D03*
X392500D02*
D03*
X397500D02*
D03*
X402500D02*
D03*
X407500D02*
D03*
X412500D02*
D03*
X417500D02*
D03*
X422500D02*
D03*
X427500D02*
D03*
X432500D02*
D03*
X832500Y1020000D02*
D03*
X827500D02*
D03*
X822500D02*
D03*
X817500D02*
D03*
X812500D02*
D03*
X807500D02*
D03*
X802500D02*
D03*
X797500D02*
D03*
X792500D02*
D03*
X787500D02*
D03*
X782500D02*
D03*
X777500D02*
D03*
X772500D02*
D03*
X767500D02*
D03*
Y940000D02*
D03*
X772500D02*
D03*
X777500D02*
D03*
X782500D02*
D03*
X787500D02*
D03*
X792500D02*
D03*
X797500D02*
D03*
X802500D02*
D03*
X807500D02*
D03*
X812500D02*
D03*
X817500D02*
D03*
X822500D02*
D03*
X827500D02*
D03*
X832500D02*
D03*
X567500Y1140000D02*
D03*
X572500D02*
D03*
X577500D02*
D03*
X582500D02*
D03*
X587500D02*
D03*
X592500D02*
D03*
X597500D02*
D03*
X602500D02*
D03*
X607500D02*
D03*
X612500D02*
D03*
X617500D02*
D03*
X622500D02*
D03*
X627500D02*
D03*
X632500D02*
D03*
Y1220000D02*
D03*
X627500D02*
D03*
X622500D02*
D03*
X617500D02*
D03*
X612500D02*
D03*
X607500D02*
D03*
X602500D02*
D03*
X597500D02*
D03*
X592500D02*
D03*
X587500D02*
D03*
X582500D02*
D03*
X577500D02*
D03*
X572500D02*
D03*
X567500D02*
D03*
Y940000D02*
D03*
X572500D02*
D03*
X577500D02*
D03*
X582500D02*
D03*
X587500D02*
D03*
X592500D02*
D03*
X597500D02*
D03*
X602500D02*
D03*
X607500D02*
D03*
X612500D02*
D03*
X617500D02*
D03*
X622500D02*
D03*
X627500D02*
D03*
X632500D02*
D03*
Y1020000D02*
D03*
X627500D02*
D03*
X622500D02*
D03*
X617500D02*
D03*
X612500D02*
D03*
X607500D02*
D03*
X602500D02*
D03*
X597500D02*
D03*
X592500D02*
D03*
X587500D02*
D03*
X582500D02*
D03*
X577500D02*
D03*
X572500D02*
D03*
X567500D02*
D03*
Y740000D02*
D03*
X572500D02*
D03*
X577500D02*
D03*
X582500D02*
D03*
X587500D02*
D03*
X592500D02*
D03*
X597500D02*
D03*
X602500D02*
D03*
X607500D02*
D03*
X612500D02*
D03*
X617500D02*
D03*
X622500D02*
D03*
X627500D02*
D03*
X632500D02*
D03*
Y820000D02*
D03*
X627500D02*
D03*
X622500D02*
D03*
X617500D02*
D03*
X612500D02*
D03*
X607500D02*
D03*
X602500D02*
D03*
X597500D02*
D03*
X592500D02*
D03*
X587500D02*
D03*
X582500D02*
D03*
X577500D02*
D03*
X572500D02*
D03*
X567500D02*
D03*
Y540000D02*
D03*
X572500D02*
D03*
X577500D02*
D03*
X582500D02*
D03*
X587500D02*
D03*
X592500D02*
D03*
X597500D02*
D03*
X602500D02*
D03*
X607500D02*
D03*
X612500D02*
D03*
X617500D02*
D03*
X622500D02*
D03*
X627500D02*
D03*
X632500D02*
D03*
Y620000D02*
D03*
X627500D02*
D03*
X622500D02*
D03*
X617500D02*
D03*
X612500D02*
D03*
X607500D02*
D03*
X602500D02*
D03*
X597500D02*
D03*
X592500D02*
D03*
X587500D02*
D03*
X582500D02*
D03*
X577500D02*
D03*
X572500D02*
D03*
X567500D02*
D03*
X832500Y1220000D02*
D03*
X827500D02*
D03*
X822500D02*
D03*
X817500D02*
D03*
X812500D02*
D03*
X807500D02*
D03*
X802500D02*
D03*
X797500D02*
D03*
X792500D02*
D03*
X787500D02*
D03*
X782500D02*
D03*
X777500D02*
D03*
X772500D02*
D03*
X767500D02*
D03*
Y1140000D02*
D03*
X772500D02*
D03*
X777500D02*
D03*
X782500D02*
D03*
X787500D02*
D03*
X792500D02*
D03*
X797500D02*
D03*
X802500D02*
D03*
X807500D02*
D03*
X812500D02*
D03*
X817500D02*
D03*
X822500D02*
D03*
X827500D02*
D03*
X832500D02*
D03*
D112*
X760000Y612500D02*
D03*
Y607500D02*
D03*
Y602500D02*
D03*
Y597500D02*
D03*
Y592500D02*
D03*
Y587500D02*
D03*
Y582500D02*
D03*
Y577500D02*
D03*
Y572500D02*
D03*
Y567500D02*
D03*
Y562500D02*
D03*
Y557500D02*
D03*
Y552500D02*
D03*
Y547500D02*
D03*
X840000D02*
D03*
Y552500D02*
D03*
Y557500D02*
D03*
Y562500D02*
D03*
Y567500D02*
D03*
Y572500D02*
D03*
Y577500D02*
D03*
Y582500D02*
D03*
Y587500D02*
D03*
Y592500D02*
D03*
Y597500D02*
D03*
Y602500D02*
D03*
Y607500D02*
D03*
Y612500D02*
D03*
X240000Y1147500D02*
D03*
Y1152500D02*
D03*
Y1157500D02*
D03*
Y1162500D02*
D03*
Y1167500D02*
D03*
Y1172500D02*
D03*
Y1177500D02*
D03*
Y1182500D02*
D03*
Y1187500D02*
D03*
Y1192500D02*
D03*
Y1197500D02*
D03*
Y1202500D02*
D03*
Y1207500D02*
D03*
Y1212500D02*
D03*
X160000D02*
D03*
Y1207500D02*
D03*
Y1202500D02*
D03*
Y1197500D02*
D03*
Y1192500D02*
D03*
Y1187500D02*
D03*
Y1182500D02*
D03*
Y1177500D02*
D03*
Y1172500D02*
D03*
Y1167500D02*
D03*
Y1162500D02*
D03*
Y1157500D02*
D03*
Y1152500D02*
D03*
Y1147500D02*
D03*
X240000Y947500D02*
D03*
Y952500D02*
D03*
Y957500D02*
D03*
Y962500D02*
D03*
Y967500D02*
D03*
Y972500D02*
D03*
Y977500D02*
D03*
Y982500D02*
D03*
Y987500D02*
D03*
Y992500D02*
D03*
Y997500D02*
D03*
Y1002500D02*
D03*
Y1007500D02*
D03*
Y1012500D02*
D03*
X160000D02*
D03*
Y1007500D02*
D03*
Y1002500D02*
D03*
Y997500D02*
D03*
Y992500D02*
D03*
Y987500D02*
D03*
Y982500D02*
D03*
Y977500D02*
D03*
Y972500D02*
D03*
Y967500D02*
D03*
Y962500D02*
D03*
Y957500D02*
D03*
Y952500D02*
D03*
Y947500D02*
D03*
X240000Y747500D02*
D03*
Y752500D02*
D03*
Y757500D02*
D03*
Y762500D02*
D03*
Y767500D02*
D03*
Y772500D02*
D03*
Y777500D02*
D03*
Y782500D02*
D03*
Y787500D02*
D03*
Y792500D02*
D03*
Y797500D02*
D03*
Y802500D02*
D03*
Y807500D02*
D03*
Y812500D02*
D03*
X160000D02*
D03*
Y807500D02*
D03*
Y802500D02*
D03*
Y797500D02*
D03*
Y792500D02*
D03*
Y787500D02*
D03*
Y782500D02*
D03*
Y777500D02*
D03*
Y772500D02*
D03*
Y767500D02*
D03*
Y762500D02*
D03*
Y757500D02*
D03*
Y752500D02*
D03*
Y747500D02*
D03*
X240000Y547500D02*
D03*
Y552500D02*
D03*
Y557500D02*
D03*
Y562500D02*
D03*
Y567500D02*
D03*
Y572500D02*
D03*
Y577500D02*
D03*
Y582500D02*
D03*
Y587500D02*
D03*
Y592500D02*
D03*
Y597500D02*
D03*
Y602500D02*
D03*
Y607500D02*
D03*
Y612500D02*
D03*
X160000D02*
D03*
Y607500D02*
D03*
Y602500D02*
D03*
Y597500D02*
D03*
Y592500D02*
D03*
Y587500D02*
D03*
Y582500D02*
D03*
Y577500D02*
D03*
Y572500D02*
D03*
Y567500D02*
D03*
Y562500D02*
D03*
Y557500D02*
D03*
Y552500D02*
D03*
Y547500D02*
D03*
X760000Y812500D02*
D03*
Y807500D02*
D03*
Y802500D02*
D03*
Y797500D02*
D03*
Y792500D02*
D03*
Y787500D02*
D03*
Y782500D02*
D03*
Y777500D02*
D03*
Y772500D02*
D03*
Y767500D02*
D03*
Y762500D02*
D03*
Y757500D02*
D03*
Y752500D02*
D03*
Y747500D02*
D03*
X840000D02*
D03*
Y752500D02*
D03*
Y757500D02*
D03*
Y762500D02*
D03*
Y767500D02*
D03*
Y772500D02*
D03*
Y777500D02*
D03*
Y782500D02*
D03*
Y787500D02*
D03*
Y792500D02*
D03*
Y797500D02*
D03*
Y802500D02*
D03*
Y807500D02*
D03*
Y812500D02*
D03*
X360000Y612500D02*
D03*
Y607500D02*
D03*
Y602500D02*
D03*
Y597500D02*
D03*
Y592500D02*
D03*
Y587500D02*
D03*
Y582500D02*
D03*
Y577500D02*
D03*
Y572500D02*
D03*
Y567500D02*
D03*
Y562500D02*
D03*
Y557500D02*
D03*
Y552500D02*
D03*
Y547500D02*
D03*
X440000D02*
D03*
Y552500D02*
D03*
Y557500D02*
D03*
Y562500D02*
D03*
Y567500D02*
D03*
Y572500D02*
D03*
Y577500D02*
D03*
Y582500D02*
D03*
Y587500D02*
D03*
Y592500D02*
D03*
Y597500D02*
D03*
Y602500D02*
D03*
Y607500D02*
D03*
Y612500D02*
D03*
X360000Y812500D02*
D03*
Y807500D02*
D03*
Y802500D02*
D03*
Y797500D02*
D03*
Y792500D02*
D03*
Y787500D02*
D03*
Y782500D02*
D03*
Y777500D02*
D03*
Y772500D02*
D03*
Y767500D02*
D03*
Y762500D02*
D03*
Y757500D02*
D03*
Y752500D02*
D03*
Y747500D02*
D03*
X440000D02*
D03*
Y752500D02*
D03*
Y757500D02*
D03*
Y762500D02*
D03*
Y767500D02*
D03*
Y772500D02*
D03*
Y777500D02*
D03*
Y782500D02*
D03*
Y787500D02*
D03*
Y792500D02*
D03*
Y797500D02*
D03*
Y802500D02*
D03*
Y807500D02*
D03*
Y812500D02*
D03*
X360000Y1012500D02*
D03*
Y1007500D02*
D03*
Y1002500D02*
D03*
Y997500D02*
D03*
Y992500D02*
D03*
Y987500D02*
D03*
Y982500D02*
D03*
Y977500D02*
D03*
Y972500D02*
D03*
Y967500D02*
D03*
Y962500D02*
D03*
Y957500D02*
D03*
Y952500D02*
D03*
Y947500D02*
D03*
X440000D02*
D03*
Y952500D02*
D03*
Y957500D02*
D03*
Y962500D02*
D03*
Y967500D02*
D03*
Y972500D02*
D03*
Y977500D02*
D03*
Y982500D02*
D03*
Y987500D02*
D03*
Y992500D02*
D03*
Y997500D02*
D03*
Y1002500D02*
D03*
Y1007500D02*
D03*
Y1012500D02*
D03*
X360000Y1212500D02*
D03*
Y1207500D02*
D03*
Y1202500D02*
D03*
Y1197500D02*
D03*
Y1192500D02*
D03*
Y1187500D02*
D03*
Y1182500D02*
D03*
Y1177500D02*
D03*
Y1172500D02*
D03*
Y1167500D02*
D03*
Y1162500D02*
D03*
Y1157500D02*
D03*
Y1152500D02*
D03*
Y1147500D02*
D03*
X440000D02*
D03*
Y1152500D02*
D03*
Y1157500D02*
D03*
Y1162500D02*
D03*
Y1167500D02*
D03*
Y1172500D02*
D03*
Y1177500D02*
D03*
Y1182500D02*
D03*
Y1187500D02*
D03*
Y1192500D02*
D03*
Y1197500D02*
D03*
Y1202500D02*
D03*
Y1207500D02*
D03*
Y1212500D02*
D03*
X760000Y1012500D02*
D03*
Y1007500D02*
D03*
Y1002500D02*
D03*
Y997500D02*
D03*
Y992500D02*
D03*
Y987500D02*
D03*
Y982500D02*
D03*
Y977500D02*
D03*
Y972500D02*
D03*
Y967500D02*
D03*
Y962500D02*
D03*
Y957500D02*
D03*
Y952500D02*
D03*
Y947500D02*
D03*
X840000D02*
D03*
Y952500D02*
D03*
Y957500D02*
D03*
Y962500D02*
D03*
Y967500D02*
D03*
Y972500D02*
D03*
Y977500D02*
D03*
Y982500D02*
D03*
Y987500D02*
D03*
Y992500D02*
D03*
Y997500D02*
D03*
Y1002500D02*
D03*
Y1007500D02*
D03*
Y1012500D02*
D03*
X640000Y1147500D02*
D03*
Y1152500D02*
D03*
Y1157500D02*
D03*
Y1162500D02*
D03*
Y1167500D02*
D03*
Y1172500D02*
D03*
Y1177500D02*
D03*
Y1182500D02*
D03*
Y1187500D02*
D03*
Y1192500D02*
D03*
Y1197500D02*
D03*
Y1202500D02*
D03*
Y1207500D02*
D03*
Y1212500D02*
D03*
X560000D02*
D03*
Y1207500D02*
D03*
Y1202500D02*
D03*
Y1197500D02*
D03*
Y1192500D02*
D03*
Y1187500D02*
D03*
Y1182500D02*
D03*
Y1177500D02*
D03*
Y1172500D02*
D03*
Y1167500D02*
D03*
Y1162500D02*
D03*
Y1157500D02*
D03*
Y1152500D02*
D03*
Y1147500D02*
D03*
X640000Y947500D02*
D03*
Y952500D02*
D03*
Y957500D02*
D03*
Y962500D02*
D03*
Y967500D02*
D03*
Y972500D02*
D03*
Y977500D02*
D03*
Y982500D02*
D03*
Y987500D02*
D03*
Y992500D02*
D03*
Y997500D02*
D03*
Y1002500D02*
D03*
Y1007500D02*
D03*
Y1012500D02*
D03*
X560000D02*
D03*
Y1007500D02*
D03*
Y1002500D02*
D03*
Y997500D02*
D03*
Y992500D02*
D03*
Y987500D02*
D03*
Y982500D02*
D03*
Y977500D02*
D03*
Y972500D02*
D03*
Y967500D02*
D03*
Y962500D02*
D03*
Y957500D02*
D03*
Y952500D02*
D03*
Y947500D02*
D03*
X640000Y747500D02*
D03*
Y752500D02*
D03*
Y757500D02*
D03*
Y762500D02*
D03*
Y767500D02*
D03*
Y772500D02*
D03*
Y777500D02*
D03*
Y782500D02*
D03*
Y787500D02*
D03*
Y792500D02*
D03*
Y797500D02*
D03*
Y802500D02*
D03*
Y807500D02*
D03*
Y812500D02*
D03*
X560000D02*
D03*
Y807500D02*
D03*
Y802500D02*
D03*
Y797500D02*
D03*
Y792500D02*
D03*
Y787500D02*
D03*
Y782500D02*
D03*
Y777500D02*
D03*
Y772500D02*
D03*
Y767500D02*
D03*
Y762500D02*
D03*
Y757500D02*
D03*
Y752500D02*
D03*
Y747500D02*
D03*
X640000Y547500D02*
D03*
Y552500D02*
D03*
Y557500D02*
D03*
Y562500D02*
D03*
Y567500D02*
D03*
Y572500D02*
D03*
Y577500D02*
D03*
Y582500D02*
D03*
Y587500D02*
D03*
Y592500D02*
D03*
Y597500D02*
D03*
Y602500D02*
D03*
Y607500D02*
D03*
Y612500D02*
D03*
X560000D02*
D03*
Y607500D02*
D03*
Y602500D02*
D03*
Y597500D02*
D03*
Y592500D02*
D03*
Y587500D02*
D03*
Y582500D02*
D03*
Y577500D02*
D03*
Y572500D02*
D03*
Y567500D02*
D03*
Y562500D02*
D03*
Y557500D02*
D03*
Y552500D02*
D03*
Y547500D02*
D03*
X760000Y1212500D02*
D03*
Y1207500D02*
D03*
Y1202500D02*
D03*
Y1197500D02*
D03*
Y1192500D02*
D03*
Y1187500D02*
D03*
Y1182500D02*
D03*
Y1177500D02*
D03*
Y1172500D02*
D03*
Y1167500D02*
D03*
Y1162500D02*
D03*
Y1157500D02*
D03*
Y1152500D02*
D03*
Y1147500D02*
D03*
X840000D02*
D03*
Y1152500D02*
D03*
Y1157500D02*
D03*
Y1162500D02*
D03*
Y1167500D02*
D03*
Y1172500D02*
D03*
Y1177500D02*
D03*
Y1182500D02*
D03*
Y1187500D02*
D03*
Y1192500D02*
D03*
Y1197500D02*
D03*
Y1202500D02*
D03*
Y1207500D02*
D03*
Y1212500D02*
D03*
D113*
X800000Y580000D02*
D03*
X200000Y1180000D02*
D03*
Y980000D02*
D03*
Y780000D02*
D03*
Y580000D02*
D03*
X800000Y780000D02*
D03*
X400000Y580000D02*
D03*
Y780000D02*
D03*
Y980000D02*
D03*
Y1180000D02*
D03*
X800000Y980000D02*
D03*
X600000Y1180000D02*
D03*
Y980000D02*
D03*
Y780000D02*
D03*
Y580000D02*
D03*
X800000Y1180000D02*
D03*
D114*
X1164150Y276950D02*
D03*
Y234950D02*
D03*
Y192950D02*
D03*
X1109150Y276950D02*
D03*
Y234950D02*
D03*
Y192950D02*
D03*
X1162880Y1563460D02*
D03*
Y1521460D02*
D03*
Y1479460D02*
D03*
X1107880Y1563460D02*
D03*
Y1521460D02*
D03*
Y1479460D02*
D03*
D115*
X974362Y1143895D02*
D03*
Y1118495D02*
D03*
Y1093095D02*
D03*
Y1067695D02*
D03*
Y1042295D02*
D03*
D116*
X1148000Y843000D02*
D03*
Y799000D02*
D03*
D117*
X1159000Y735000D02*
D03*
Y700000D02*
D03*
Y665000D02*
D03*
D118*
X87500Y467500D02*
D03*
X1125000Y355000D02*
D03*
X75000Y1405000D02*
D03*
X500000Y880000D02*
D03*
X87500Y1292500D02*
D03*
X912500Y467500D02*
D03*
X1125000Y1405000D02*
D03*
X75000Y355000D02*
D03*
X912500Y1292500D02*
D03*
X50000Y50000D02*
D03*
X1150000D02*
D03*
X50000Y1710000D02*
D03*
X1150000D02*
D03*
M02*
