M48
;Layer_Color=9474304
;FILE_FORMAT=4:4
METRIC,LZ
;TYPE=PLATED
T1F00S00C0.3000
T2F00S00C1.1500
T3F00S00C1.2000
T4F00S00C1.8000
T5F00S00C4.0000
%
T01
X0014Y00013
X0016
X0018
X002
X0022
Y0003
X0024
Y00013
X0026
Y0003
X0028
Y00013
X003
Y0003
X0032
Y00013
X0034
Y0003
X0036
Y00013
X0038
X004
X0042
X0044
X0046
Y0003
X0048
Y00013
X005
Y0003
X0052
Y00013
X0054
Y0003
X0056
Y00013
X0058
Y0003
X006
Y00013
X0062
X0054Y0005
X0052
X005
X0050625Y00087
X0051225Y00087
X0051825Y00087
X0052425Y00087
X0053025
X0053625
X0054225
X00542Y001025
X00536
X0053
X00524
X00518Y001025
X00512Y001025
X00506Y001025
X00302Y001025
X00296
X0029
X00284
X00278Y001025
X00272Y001025
X00266Y001025
X0026625Y00087
X0027225Y00087
X0027825Y00087
X0028425Y00087
X0029025
X0029625
X0030225
X003Y0005
X0028
X0026
X0064Y00013
X0066
X0068
X007
Y0003
X0072
Y00013
X0074
Y0003
X0076
Y00013
X0078
Y0003
X008
Y00013
X0082
Y0003
X0084
Y00013
X0086
X0088
X009
X0092
X0094
Y0003
X0096
Y00013
X0098
Y0003
Y0005
X01
Y0003
Y00013
X0099825Y00087
X0100425Y00087
X0101025
X0101625
X01016Y001025
X0101
X01004
X00998Y001025
X00992Y001025
X00986Y001025
X0098625Y00087
X0099225Y00087
X0078225
X0077625
X0077025
X0076425
X0075825Y00087
X0075225Y00087
X0074625Y00087
X00746Y001025
X00752Y001025
X00758Y001025
X00764Y001025
X0077
X00776
X00782
X0078Y0005
X0076
X0074
X0102
Y0003
Y00013
X0104
Y0003
X0102225Y00087
X01022Y001025
X01022Y00426
Y00434
X01078Y00513
X0095Y00362
Y00354
Y00346
Y00338
Y0033
Y00322
X00944Y00305
X00936
X00928
X0092
X00912
X00904
X00908Y00299
X00916
X00924
X00932
X0094
X00936Y00293
X00944
X0094Y00287
X00932
X00924
X00916
X00908
X00904Y00293
X00912
X0092
X00928
X00947Y00263
Y00255
Y00247
Y00239
X00955
Y00247
Y00255
Y00263
Y00231
Y00223
Y00215
Y00207
Y00199
Y00191
Y00183
Y00175
Y00167
Y00159
Y00151
X00947
Y00159
Y00167
Y00175
Y00183
Y00191
Y00199
Y00207
Y00215
Y00223
Y00231
X00987Y00233
X00995Y00236
Y00244
Y00228
Y0022
Y00212
Y00204
Y00196
X00987
X01003
X01011
Y00204
Y00212
Y0022
Y00228
Y00236
Y00244
X01003Y00233
Y00218
X00987
X00995Y00188
Y0018
Y00172
Y00164
Y00156
X00987Y00162
Y00177
X01003
X01011Y0018
Y00172
Y00164
Y00156
X01003Y00162
X01011Y00188
X00915Y00146
X00911Y00138
X00914Y00119
X00843Y0015
X00835
Y00158
X00843
Y00166
X00835
Y00174
Y00182
X00843
Y00174
Y0019
X00835
Y00198
X00843
Y00206
X00835
Y00214
X00843
Y00222
X00835
Y0023
X00843
Y00238
X00835
Y00246
X00843
Y00254
X00835
Y00262
X00843
Y0027
X00835
Y00278
X00843
Y00286
X00835
Y00294
X00843
Y00302
X00835
Y0031
X00843
Y00318
X00835
Y00326
X00843
Y00334
X00835
Y00342
X00843
Y0035
X00835
X00896Y00354
Y00346
Y00338
Y0033
Y00322
Y0036225
X0082Y00414
X0078Y00454
X0074Y00415
X007Y00454
X0066Y00415
X00656Y0036225
Y00354
Y00346
Y00338
Y0033
Y00322
X00664Y00305
X00672
X0068
X00688
X00696
X00704
X007Y00299
X00692
X00684
X00676
X00668
X00664Y00293
X00672
X0068
X00688
X00696
X00704
X007Y00287
X00692
X00684
X00676
X00668
X00707Y00263
X00715
Y00255
Y00247
Y00239
X00707
Y00231
Y00223
X00715
Y00231
Y00215
X00707
Y00207
Y00199
X00715
Y00207
Y00191
X00707
Y00183
Y00175
X00715
Y00183
Y00167
Y00159
X00707
Y00167
Y00151
X00715
X00747Y00162
X00755Y00164
Y00172
Y0018
Y00188
Y00196
Y00204
Y00212
Y0022
Y00228
Y00236
Y00244
X00771
Y00236
Y00228
Y0022
Y00212
Y00204
Y00196
Y00188
Y0018
Y00172
Y00164
Y00156
X00763Y00162
X00755Y00156
X00747Y00177
X00763
Y00196
X00747
Y00218
Y00233
X00763
Y00218
X00707Y00247
Y00255
X0071Y00322
Y0033
Y00338
Y00346
Y00354
Y00362
X00743Y00513
X00675Y00146
X00671Y00138
X00674Y00119
X00603Y0015
X00595
Y00158
Y00166
X00603
Y00158
Y00174
Y00182
X00595
Y00174
Y0019
X00603
Y00198
Y00206
X00595
Y00198
Y00214
X00603
Y00222
Y0023
X00595
Y00222
Y00238
Y00246
X00603
Y00238
Y00254
X00595
Y00262
Y0027
X00603
Y00262
Y00278
X00595
Y00286
Y00294
X00603
Y00286
Y00302
Y0031
X00595
Y00302
Y00318
X00603
Y00326
Y00334
X00595
Y00326
Y00342
X00603
Y0035
X00595
X0058Y00414
X0054Y00454
X005Y00415
X0046Y00454
X0042Y00415
X00416Y0036225
Y00354
Y00346
Y00338
Y0033
Y00322
X00424Y00305
X00432
X0044
X00448
X00456
X00464
X0046Y00299
X00452
X00444
X00436
X00428
X00432Y00293
X0044
X00448
X00456
X00464
X0046Y00287
X00452
X00444
X00436
X00428
X00424Y00293
X00363Y00295
X00355
Y00287
X00363
Y00279
X00355
Y00271
X00363
Y00263
X00355
Y00255
X00363
Y00247
X00355
Y00239
X00363
Y00231
X00355
Y00223
X00363
Y00215
X00355
Y00207
X00363
Y00199
X00355
Y00191
X00363
Y00183
X00355
Y00175
X00363
Y00167
X00355
Y00159
X00363
Y00151
X00355
X00291Y00156
Y00164
Y00172
Y0018
Y00188
Y00196
Y00204
Y00212
Y0022
Y00228
Y00236
Y00244
X00275
Y00236
Y00228
Y0022
Y00212
Y00204
Y00196
X00267
X00283
X00275Y00188
Y0018
Y00172
Y00164
Y00156
X00267Y00162
Y00177
X00283
Y00162
X00235Y00159
X00227
Y00167
X00235
Y00175
X00227
Y00183
X00235
Y00191
X00227
Y00199
X00235
Y00207
X00227
Y00215
X00235
Y00223
X00227
Y00231
X00235
Y00239
X00227
Y00247
X00235
Y00255
X00227
Y00263
X00235
X00267Y00233
Y00218
X00283
Y00233
X00235Y00151
X00227
X0023Y00322
Y0033
Y00338
Y00346
Y00354
Y00362
X0026Y00414
X003Y00454
X0038
X0034Y00414
X00355Y00351
X00363
Y00343
X00355
Y00335
X00363
Y00327
X00355
Y00319
X00363
Y00311
X00355
Y00303
X00363
X0047Y00322
Y0033
Y00338
Y00346
Y00354
Y00362
X00467Y00263
X00475
Y00255
X00467
Y00247
X00475
Y00239
X00467
Y00231
X00475
Y00223
X00467
Y00215
X00475
Y00207
X00467
Y00199
X00475
Y00191
X00467
Y00183
X00475
Y00175
X00467
Y00167
X00475
Y00159
X00467
Y00151
X00475
X00507Y00162
X00515Y00164
Y00156
X00523Y00162
X00531Y00164
Y00172
Y0018
Y00188
Y00196
Y00204
Y00212
Y0022
Y00228
Y00236
Y00244
X00515
Y00236
Y00228
Y0022
Y00212
Y00204
Y00196
X00507
X00515Y00188
Y0018
Y00172
X00507Y00177
X00523
Y00196
Y00218
Y00233
X00507
Y00218
X00531Y00156
X00435Y00146
X00431Y00138
X00434Y00119
X00343Y00513
X0062Y00454
X0022
X0018Y00414
X00176Y0036225
Y00354
Y00346
Y00338
Y0033
Y00322
X00183Y00305
X00191
X00199
X00207
X00215
X00223
X00219Y00299
X00211
X00203
X00195
X00187
X00191Y00293
X00199
X00207
X00215
X00223
X00219Y00287
X00211
X00203
X00195
X00187
X00183Y00293
X00122Y00295
Y00287
X00114
Y00295
Y00303
X00122
Y00311
X00114
Y00319
X00122
Y00327
X00114
Y00335
X00122
Y00343
X00114
Y00351
X00122
Y00279
X00114
Y00271
Y00263
X00122
Y00271
Y00255
Y00247
X00114
Y00255
Y00239
X00122
Y00231
Y00223
X00114
Y00231
Y00215
X00122
Y00207
Y00199
X00114
Y00207
Y00191
X00122
Y00183
Y00175
X00114
Y00183
Y00167
Y00159
X00122
Y00167
Y00151
X00114
X00195Y00146
X00191Y00138
X00194Y00119
X0019675Y0055
X0020325
X0021
X0021675
X0022325
X0021Y0055675
Y0056325
X0021Y0057
X0020325
X0019675
X0019
X0018325
X0017675
X0017
X0017Y0057675
Y0058325
X0017Y0059
Y0059675
Y0060325
Y0061
X0017675
X0018325
X0019
X0019675
X0020325
X0021
Y0060325
Y0059675
Y0059
X0020325
X0019675
X0019
X0019Y0059675
Y0060325
X0018325Y0059
X0017675
X0019Y0058325
Y0057675
Y0056325
Y0055675
Y0055
X0018325
X0017675
X0017
X0017Y0055675
Y0056325
X00151Y00564
Y00556
Y00548
Y0054
Y00572
Y0058
Y00588
Y00596
Y00604
Y00612
Y0062
X00143Y00646
X001Y00632
Y00624
Y00616
Y00608
Y00592
Y00584
Y00576
Y00568
Y00552
Y00544
Y00536
Y00528
X00048
Y00536
Y00544
Y00552
Y00566
Y00574
Y00582
Y0059
Y00606
Y00614
Y00622
Y0063
X00047Y0073
Y00738
Y00746
Y00754
Y00768
Y00776
Y00784
Y00792
Y00808
Y00816
Y00824
Y00832
X001
Y00824
Y00816
Y00808
Y00792
Y00784
Y00776
Y00768
Y00752
Y00744
Y00736
Y00728
Y0068
X00143Y00714
X00151Y0074
Y00748
Y00756
Y00764
Y00772
Y0078
Y00788
Y00796
Y00804
Y00812
Y0082
X0017Y0081
Y0080325
Y0079675
Y0079
X0017675
X0018325
X0019
X0019675
X0020325
X0021
Y0079675
Y0080325
Y0081
X0020325
X0019675
X0019
X0019Y0080325
Y0079675
X0019Y0078325
Y0077675
Y0077
X0018325
X0017675
X0017
X0017Y0077675
Y0078325
Y0076325
Y0075675
X0017Y0075
X0017675
X0018325
X0019
Y0075675
Y0076325
X0019675Y0077
X0020325
X0021
X0021675
X0022325
X0021Y0077675
X0021Y0078325
X0021675Y0079
X0022325
Y0081
X0021675
X0018325
X0017675
X00143Y00846
X001Y0088
X0019675Y0075
X0020325
X0021
X0021675
X0022325
X0021Y0075675
Y0076325
X0021675Y0061
X0022325
Y0059
X0021675
X0021Y0058325
X0021Y0057675
X0021675Y0057
X0022325
X00143Y00514
X0023Y0055
Y0055675
Y0056325
Y0057
Y0057675
Y0058325
Y0059
Y0059675
Y0060325
Y0061
X00249Y00612
Y00604
Y00596
Y00588
Y0058
Y00572
Y00564
Y00556
Y00548
Y0054
X003Y00544
Y00552
Y00568
Y00576
Y00584
Y00592
Y00608
Y00616
Y00624
Y00632
Y0068
Y00728
Y00736
Y00744
Y00752
Y00768
Y00776
Y00784
Y00792
Y00808
Y00816
Y00824
Y00832
Y0088
X0025
X00249Y0082
Y00812
Y00804
Y00796
Y00788
Y0078
Y00772
Y00764
Y00756
Y00748
Y0074
X0023Y0075
Y0075675
Y0076325
Y0077
Y0077675
Y0078325
Y0079
Y0079675
Y0080325
Y0081
X00351Y00812
Y00804
Y00796
Y00788
Y0078
Y00772
Y00764
Y00756
Y00748
Y0074
X0037Y0075
X0037675
X0038325
X0039
Y0075675
Y0076325
Y0077
X0038325
X0037675
X0037
X0037Y0077675
Y0078325
X0037Y0079
Y0079675
Y0080325
Y0081
X0037675
X0038325
X0039
X0039675
X0040325
X0041
Y0080325
Y0079675
Y0079
X0040325
X0039675
X0039
X0039Y0079675
Y0080325
X0038325Y0079
X0037675
X0039Y0078325
Y0077675
X0039675Y0077
X0040325
X0041
X0041675
X0042325
X0043
Y0077675
Y0078325
Y0079
Y0079675
Y0080325
Y0081
X0042325
X0041675
Y0079
X0042325
X0041Y0078325
X0041Y0077675
Y0076325
Y0075675
X0041Y0075
X0040325
X0039675
X0041675
X0042325
X0043
Y0075675
Y0076325
X00449Y00764
Y00756
Y00748
Y0074
Y00772
Y0078
Y00788
Y00796
Y00804
Y00812
Y0082
X00457Y00846
X005Y00832
Y00824
Y00816
Y00808
Y00792
Y00784
Y00776
Y00768
Y00752
Y00744
Y00736
Y00728
Y0068
Y00632
Y00624
Y00616
Y00608
Y00592
Y00584
Y00576
Y00568
Y00552
Y00544
Y00536
Y00528
X00543Y00514
X00551Y0054
Y00548
Y00556
Y00564
Y00572
Y0058
Y00588
Y00596
Y00604
Y00612
Y0062
X0057Y0061
Y0060325
Y0059675
Y0059
X0057675
X0058325
X0059
X0059675
X0060325
X0061
Y0059675
Y0060325
Y0061
X0060325
X0059675
X0059
X0059Y0060325
Y0059675
X0059Y0058325
Y0057675
Y0057
X0058325
X0057675
X0057
X0057Y0057675
Y0058325
Y0056325
Y0055675
X0057Y0055
X0057675
X0058325
X0059
Y0055675
Y0056325
X0059675Y0057
X0060325
X0061
X0061675
X0061Y0057675
X0061Y0058325
X0061675Y0059
Y0061
X0058325
X0057675
X00543Y00646
Y00714
X00551Y0074
Y00748
Y00756
Y00764
Y00772
Y0078
Y00788
Y00796
Y00804
Y00812
Y0082
X0057Y0081
Y0080325
Y0079675
Y0079
X0057675
X0058325
X0059
X0059675
X0060325
X0061
Y0079675
Y0080325
Y0081
X0060325
X0059675
X0059
X0059Y0080325
Y0079675
X0059Y0078325
Y0077675
Y0077
X0058325
X0057675
X0057
X0057Y0077675
Y0078325
Y0076325
Y0075675
X0057Y0075
X0057675
X0058325
X0059
Y0075675
Y0076325
X0059675Y0077
X0060325
X0061
X0061675
X0061Y0077675
X0061Y0078325
X0061675Y0079
Y0081
X0058325
X0057675
X00543Y00846
X0059675Y0075
X0060325
X0061
X0061675
X0061Y0075675
Y0076325
Y0056325
Y0055675
X0061Y0055
X0060325
X0059675
X0061675
X00449Y00548
Y0054
Y00556
Y00564
Y00572
Y0058
Y00588
Y00596
Y00604
Y00612
Y0062
X0043Y0061
Y0060325
Y0059675
Y0059
X0042325
X0041675
X0041
Y0059675
Y0060325
Y0061
X0040325
X0039675
X0039
X0039Y0060325
Y0059675
X0039Y0059
X0039675
X0040325
X0041Y0058325
X0041Y0057675
X0041Y0057
X0040325
X0039675
X0039
X0038325
X0037675
X0037
X0037Y0057675
Y0058325
X0037Y0059
Y0059675
Y0060325
Y0061
X0037675
X0038325
Y0059
X0037675
X0039Y0058325
Y0057675
Y0056325
Y0055675
Y0055
X0038325
X0037675
X0037
X0037Y0055675
Y0056325
X00351Y00564
Y00556
Y00548
Y0054
Y00572
Y0058
Y00588
Y00596
Y00604
Y00612
Y0062
X00343Y00647
Y00713
X0037Y0075675
Y0076325
X00351Y0082
X00343Y00847
X00457Y00714
X0045Y0068
X0042325Y0061
X0041675
Y0057
X0042325
X0043
Y0057675
Y0058325
Y0056325
Y0055675
Y0055
X0042325
X0041675
X0041
X0040325
X0039675
X0041Y0055675
Y0056325
X003Y00536
Y00528
X00249Y0062
X0025Y0068
X0065
X007
Y00728
Y00736
Y00744
Y00752
Y00768
Y00776
Y00784
Y00792
Y00808
Y00816
Y00824
Y00832
Y0088
X0065
X00649Y0082
Y00812
Y00804
Y00796
Y00788
Y0078
Y00772
Y00764
Y00756
Y00748
Y0074
X0063Y0075
X0062325
X0063Y0075675
Y0076325
Y0077
X0062325
X0063Y0077675
Y0078325
Y0079
Y0079675
Y0080325
Y0081
X0062325
Y0079
X00751Y00788
Y0078
Y00772
Y00764
Y00756
Y00748
Y0074
X0077Y0075
X0077675
X0078325
X0079
Y0075675
Y0076325
Y0077
X0078325
X0077675
X0077
X0077Y0077675
Y0078325
X0077Y0079
Y0079675
Y0080325
Y0081
X0077675
X0078325
X0079
X0079675
X0080325
X0081
Y0080325
Y0079675
Y0079
X0080325
X0079675
X0079
X0079Y0079675
Y0080325
X0078325Y0079
X0077675
X0079Y0078325
Y0077675
X0079675Y0077
X0080325
X0081
X0081675
X0082325
X0083
Y0077675
Y0078325
Y0079
Y0079675
Y0080325
Y0081
X0082325
X0081675
Y0079
X0082325
X0081Y0078325
X0081Y0077675
Y0076325
Y0075675
X0081Y0075
X0080325
X0079675
X0081675
X0082325
X0083
Y0075675
Y0076325
X00849Y00764
Y00756
Y00748
Y0074
Y00772
Y0078
Y00788
Y00796
Y00804
Y00812
Y0082
X00857Y00846
X009Y00832
Y00824
Y00816
Y00808
Y00792
Y00784
Y00776
Y00768
Y00752
Y00744
Y00736
Y00728
Y0068
X00938Y00677
Y00685
Y00693
Y00701
X00953Y00631
Y00623
Y00615
Y00607
Y00591
Y00583
Y00575
Y00567
Y00553
Y00545
Y00537
Y00529
X009Y00528
Y00536
Y00544
Y00552
Y00568
Y00576
Y00584
Y00592
Y00608
Y00616
Y00624
Y00632
X00857Y00646
X00849Y0062
Y00612
Y00604
Y00596
Y00588
Y0058
Y00572
Y00564
Y00556
Y00548
Y0054
X0083Y0055
X0082325
X0081675
X0081
X0080325
X0079675
X0079
X0078325
X0077675
X0077
X0077Y0055675
Y0056325
X0077Y0057
X0077675
X0078325
X0079
X0079675
X0080325
X0081
X0081675
X0082325
X0083
Y0057675
Y0058325
Y0059
Y0059675
Y0060325
Y0061
X0082325
X0081675
X0081
Y0060325
Y0059675
Y0059
X0080325
X0079675
X0079
X0079Y0059675
Y0060325
X0079Y0061
X0079675
X0080325
X0078325
X0077675
X0077
Y0060325
Y0059675
Y0059
X0077675
X0078325
X0079Y0058325
Y0057675
Y0056325
Y0055675
X0081
Y0056325
Y0057675
X0081Y0058325
X0081675Y0059
X0082325
X0083Y0056325
Y0055675
X00857Y00514
X00751Y0054
Y00548
Y00556
Y00564
Y00572
Y0058
Y00588
Y00596
Y00604
Y00612
Y0062
X00743Y00647
X007Y00632
Y00624
Y00616
Y00608
Y00592
Y00584
Y00576
Y00568
Y00552
Y00544
Y00536
Y00528
X00649Y0054
Y00548
Y00556
Y00564
Y00572
Y0058
Y00588
Y00596
Y00604
Y00612
Y0062
X0063Y0061
Y0060325
Y0059675
Y0059
X0062325
X0063Y0058325
Y0057675
Y0057
X0062325
X0063Y0056325
Y0055675
Y0055
X0062325
Y0061
X0077Y0058325
Y0057675
X00743Y00713
X0077Y0075675
Y0076325
X00751Y00796
Y00804
Y00812
Y0082
X00743Y00847
X00938Y0089
Y00898
Y00906
X0101Y00798
X00857Y00714
X01048Y00693
X0105Y0067
X011
Y007
Y0073
Y0076
X0106
X01048Y00762
X01073Y00776
X01082Y00784
Y00834
X01078Y00852
X0107Y00845
X01056Y00821
X01145Y0082
X0116
X01175Y00835
Y00805
X01145Y00715
Y00685
X0108Y00621
X01074Y00598
Y0059
X01085Y00565
X01078Y00533
Y00995
X0107
X01056Y00992
X0107Y01015
X011
X01085Y0103
X0107Y01045
Y01075
X01098Y01076
X01107
X0112Y01075
X01135Y01069
X01132Y0106
Y01051
X011Y0106
Y01103
X01113Y01121
X01114Y01136
X01109Y01147
X01077Y01153
X01067
X0106Y01172
X01062Y01181
X01059Y01189
X01061Y01198
X01048Y01199
X01071Y01223
X01066Y01234
Y01243
X01096
Y01233
X01106Y01203
X01122
Y01257
X01123Y01267
X01107
X01096Y01292
Y01302
X01066
Y01293
X01071Y01282
X01047Y01277
Y01268
X01089Y01182
Y01171
X01145Y01163
X01152Y01169
X0116Y0118
X01175Y01165
Y01195
X01165Y01241
X01164Y01146
X01157Y01132
X01148
X01145Y0112
X01135Y0101
X01021Y01157
X01005Y01125
Y01109
X00952Y01168
Y01176
Y01184
Y01192
X009
Y01184
Y01176
Y01168
Y01152
Y01144
Y01136
Y01128
Y0108
Y01032
Y01024
Y01016
Y01008
Y00992
Y00984
Y00976
Y00968
Y00952
Y00944
Y00936
Y00928
X00938Y00914
X00857
X00849Y0094
Y00948
Y00956
Y00964
Y00972
Y0098
Y00988
Y00996
Y01004
Y01012
Y0102
X0083Y0101
Y0100325
Y0099675
Y0099
X0082325
X0081675
X0081
Y0099675
Y0100325
Y0101
X0080325
X0079675
X0079
X0079Y0100325
Y0099675
X0079Y0099
X0079675
X0080325
X0081Y0098325
X0081Y0097675
X0081Y0097
X0080325
X0079675
X0079
X0078325
X0077675
X0077
X0077Y0097675
Y0098325
X0077Y0099
Y0099675
Y0100325
Y0101
X0077675
X0078325
Y0099
X0077675
X0079Y0098325
Y0097675
Y0096325
Y0095675
Y0095
X0078325
X0077675
X0077
X0077Y0095675
Y0096325
X00751Y00964
Y00972
Y0098
Y00988
Y00996
Y01004
Y01012
Y0102
X00743Y01047
X007Y01032
Y01024
Y01016
Y01008
Y00992
Y00984
Y00976
Y00968
Y00952
Y00944
Y00936
Y00928
X00743Y00913
X00751Y0094
Y00948
Y00956
X0079675Y0095
X0080325
X0081
X0081675
X0082325
X0083
Y0095675
Y0096325
Y0097
X0082325
X0081675
X0081Y0096325
Y0095675
X0083Y0097675
Y0098325
X0082325Y0101
X0081675
X00857Y01046
Y01114
X00849Y0114
Y01148
Y01156
Y01164
Y01172
Y0118
Y01188
Y01196
Y01204
Y01212
Y0122
X0083Y0121
Y0120325
Y0119675
Y0119
X0082325
X0081675
X0081
Y0119675
Y0120325
Y0121
X0080325
X0079675
X0079
X0079Y0120325
Y0119675
X0079Y0119
X0079675
X0080325
X0081Y0118325
X0081Y0117675
X0081Y0117
X0080325
X0079675
X0079
X0078325
X0077675
X0077
X0077Y0117675
Y0118325
X0077Y0119
Y0119675
Y0120325
Y0121
X0077675
X0078325
Y0119
X0077675
X0079Y0118325
Y0117675
Y0116325
Y0115675
Y0115
X0078325
X0077675
X0077
X0077Y0115675
Y0116325
X00751Y01164
Y01172
Y0118
Y01188
Y01196
Y01204
Y01212
Y0122
X00743Y01247
X007Y01232
Y01224
Y01216
Y01208
Y01192
Y01184
Y01176
Y01168
Y01152
Y01144
Y01136
Y01128
Y0108
X0065
X00649Y0102
Y01012
Y01004
Y00996
Y00988
Y0098
Y00972
Y00964
Y00956
Y00948
Y0094
X0063Y0095
X0062325
X0063Y0095675
Y0096325
Y0097
X0062325
X0063Y0097675
Y0098325
Y0099
Y0099675
Y0100325
Y0101
X0062325
Y0099
Y0115
X0063
Y0115675
Y0116325
Y0117
X0062325
X0063Y0117675
Y0118325
Y0119
Y0119675
Y0120325
Y0121
X0062325
Y0119
X00649Y01188
Y01196
Y01204
Y01212
Y0122
Y0118
Y01172
Y01164
Y01156
Y01148
Y0114
X00751
Y01148
Y01156
X00743Y01113
X0079675Y0115
X0080325
X0081
X0081675
X0082325
X0083
Y0115675
Y0116325
Y0117
X0082325
X0081675
X0081Y0116325
Y0115675
X0083Y0117675
Y0118325
X0082325Y0121
X0081675
X00806Y01257
X00816Y01273
X00826
X00796
X00786
X00776
X00857Y01246
X009Y01224
Y01216
Y01208
Y012
X0061675Y0121
X0061
Y0120325
Y0119675
Y0119
X0060325
X0059675
X0059
X0059Y0119675
Y0120325
X0059Y0121
X0059675
X0060325
X0058325
X0057675
X0057
Y0120325
Y0119675
Y0119
X0057675
X0058325
X0059Y0118325
Y0117675
Y0117
X0058325
X0057675
X0057
X0057Y0117675
Y0118325
Y0116325
Y0115675
X0057Y0115
X0057675
X0058325
X0059
Y0115675
Y0116325
X0059675Y0117
X0060325
X0061
X0061675
X0061Y0117675
X0061Y0118325
X0061675Y0119
X0061Y0116325
Y0115675
X0061Y0115
X0060325
X0059675
X0061675
X00551Y01148
Y0114
Y01156
Y01164
Y01172
Y0118
Y01188
Y01196
Y01204
Y01212
Y0122
X00543Y01246
X005Y01232
Y01224
Y01216
Y01208
Y01192
Y01184
Y01176
Y01168
Y01152
Y01144
Y01136
Y01128
Y0108
Y01031
Y01023
Y01015
Y01007
Y00991
Y00983
Y00975
Y00967
Y00951
Y00943
Y00935
Y00927
X00457Y00914
X00449Y0094
Y00948
Y00956
Y00964
Y00972
Y0098
Y00988
Y00996
Y01004
Y01012
Y0102
X0043Y0101
Y0100325
Y0099675
Y0099
X0042325
X0041675
X0041
Y0099675
Y0100325
Y0101
X0040325
X0039675
X0039
X0039Y0100325
Y0099675
X0039Y0099
X0039675
X0040325
X0041Y0098325
X0041Y0097675
X0041Y0097
X0040325
X0039675
X0039
X0038325
X0037675
X0037
X0037Y0097675
Y0098325
X0037Y0099
Y0099675
Y0100325
Y0101
X0037675
X0038325
Y0099
X0037675
X0039Y0098325
Y0097675
Y0096325
Y0095675
Y0095
X0038325
X0037675
X0037
X0037Y0095675
Y0096325
X00351Y00964
Y00956
Y00948
Y0094
Y00972
Y0098
Y00988
Y00996
Y01004
Y01012
Y0102
X00343Y01047
X003Y01032
Y01024
Y01016
Y01008
Y00992
Y00984
Y00976
Y00968
Y00952
Y00944
Y00936
Y00928
X00343Y00913
X0039675Y0095
X0040325
X0041
X0041675
X0042325
X0043
Y0095675
Y0096325
Y0097
X0042325
X0041675
X0041Y0096325
Y0095675
X0043Y0097675
Y0098325
X0042325Y0101
X0041675
X00457Y01046
X0045Y0108
X00449Y0114
Y01148
Y01156
Y01164
Y01172
Y0118
Y01188
Y01196
Y01204
Y01212
Y0122
X0043Y0121
Y0120325
Y0119675
Y0119
X0042325
X0041675
X0041
Y0119675
Y0120325
Y0121
X0040325
X0039675
X0039
X0039Y0120325
Y0119675
X0039Y0119
X0039675
X0040325
X0041Y0118325
X0041Y0117675
X0041Y0117
X0040325
X0039675
X0039
X0038325
X0037675
X0037
X0037Y0117675
Y0118325
X0037Y0119
Y0119675
Y0120325
Y0121
X0037675
X0038325
Y0119
X0037675
X0039Y0118325
Y0117675
Y0116325
Y0115675
Y0115
X0038325
X0037675
X0037
X0037Y0115675
Y0116325
X00351Y01164
Y01172
Y0118
Y01188
Y01196
Y01204
Y01212
Y0122
X00343Y01247
X003Y01232
Y01224
Y01216
Y01208
Y01192
Y01184
Y01176
Y01168
Y01152
Y01144
Y01136
Y01128
Y0108
X0025
X00249Y0114
Y01148
Y01156
Y01164
Y01172
Y0118
Y01188
Y01196
Y01204
Y01212
Y0122
X0023Y0121
Y0120325
Y0119675
Y0119
Y0118325
Y0117675
Y0117
Y0116325
Y0115675
Y0115
X00351Y01148
Y0114
Y01156
X00343Y01113
X0039675Y0115
X0040325
X0041
X0041675
X0042325
X0043
Y0115675
Y0116325
Y0117
X0042325
X0041675
X0041Y0116325
Y0115675
X0043Y0117675
Y0118325
X0042325Y0121
X0041675
X00543Y01114
Y01046
X00551Y0102
Y01012
Y01004
Y00996
Y00988
Y0098
Y00972
Y00964
Y00956
Y00948
Y0094
X0057Y0095
X0057675
X0058325
X0059
Y0095675
Y0096325
Y0097
X0058325
X0057675
X0057
X0057Y0097675
Y0098325
X0057Y0099
Y0099675
Y0100325
Y0101
X0057675
X0058325
X0059
X0059675
X0060325
X0061
Y0100325
Y0099675
Y0099
X0060325
X0059675
X0059
X0059Y0099675
Y0100325
X0058325Y0099
X0057675
X0059Y0098325
Y0097675
X0059675Y0097
X0060325
X0061
X0061675
X0061Y0097675
X0061Y0098325
X0061675Y0099
Y0101
X0061Y0096325
Y0095675
X0061Y0095
X0060325
X0059675
X0061675
X0057Y0095675
Y0096325
X00543Y00914
X00249Y0094
Y00948
Y00956
Y00964
Y00972
Y0098
Y00988
Y00996
Y01004
Y01012
Y0102
X0023Y0101
Y0100325
Y0099675
Y0099
Y0098325
Y0097675
Y0097
Y0096325
Y0095675
Y0095
X0022325
X0021675
X0021
X0020325
X0019675
X0019
X0018325
X0017675
X0017
X0017Y0095675
Y0096325
X0017Y0097
X0017675
X0018325
X0019
X0019675
X0020325
X0021
X0021675
X0022325
X0021Y0097675
X0021Y0098325
Y0099
Y0099675
Y0100325
Y0101
X0020325
X0019675
X0019
X0019Y0100325
Y0099675
X0019Y0099
X0019675
X0020325
X0021675
X0022325
Y0101
X0021675
X0018325
X0017675
X0017
Y0100325
Y0099675
Y0099
X0017675
X0018325
X0019Y0098325
Y0097675
Y0096325
Y0095675
X0021
Y0096325
X0017Y0097675
Y0098325
X00151Y0098
Y00972
Y00964
Y00956
Y00948
Y0094
X00143Y00914
X001Y00928
Y00936
Y00944
Y00952
Y00968
Y00976
Y00984
Y00992
Y01008
Y01016
Y01024
Y01032
Y0108
Y01128
Y01136
Y01144
Y01152
Y01168
Y01176
Y01184
Y01192
Y01208
Y01216
Y01224
Y01232
X00047Y01231
Y01223
Y01215
Y01207
Y01191
Y01183
Y01175
Y01167
Y01153
Y01145
Y01137
Y01129
Y0103
Y01022
Y01014
Y01006
Y0099
Y00982
Y00974
Y00966
Y00952
Y00944
Y00936
Y00928
X00151Y00988
Y00996
Y01004
Y01012
Y0102
X00143Y01046
Y01114
X00151Y0114
Y01148
Y01156
Y01164
Y01172
Y0118
Y01188
Y01196
Y01204
Y01212
Y0122
X0017Y0121
Y0120325
Y0119675
Y0119
X0017675
X0018325
X0019
X0019675
X0020325
X0021
Y0119675
Y0120325
Y0121
X0020325
X0019675
X0019
X0019Y0120325
Y0119675
X0019Y0118325
Y0117675
Y0117
X0018325
X0017675
X0017
X0017Y0117675
Y0118325
Y0116325
Y0115675
X0017Y0115
X0017675
X0018325
X0019
Y0115675
Y0116325
X0019675Y0117
X0020325
X0021
X0021675
X0022325
X0021Y0117675
X0021Y0118325
X0021675Y0119
X0022325
Y0121
X0021675
X0018325
X0017675
X00143Y01246
X0019675Y0115
X0020325
X0021
X0021675
X0022325
X0021Y0115675
Y0116325
X0022Y01308
X0018Y01345
X00181Y01516
Y01524
Y01532
Y0154
Y01548
Y01556
Y01564
Y01572
Y0158
Y01588
Y01596
Y01604
X00189Y01598
Y01583
X00173
X00165Y0158
Y01572
Y01564
Y01556
Y01548
Y0154
Y01532
Y01524
Y01516
X00173Y01527
Y01542
X00189
Y01527
X00221Y01529
Y01521
Y01513
Y01505
Y01497
Y01537
Y01545
Y01553
Y01561
Y01569
Y01577
Y01585
Y01593
Y01601
Y01609
X00173Y01598
X00165Y01596
Y01604
Y01588
X00173Y01564
X00189
X0019Y016575
X00184Y016575
X00178Y016575
X00172Y016575
X00166
X0016
X00154
X0015375Y01673
X0015975
X0016575
X0017175
X0017775Y01673
X0018375Y01673
X0018975Y01673
X00229Y01609
Y01601
Y01593
Y01585
Y01577
Y01569
Y01561
Y01553
Y01545
Y01537
Y01529
Y01521
Y01513
Y01505
Y01497
X00233Y01474
X00241
X00249
X00257
X00265
X00273
X00269Y01468
X00261
X00253
X00245
X00237
X00233Y01462
X00241
X00249
X00257
X00265
X00273
X00269Y01456
X00261
X00253
X00245
X00237
X00226Y01438
Y0143
Y01422
Y01414
Y01406
Y01398
X0028Y0139775
Y01406
Y01414
Y01422
Y0143
Y01438
X00333Y01441
Y01449
X00341
Y01441
Y01433
Y01425
Y01417
Y01409
X00333
Y01417
Y01425
Y01433
Y01457
Y01465
X00341
Y01457
Y01473
X00333
Y01481
Y01489
X00341
Y01481
Y01497
X00333
Y01505
Y01513
X00341
Y01505
Y01521
Y01529
X00333
Y01521
Y01537
X00341
Y01545
Y01553
X00333
Y01545
Y01561
X00341
Y01569
Y01577
X00333
Y01569
Y01585
X00341
Y01593
Y01601
X00333
Y01593
Y01609
X00341
X00405Y01604
Y01596
Y01588
Y0158
Y01572
Y01564
Y01556
Y01548
Y0154
Y01532
Y01524
Y01516
X00421
Y01524
Y01532
Y0154
Y01548
Y01556
Y01564
X00413
X00421Y01572
Y0158
Y01588
Y01596
Y01604
X00429Y01598
Y01583
X00413
Y01598
X00429Y01564
Y01542
Y01527
X00413
Y01542
X00461Y01545
Y01553
X00469
Y01545
Y01537
Y01529
Y01521
Y01513
Y01505
Y01497
X00461
Y01505
Y01513
Y01521
Y01529
Y01537
Y01561
X00469
Y01569
Y01577
X00461
Y01569
Y01585
Y01593
Y01601
Y01609
X00469
Y01601
Y01593
Y01585
X00501Y01614
X00505Y01622
X00502Y01641
X0043Y016575
X00424Y016575
X00418Y016575
X00412Y016575
X00406
X004
X00394
X0039375Y01673
X0039975
X0040575
X0041175
X0041775Y01673
X0042375Y01673
X0042975Y01673
X00262Y01641
X00265Y01622
X00261Y01614
X0026Y01345
X003Y01308
X0034Y01345
X0038Y01308
X0042Y01346
X0046Y01308
X005Y01346
X0052Y0139775
Y01406
Y01414
Y01422
Y0143
Y01438
X0051Y01456
X00502
X00494
X00486
X00478
X00474Y01462
X00482
X0049
X00498
X00506
X00514
X0051Y01468
X00502
X00494
X00486
X00478
X00474Y01474
X00482
X0049
X00498
X00506
X00514
X00574Y01473
X00582
Y01465
Y01457
Y01449
Y01441
Y01433
Y01425
Y01417
Y01409
X00574
Y01417
Y01425
Y01433
Y01441
Y01449
Y01457
Y01465
Y01481
Y01489
X00582
Y01481
Y01497
X00574
Y01505
Y01513
X00582
Y01505
Y01521
Y01529
X00574
Y01521
Y01537
X00582
Y01545
Y01553
X00574
Y01545
Y01561
X00582
Y01569
Y01577
X00574
Y01569
Y01585
X00582
Y01593
Y01601
X00574
Y01593
Y01609
X00582
X0058Y01345
X0054Y01308
X0062
X00466Y01398
Y01406
Y01414
Y01422
Y0143
Y01438
X00706
Y0143
Y01422
Y01414
Y01406
Y01398
X0076Y0139775
Y01406
Y01414
Y01422
Y0143
Y01438
X0075Y01456
X00742
X00734
X00726
X00718
X00714Y01462
X00722
X0073
X00738
X00746
X00754
X0075Y01468
X00742
X00734
X00726
X00718
X00714Y01474
X00722
X0073
X00738
X00746
X00754
X00814Y01472
X00822
Y01464
Y01456
Y01448
Y0144
Y01432
Y01424
Y01416
Y01408
X00814
Y01416
Y01424
Y01432
Y0144
Y01448
Y01456
Y01464
Y0148
Y01488
X00822
Y0148
Y01496
X00814
Y01504
Y01512
X00822
Y01504
Y0152
Y01528
X00814
Y0152
Y01536
X00822
Y01544
Y01552
X00814
Y01544
Y0156
X00822
Y01568
Y01576
X00814
Y01568
Y01584
Y01592
X00822
Y01584
Y016
X00814
Y01608
X00822
X00885Y01604
Y01596
Y01588
Y0158
Y01572
Y01564
Y01556
Y01548
Y0154
Y01532
Y01524
Y01516
X00901
Y01524
Y01532
Y0154
Y01548
Y01556
Y01564
X00909
X00901Y01572
Y0158
Y01588
Y01596
Y01604
X00909Y01598
Y01583
X00893
Y01598
Y01564
Y01542
Y01527
X00909
Y01542
X00941Y01545
Y01553
X00949
Y01545
Y01537
Y01529
Y01521
Y01513
Y01505
X00941
Y01513
Y01521
Y01529
Y01537
Y01561
X00949
Y01569
Y01577
X00941
Y01569
Y01585
Y01593
Y01601
X00949
Y01593
Y01585
Y01609
X00941
X00981Y01614
X00985Y01622
X00982Y01641
X0091Y016575
X00904Y016575
X00898Y016575
X00892Y016575
X00886
X0088
X00874
X0087375Y01673
X0087975
X0088575
X0089175
X0089775Y01673
X0090375Y01673
X0090975Y01673
X00742Y01641
X00745Y01622
X00741Y01614
X00709Y01609
X00701
Y01601
Y01593
X00709
Y01601
Y01585
Y01577
Y01569
Y01561
Y01553
Y01545
Y01537
Y01529
Y01521
Y01513
Y01505
Y01497
X00701
Y01505
Y01513
Y01521
Y01529
Y01537
Y01545
Y01553
Y01561
Y01569
Y01577
Y01585
X00669Y01583
X00661Y0158
Y01572
Y01564
Y01556
Y01548
Y0154
Y01532
Y01524
Y01516
X00645
Y01524
Y01532
Y0154
Y01548
Y01556
Y01564
X00653
X00669
Y01542
Y01527
X00653
Y01542
X00645Y01572
Y0158
Y01588
Y01596
Y01604
X00653Y01598
X00661Y01596
Y01604
X00669Y01598
X00661Y01588
X00653Y01583
X00652Y016575
X00658Y016575
X00664Y016575
X0067Y016575
X0066975Y01673
X0066375Y01673
X0065775Y01673
X0065175Y01673
X0064575
X0063975
X0063375
X00634Y016575
X0064
X00646
X0066Y01346
X007Y01308
X0074Y01346
X0078Y01308
X0082Y01345
X00946Y01398
Y01406
Y01414
Y01422
Y0143
Y01438
X00958Y01456
X00966
X00974
X00982
X0099
X00994Y01462
X00986
X00978
X0097
X00962
X00954
X00958Y01468
X00966
X00974
X00982
X0099
X00994Y01474
X00986
X00978
X0097
X00962
X00954
X00949Y01497
X00941
X01Y01438
Y0143
Y01422
Y01414
Y01406
Y0139775
X01054Y01408
X01062
Y01416
X01054
Y01424
X01062
Y01432
X01054
Y0144
X01062
Y01448
X01054
Y01456
X01062
Y01464
X01054
Y01472
X01062
Y0148
X01054
Y01488
X01062
Y01496
X01054
Y01504
X01062
Y01512
X01054
Y0152
X01062
Y01528
X01054
Y01536
X01062
Y01544
Y01552
X01054
Y01544
Y0156
X01062
Y01568
X01054
Y01576
X01062
Y01584
X01054
Y01592
X01062
Y016
X01054
Y01608
X01062
X01047Y01337
Y01327
X01094Y0132
X01123Y01358
X01036Y01747
X01016
X00996
X00976
X00956
Y0173
X00936
Y01747
X00916
Y0173
Y0171
X00896
Y0173
Y01747
X00876
Y0173
Y0171
X00856Y0173
Y01747
X00836
Y0173
X00816
Y01747
X00796
X00776
X00756
X00736
X00716
Y0173
X00696
Y01747
X00676
Y0173
Y0171
X00656
Y0173
Y01747
X00636
Y0173
Y0171
X00616Y0173
Y01747
X00596
Y0173
X00576
Y01747
X00556
X00536
X00516
X00496
X00476
Y0173
X00456
Y01747
X00436
Y0173
X00416
Y01747
X00396
Y0173
Y0171
X00416
X00436
X00376Y0173
Y01747
X00356
Y0173
X00336
Y01747
X00316
X00296
X00276
X00256
X00236
Y0173
X00216
Y01747
X00196
Y0173
X00176
Y01747
X00156
Y0173
Y0171
X00176
X00196
X00136Y0173
Y01747
T02
X00974362Y01042295
Y01067695
Y01093095
Y01118495
Y01143895
T03
X01159Y00665
Y007
Y00735
T04
X0110915Y0019295
Y0023495
Y0027695
X0116415
Y0023495
Y0019295
X0116288Y0147946
Y0152146
Y0156346
X0110788
Y0152146
Y0147946
T05
X0005Y0005
X0115
X01125Y00355
X009125Y004675
X000875
X00075Y00355
X005Y0088
X009125Y012925
X000875
X00075Y01405
X01125
X0115Y0171
X0005
M30
