%
T1C.3F95S300
X35000Y37800
X37000Y37800
X39000Y37800
X41000Y37800
X43000Y39500
X43000Y37800
X45000Y39500
X45000Y37800
X46700Y43800
X47000Y42700
X47000Y41500
X47000Y37800
X47000Y39500
X47800Y42700
X48600Y42700
X49000Y41500
X49000Y37800
X49000Y39500
X49400Y42700
X50200Y42700
X51000Y37800
X51000Y39500
X51000Y41500
X51000Y42700
X51800Y42700
X52100Y43700
X53000Y37800
X53000Y39500
X55000Y37800
X55000Y39500
X57000Y37800
X57000Y39500
X59000Y37800
X61000Y37800
X63000Y37800
X65000Y37800
X67000Y37800
X67000Y39500
X69000Y37800
X69000Y39500
X70700Y43800
X71000Y41500
X71000Y39500
X71000Y37800
X71000Y42700
X71800Y42700
X72600Y42700
X73000Y41500
X73000Y39500
X73000Y37800
X73400Y42700
X74200Y42700
X75000Y41500
X75000Y42700
X75000Y39500
X75000Y37800
X75800Y42700
X76100Y43700
X77000Y39500
X77000Y37800
X79000Y39500
X79000Y37800
X81000Y39500
X81000Y37800
X83000Y37800
X85000Y37800
X87000Y37800
X89000Y37800
X91000Y39500
X91000Y37800
X93000Y39500
X93000Y37800
X94700Y43800
X95000Y42700
X95000Y41500
X95000Y39500
X95000Y37800
X95800Y42700
X96600Y42700
X97000Y41500
X97000Y39500
X97000Y37800
X97400Y42700
X98200Y42700
X99000Y39500
X99000Y42700
X99000Y41500
X99000Y37800
X99800Y42700
X100100Y43700
X101000Y39500
X101000Y37800
X103000Y39500
X103000Y37800
X105000Y39500
X105000Y37800
X107000Y37800
X109000Y37800
X111000Y37800
X113000Y37800
X115000Y37800
X115000Y39500
X117000Y37800
X117000Y39500
X118700Y43800
X119000Y41500
X119000Y37800
X119000Y39500
X119000Y42700
X119800Y42700
X120600Y42700
X121000Y39500
X121000Y37800
X121000Y41500
X121400Y42700
X122200Y42700
X123000Y42700
X123000Y41500
X123000Y37800
X123000Y39500
X123800Y42700
X124100Y43700
X125000Y39500
X125000Y37800
X124100Y45500
X124100Y44900
X124100Y44300
X124100Y47900
X124100Y47300
X124100Y46700
X124100Y46100
X123300Y45200
X123300Y46750
X122700Y45200
X122700Y46750
X122200Y47500
X122200Y46000
X122100Y45200
X122100Y46750
X121400Y45200
X121400Y46750
X120700Y45200
X120700Y46750
X120700Y47500
X120700Y46000
X120100Y45200
X120100Y46750
X119500Y46750
X119500Y45200
X118700Y45000
X118700Y45600
X118700Y44400
X118700Y46200
X118700Y46800
X112400Y48400
X112100Y50300
X100100Y46100
X100100Y46700
X100100Y47300
X100100Y47900
X100100Y44300
X100100Y45500
X100100Y44900
X99300Y46750
X99300Y45200
X98700Y46750
X98700Y45200
X98200Y46000
X98200Y47500
X98100Y46750
X98100Y45200
X97400Y46750
X97400Y45200
X96700Y46000
X96700Y47500
X96700Y46750
X96700Y45200
X96100Y46750
X96100Y45200
X95500Y46750
X95500Y45200
X94700Y45600
X94700Y46800
X94700Y46200
X94700Y45000
X94700Y44400
X88400Y48400
X88100Y50300
X76100Y46100
X76100Y46700
X76100Y47300
X76100Y47900
X76100Y44300
X76100Y45500
X76100Y44900
X75300Y46750
X75300Y45200
X74700Y46750
X74700Y45200
X74200Y46000
X74200Y47500
X74100Y46750
X74100Y45200
X73400Y46750
X73400Y45200
X72700Y46750
X72700Y47500
X72700Y45200
X72700Y46000
X72100Y45200
X72100Y46750
X71500Y45200
X71500Y46750
X70700Y45600
X70700Y45000
X70700Y44400
X70700Y46800
X70700Y46200
X64400Y48400
X64100Y50300
X52100Y46100
X52100Y44900
X52100Y46700
X52100Y44300
X52100Y47300
X52100Y45500
X52100Y47900
X51300Y45200
X51300Y46750
X50700Y45200
X50700Y46750
X50200Y47500
X50200Y46000
X50100Y45200
X50100Y46750
X49400Y46750
X49400Y45200
X48700Y46000
X48700Y46750
X48700Y45200
X48700Y47500
X48100Y45200
X48100Y46750
X47500Y45200
X47500Y46750
X46700Y45000
X46700Y45600
X46700Y46200
X46700Y46800
X46700Y44400
X40400Y48400
X40100Y50300
X32400Y54000
X32400Y55600
X32400Y52400
X32400Y51600
X32400Y54800
X32400Y53200
X32400Y56400
X33200Y54800
X33200Y52400
X33200Y51600
X33200Y55600
X33200Y54000
X33200Y53200
X33200Y56400
X40500Y51100
X43700Y54000
X43700Y53200
X43700Y54800
X43700Y51600
X43700Y52400
X43700Y55600
X43700Y56400
X44500Y51600
X44500Y52400
X44500Y54800
X44500Y53200
X44500Y54000
X44500Y55600
X44500Y56400
X47700Y52700
X47700Y54200
X47700Y56100
X48500Y52900
X48500Y52100
X48500Y55300
X48500Y54500
X48500Y56100
X48500Y53700
X49300Y52700
X49300Y54200
X49300Y56100
X50100Y52900
X50100Y55300
X50100Y52100
X50100Y54500
X50100Y53700
X50100Y56100
X56500Y55600
X56500Y52400
X56500Y51600
X56500Y54800
X56500Y53200
X56500Y54000
X56500Y56400
X57300Y55600
X57300Y54000
X57300Y53200
X57300Y54800
X57300Y52400
X57300Y51600
X57300Y56400
X64500Y51100
X67700Y54000
X67700Y52400
X67700Y51600
X67700Y54800
X67700Y55600
X67700Y53200
X67700Y56400
X68500Y54800
X68500Y53200
X68500Y51600
X68500Y52400
X68500Y55600
X68500Y54000
X68500Y56400
X71700Y52700
X71700Y54200
X71700Y56100
X72500Y53700
X72500Y55300
X72500Y52900
X72500Y52100
X72500Y54500
X72500Y56100
X73300Y54200
X73300Y52700
X73300Y56100
X74100Y52900
X74100Y55300
X74100Y54500
X74100Y52100
X74100Y53700
X74100Y56100
X80500Y54700
X80500Y51500
X80500Y52300
X80500Y55500
X80500Y53900
X80500Y53100
X80500Y56300
X81300Y53900
X81300Y55500
X81300Y52300
X81300Y54700
X81300Y51500
X81300Y53100
X81300Y56300
X88500Y51100
X91700Y55600
X91700Y53200
X91700Y54800
X91700Y51600
X91700Y52400
X91700Y54000
X91700Y56400
X92500Y52400
X92500Y53200
X92500Y54000
X92500Y54800
X92500Y51600
X92500Y55600
X92500Y56400
X95700Y52700
X95700Y54200
X95700Y56100
X96500Y54500
X96500Y53700
X96500Y52900
X96500Y52100
X96500Y55300
X96500Y56100
X97300Y54200
X97300Y52700
X97300Y56100
X98100Y52100
X98100Y54500
X98100Y52900
X98100Y53700
X98100Y55300
X98100Y56100
X104500Y53100
X104500Y53900
X104500Y52300
X104500Y54700
X104500Y55500
X104500Y51500
X104500Y56300
X105300Y53100
X105300Y53900
X105300Y51500
X105300Y55500
X105300Y52300
X105300Y54700
X105300Y56300
X112500Y51100
X115700Y51600
X115700Y52400
X115700Y53200
X115700Y54800
X115700Y55600
X115700Y54000
X115700Y56400
X116500Y54800
X116500Y53200
X116500Y54000
X116500Y51600
X116500Y52400
X116500Y55600
X116500Y56400
X119700Y52700
X119700Y54200
X119700Y56100
X120500Y55300
X120500Y54500
X120500Y52100
X120500Y53700
X120500Y56100
X120500Y52900
X121300Y52700
X121300Y56100
X121300Y54200
X122100Y56100
X122100Y54500
X122100Y52100
X122100Y55300
X122100Y52900
X122100Y53700
X122100Y58500
X122100Y57700
X122100Y56900
X122100Y60900
X122100Y60100
X122100Y59300
X121300Y58300
X121300Y59800
X120500Y60900
X120500Y56900
X120500Y57700
X120500Y58500
X120500Y60100
X120500Y59300
X119700Y58300
X119700Y59800
X116500Y62800
X116500Y62000
X116500Y60400
X116500Y61200
X116500Y57200
X116500Y59600
X116500Y58800
X116500Y58000
X115700Y62800
X115700Y62000
X115700Y60400
X115700Y58800
X115700Y57200
X115700Y59600
X115700Y58000
X115700Y61200
X105300Y59500
X105300Y58700
X105300Y60300
X105300Y61100
X105300Y57100
X105300Y57900
X105300Y61900
X105300Y62700
X104500Y58700
X104500Y57900
X104500Y61100
X104500Y60300
X104500Y57100
X104500Y59500
X104500Y61900
X104500Y62700
X98100Y56900
X98100Y59300
X98100Y57700
X98100Y58500
X98100Y60900
X98100Y60100
X97300Y59800
X97300Y58300
X96500Y59300
X96500Y60900
X96500Y60100
X96500Y56900
X96500Y57700
X96500Y58500
X95700Y58300
X95700Y59800
X92500Y62800
X92500Y62000
X92500Y57200
X92500Y58000
X92500Y59600
X92500Y58800
X92500Y60400
X92500Y61200
X91700Y62800
X91700Y62000
X91700Y59600
X91700Y57200
X91700Y58800
X91700Y58000
X91700Y61200
X91700Y60400
X81300Y59500
X81300Y58700
X81300Y60300
X81300Y61100
X81300Y57100
X81300Y57900
X81300Y61900
X81300Y62700
X80500Y57900
X80500Y61100
X80500Y60300
X80500Y57100
X80500Y59500
X80500Y58700
X80500Y61900
X80500Y62700
X74100Y60900
X74100Y58500
X74100Y60100
X74100Y57700
X74100Y59300
X74100Y56900
X73300Y58300
X73300Y59800
X72500Y56900
X72500Y58500
X72500Y60100
X72500Y57700
X72500Y60900
X72500Y59300
X71700Y59800
X71700Y58300
X68500Y57200
X68500Y62800
X68500Y59600
X68500Y62000
X68500Y61200
X68500Y58800
X68500Y60400
X68500Y58000
X67700Y57200
X67700Y58000
X67700Y61200
X67700Y58800
X67700Y62000
X67700Y60400
X67700Y62800
X67700Y59600
X57300Y58800
X57300Y59600
X57300Y58000
X57300Y57200
X57300Y61200
X57300Y62800
X57300Y62000
X57300Y60400
X56500Y60400
X56500Y62800
X56500Y62000
X56500Y61200
X56500Y59600
X56500Y57200
X56500Y58000
X56500Y58800
X50100Y56900
X50100Y60900
X50100Y60100
X50100Y59300
X50100Y57700
X50100Y58500
X49300Y58300
X49300Y59800
X48500Y60100
X48500Y59300
X48500Y60900
X48500Y56900
X48500Y57700
X48500Y58500
X47700Y58300
X47700Y59800
X44500Y62800
X44500Y62000
X44500Y59600
X44500Y58800
X44500Y60400
X44500Y61200
X44500Y57200
X44500Y58000
X43700Y57200
X43700Y59600
X43700Y58800
X43700Y58000
X43700Y62800
X43700Y61200
X43700Y62000
X43700Y60400
X33200Y59600
X33200Y58000
X33200Y61200
X33200Y58800
X33200Y57200
X33200Y62800
X33200Y62000
X33200Y60400
X32400Y58000
X32400Y62000
X32400Y57200
X32400Y60400
X32400Y58800
X32400Y59600
X32400Y61200
X32400Y62800
X32400Y65200
X32400Y66000
X32400Y64400
X32400Y63600
X32400Y66800
X32400Y69200
X32400Y68400
X32400Y67600
X33200Y66000
X33200Y64400
X33200Y66800
X33200Y69200
X33200Y65200
X33200Y63600
X33200Y67600
X33200Y68400
X38600Y69500
X38600Y68700
X39300Y65800
X39300Y67000
X39700Y65200
X39700Y66400
X40100Y65800
X40100Y67000
X40500Y65200
X40500Y66400
X40900Y65800
X40900Y67000
X41300Y65200
X41300Y66400
X41700Y65800
X41700Y67000
X42100Y65200
X42100Y66400
X42500Y65800
X42500Y67000
X42900Y65200
X42900Y66400
X43300Y65800
X43300Y67000
X44000Y69500
X44000Y68700
X56500Y64400
X56500Y66000
X56500Y65200
X56500Y63600
X56500Y67600
X56500Y68400
X56500Y69200
X56500Y66800
X57300Y65200
X57300Y66000
X57300Y64400
X57300Y68400
X57300Y67600
X57300Y69200
X57300Y66800
X57300Y63600
X62600Y69500
X62600Y68700
X63400Y65800
X63400Y67000
X63800Y65200
X63800Y66400
X64200Y65800
X64200Y67000
X64600Y65200
X64600Y66400
X65000Y65800
X65000Y67000
X65400Y65200
X65400Y66400
X65800Y65800
X65800Y67000
X66200Y65200
X66200Y66400
X66600Y65800
X66600Y67000
X67000Y65200
X67000Y66400
X67400Y65800
X67400Y67000
X68000Y68700
X68000Y69500
X80500Y64300
X80500Y63500
X80500Y65900
X80500Y65100
X80500Y66700
X80500Y69100
X80500Y68300
X80500Y67500
X81300Y63500
X81300Y64300
X81300Y65100
X81300Y66700
X81300Y69100
X81300Y65900
X81300Y67500
X81300Y68300
X86600Y68700
X86600Y69500
X87400Y65800
X87400Y67000
X87800Y66400
X87800Y65200
X88200Y65800
X88200Y67000
X88600Y65200
X88600Y66400
X89000Y65800
X89000Y67000
X89400Y65200
X89400Y66400
X89800Y65800
X89800Y67000
X90200Y65200
X90200Y66400
X90600Y67000
X90600Y65800
X91000Y65200
X91000Y66400
X91400Y65800
X91400Y67000
X92000Y68700
X92000Y69500
X104500Y65900
X104500Y64300
X104500Y65100
X104500Y63500
X104500Y66700
X104500Y69100
X104500Y68300
X104500Y67500
X105300Y64300
X105300Y63500
X105300Y65900
X105300Y66700
X105300Y69100
X105300Y65100
X105300Y67500
X105300Y68300
X110600Y69500
X110600Y68700
X111400Y67000
X111400Y65800
X111800Y65200
X111800Y66400
X112200Y67000
X112200Y65800
X112600Y65200
X112600Y66400
X113000Y65800
X113000Y67000
X113400Y65200
X113400Y66400
X113800Y67000
X113800Y65800
X114200Y65200
X114200Y66400
X114600Y67000
X114600Y65800
X115000Y66400
X115000Y65200
X115400Y65800
X115400Y67000
X116000Y68700
X116000Y69500
X116000Y71900
X116000Y71100
X116000Y70300
X116000Y72700
X110600Y72725
X110600Y71100
X110600Y71900
X110600Y70300
X105300Y69900
X105300Y70700
X105300Y71500
X104500Y71500
X104500Y70700
X104500Y69900
X92000Y71100
X92000Y72700
X92000Y71900
X92000Y70300
X86600Y72725
X86600Y70300
X86600Y71900
X86600Y71100
X81300Y69900
X81300Y70700
X81300Y71500
X80500Y71500
X80500Y70700
X80500Y69900
X68000Y70300
X68000Y72700
X68000Y71900
X68000Y71100
X62600Y71900
X62600Y71100
X62600Y72725
X62600Y70300
X57300Y70800
X57300Y71600
X57300Y70000
X56500Y71600
X56500Y70000
X56500Y70800
X44000Y71900
X44000Y70300
X44000Y71100
X44000Y72700
X38600Y72725
X38600Y71100
X38600Y70300
X38600Y71900
X33200Y70000
X33200Y71600
X33200Y70800
X32400Y70800
X32400Y70000
X32400Y71600
X39000Y77900
X43000Y81900
X47000Y77900
X51000Y81900
X55000Y77900
X59000Y81900
X63000Y78000
X67000Y81900
X71000Y78000
X75000Y81900
X79000Y77900
X83000Y81900
X87000Y78000
X91000Y81900
X95000Y78000
X99000Y81900
X103000Y77900
X123200Y79900
X123200Y79100
X129500Y93000
X128800Y87800
X128800Y89800
X116300Y94800
X116300Y94000
X116300Y93200
X116300Y91800
X116300Y91000
X116300Y90200
X116300Y89400
X111000Y93300
X111000Y94100
X111000Y94900
X111000Y91700
X111000Y90900
X111000Y90100
X111000Y89300
X106700Y87900
X105900Y91300
X105900Y92100
X105900Y90500
X105900Y93700
X105900Y94500
X105900Y92900
X104000Y92150
X104000Y92850
X104000Y94200
X104000Y94850
X104000Y91500
X104000Y93500
X103350Y91500
X103350Y93500
X102700Y91500
X102700Y93500
X102050Y91500
X102050Y93500
X102000Y92150
X102000Y92800
X102000Y94200
X102000Y94850
X101400Y91500
X101400Y93500
X100700Y91500
X100700Y93500
X100000Y91500
X100000Y93500
X100000Y92150
X100000Y92800
X100000Y94850
X100000Y94200
X99300Y91500
X99300Y93500
X98650Y91500
X98650Y93500
X98000Y92200
X98000Y92850
X98000Y94200
X98000Y91500
X98000Y93500
X98000Y94850
X96100Y92900
X96100Y94500
X96100Y93700
X96100Y90500
X96100Y92100
X96100Y91300
X95300Y87800
X91000Y93300
X91000Y94100
X91000Y94900
X91000Y91700
X91000Y90900
X91000Y90100
X91000Y89300
X85900Y90500
X85900Y91300
X85900Y92900
X85900Y92100
X85900Y93700
X85900Y94500
X84000Y92150
X84000Y92850
X84000Y94200
X84000Y94850
X84000Y91500
X84000Y93500
X83350Y91500
X83350Y93500
X82700Y91500
X82700Y93500
X82050Y91500
X82050Y93500
X82000Y92150
X82000Y92800
X82000Y94200
X82000Y94850
X81400Y91500
X81400Y93500
X80700Y91500
X80700Y93500
X80000Y91500
X80000Y93500
X80000Y92150
X80000Y92800
X80000Y94850
X80000Y94200
X79300Y91500
X79300Y93500
X78650Y91500
X78650Y93500
X78000Y92200
X78000Y92850
X78000Y94200
X78000Y91500
X78000Y93500
X78000Y94850
X76100Y91300
X76100Y93700
X76100Y92900
X76100Y92100
X76100Y94500
X76100Y90500
X75300Y87900
X71000Y90900
X71000Y90100
X71000Y89300
X71000Y93300
X71000Y94100
X71000Y94900
X71000Y91700
X65900Y94500
X65900Y93700
X65900Y90500
X65900Y92100
X65900Y91300
X65900Y92900
X64000Y94850
X64000Y93500
X64000Y91500
X64000Y94200
X64000Y92850
X64000Y92150
X63350Y93500
X63350Y91500
X62700Y91500
X62700Y93500
X62050Y93500
X62050Y91500
X62000Y92150
X62000Y94850
X62000Y92800
X62000Y94200
X61400Y91500
X61400Y93500
X60700Y91500
X60700Y93500
X60000Y91500
X60000Y93500
X60000Y94200
X60000Y94850
X60000Y92800
X60000Y92150
X59300Y91500
X59300Y93500
X58650Y93500
X58650Y91500
X58000Y94850
X58000Y94200
X58000Y93500
X58000Y92200
X58000Y92850
X58000Y91500
X56100Y90500
X56100Y91300
X56100Y93700
X56100Y94500
X56100Y92900
X56100Y92100
X55300Y87800
X51000Y90900
X51000Y90100
X51000Y89300
X51000Y93300
X51000Y94100
X51000Y94900
X51000Y91700
X45900Y94500
X45900Y90500
X45900Y91300
X45900Y92900
X45900Y92100
X45900Y93700
X44000Y92150
X44000Y94200
X44000Y91500
X44000Y93500
X44000Y94850
X44000Y92850
X43350Y91500
X43350Y93500
X42700Y93500
X42700Y91500
X42050Y91500
X42050Y93500
X42000Y92150
X42000Y92800
X42000Y94200
X42000Y94850
X41400Y91500
X41400Y93500
X40700Y93500
X40700Y91500
X40000Y93500
X40000Y94200
X40000Y92800
X40000Y92150
X40000Y94850
X40000Y91500
X39300Y93500
X39300Y91500
X38650Y93500
X38650Y91500
X38000Y91500
X38000Y94850
X38000Y93500
X38000Y92200
X38000Y92850
X38000Y94200
X36100Y92900
X36100Y92100
X36100Y93700
X36100Y94500
X36100Y91300
X36100Y90500
X35300Y87900
X31000Y90100
X31000Y89300
X31000Y94900
X31000Y91700
X31000Y93300
X31000Y94100
X31000Y90900
X25800Y90100
X25800Y89300
X25800Y91700
X25800Y93100
X25800Y94700
X25800Y93900
X25800Y90900
X25800Y95500
X25800Y99500
X25800Y98700
X25800Y97900
X25800Y97100
X31000Y95700
X31000Y97300
X31000Y98100
X31000Y98900
X31000Y99700
X35300Y101100
X36100Y96100
X36100Y95300
X36100Y98500
X36100Y97700
X36100Y96900
X38000Y96200
X38000Y95500
X38000Y97500
X38000Y96850
X38650Y95500
X38650Y97500
X39300Y97500
X39300Y95500
X40000Y97500
X40000Y95500
X40000Y96800
X40000Y96150
X40700Y95500
X40700Y97500
X41400Y95500
X41400Y97500
X42000Y96150
X42000Y96800
X42050Y95500
X42050Y97500
X42700Y97500
X42700Y95500
X43350Y95500
X43350Y97500
X44000Y96200
X44000Y95500
X44000Y97500
X44000Y96850
X45900Y95300
X45900Y96100
X45900Y96900
X45900Y97700
X45900Y98500
X51000Y95700
X51000Y97300
X51000Y98100
X51000Y98900
X51000Y99700
X55300Y101200
X56100Y95300
X56100Y96100
X56100Y96900
X56100Y97700
X56100Y98500
X58000Y95500
X58000Y96200
X58000Y97500
X58000Y96850
X58650Y95500
X58650Y97500
X59300Y95500
X59300Y97500
X60000Y96150
X60000Y95500
X60000Y97500
X60000Y96800
X60700Y95500
X60700Y97500
X61400Y95500
X61400Y97500
X62000Y96150
X62000Y96800
X62050Y95500
X62050Y97500
X62700Y95500
X62700Y97500
X63350Y95500
X63350Y97500
X64000Y95500
X64000Y97500
X64000Y96200
X64000Y96850
X65900Y96100
X65900Y95300
X65900Y96900
X65900Y98500
X65900Y97700
X71000Y95700
X71000Y97300
X71000Y98100
X71000Y98900
X71000Y99700
X75300Y101100
X76100Y95300
X76100Y96100
X76100Y96900
X76100Y98500
X76100Y97700
X78000Y95500
X78000Y96200
X78000Y97500
X78000Y96850
X78650Y95500
X78650Y97500
X79300Y95500
X79300Y97500
X80000Y95500
X80000Y96150
X80000Y97500
X80000Y96800
X80700Y95500
X80700Y97500
X81400Y95500
X81400Y97500
X82000Y96150
X82000Y96800
X82050Y95500
X82050Y97500
X82700Y95500
X82700Y97500
X83350Y95500
X83350Y97500
X84000Y95500
X84000Y96200
X84000Y97500
X84000Y96850
X85900Y96100
X85900Y95300
X85900Y98500
X85900Y96900
X85900Y97700
X91000Y95700
X91000Y97300
X91000Y98100
X91000Y98900
X91000Y99700
X95300Y101200
X96100Y96100
X96100Y95300
X96100Y98500
X96100Y97700
X96100Y96900
X98000Y95500
X98000Y97500
X98000Y96850
X98000Y96200
X98650Y95500
X98650Y97500
X99300Y95500
X99300Y97500
X100000Y96150
X100000Y97500
X100000Y96800
X100000Y95500
X100700Y97500
X100700Y95500
X101400Y97500
X101400Y95500
X102000Y96150
X102000Y96800
X102050Y97500
X102050Y95500
X102700Y95500
X102700Y97500
X103350Y95500
X103350Y97500
X104000Y96200
X104000Y95500
X104000Y97500
X104000Y96850
X105900Y95300
X105900Y96100
X105900Y97700
X105900Y98500
X105900Y96900
X106700Y101100
X111000Y95700
X111000Y97300
X111000Y98100
X111000Y98900
X111000Y99700
X116300Y95600
X116300Y99600
X116300Y98800
X116300Y98000
X116300Y97200
X128400Y95500
X128400Y96300
X129000Y98600
X135500Y105000
X135500Y108000
X131000Y103500
X131000Y106500
X131000Y109500
X131000Y112500
X127000Y112500
X126000Y103500
X125800Y105800
X125800Y112700
X114800Y104200
X114800Y106600
X114800Y105000
X114800Y105800
X111000Y113300
X111000Y111700
X111000Y110900
X111000Y110100
X111000Y109300
X111000Y104500
X106700Y107900
X105900Y111300
X105900Y112100
X105900Y110500
X105900Y113700
X105900Y112900
X104000Y112150
X104000Y112850
X104000Y111500
X104000Y113500
X103350Y111500
X103350Y113500
X102700Y111500
X102700Y113500
X102050Y111500
X102050Y113500
X102000Y112150
X102000Y112800
X101400Y111500
X101400Y113500
X100700Y111500
X100700Y113500
X100000Y111500
X100000Y113500
X100000Y112150
X100000Y112800
X99300Y111500
X99300Y113500
X98650Y111500
X98650Y113500
X98000Y112200
X98000Y112850
X98000Y111500
X98000Y113500
X96100Y112900
X96100Y113700
X96100Y110500
X96100Y112100
X96100Y111300
X95300Y107800
X91000Y113300
X91000Y111700
X91000Y110900
X91000Y110100
X91000Y109300
X91000Y104500
X86000Y104500
X85900Y111300
X85900Y110500
X85900Y112900
X85900Y113700
X85900Y112100
X84000Y112150
X84000Y112850
X84000Y111500
X84000Y113500
X83350Y111500
X83350Y113500
X82700Y111500
X82700Y113500
X82050Y111500
X82050Y113500
X82000Y112150
X82000Y112800
X81400Y111500
X81400Y113500
X80700Y111500
X80700Y113500
X80000Y111500
X80000Y113500
X80000Y112150
X80000Y112800
X79300Y111500
X79300Y113500
X78650Y111500
X78650Y113500
X78000Y112200
X78000Y112850
X78000Y111500
X78000Y113500
X76100Y111300
X76100Y110500
X76100Y112900
X76100Y112100
X76100Y113700
X75300Y107900
X71000Y113300
X71000Y111700
X71000Y110900
X71000Y110100
X71000Y109300
X71000Y104500
X66700Y107900
X66000Y104500
X65900Y112100
X65900Y111300
X65900Y113700
X65900Y112900
X65900Y110500
X64000Y112850
X64000Y113500
X64000Y112150
X64000Y111500
X63350Y113500
X63350Y111500
X62700Y111500
X62700Y113500
X62050Y111500
X62050Y113500
X62000Y112150
X62000Y112800
X61400Y111500
X61400Y113500
X60700Y111500
X60700Y113500
X60000Y112150
X60000Y111500
X60000Y112800
X60000Y113500
X59300Y111500
X59300Y113500
X58650Y111500
X58650Y113500
X58000Y111500
X58000Y113500
X58000Y112850
X58000Y112200
X56100Y110500
X56100Y112100
X56100Y113700
X56100Y111300
X56100Y112900
X55300Y107800
X51000Y109300
X51000Y110100
X51000Y113300
X51000Y104500
X51000Y111700
X51000Y110900
X46000Y104500
X45900Y112900
X45900Y112100
X45900Y110500
X45900Y113700
X45900Y111300
X44000Y112150
X44000Y111500
X44000Y113500
X44000Y112850
X43350Y113500
X43350Y111500
X42700Y113500
X42700Y111500
X42050Y113500
X42050Y111500
X42000Y112150
X42000Y112800
X41400Y113500
X41400Y111500
X40700Y111500
X40700Y113500
X40000Y113500
X40000Y111500
X40000Y112150
X40000Y112800
X39300Y111500
X39300Y113500
X38650Y113500
X38650Y111500
X38000Y112850
X38000Y111500
X38000Y112200
X38000Y113500
X36100Y113700
X36100Y112900
X36100Y110500
X36100Y111300
X36100Y112100
X35300Y107900
X31000Y110100
X31000Y110900
X31000Y109300
X31000Y104500
X31000Y113300
X31000Y111700
X25700Y110300
X25700Y111100
X25700Y109500
X25700Y113300
X25700Y111900
X25700Y115700
X25700Y114900
X25700Y114100
X25700Y119700
X25700Y118900
X25700Y118100
X25700Y117300
X31000Y115700
X31000Y114100
X31000Y114900
X31000Y117300
X31000Y118100
X31000Y118900
X31000Y119700
X36100Y115300
X36100Y114500
X36100Y116900
X36100Y116100
X36100Y118500
X36100Y117700
X38000Y114200
X38000Y115500
X38000Y114850
X38000Y116200
X38000Y116850
X38000Y117500
X38650Y115500
X38650Y117500
X39300Y115500
X39300Y117500
X40000Y114200
X40000Y116800
X40000Y115500
X40000Y116150
X40000Y117500
X40000Y114850
X40700Y115500
X40700Y117500
X41400Y115500
X41400Y117500
X42000Y116150
X42000Y116800
X42000Y114200
X42000Y114850
X42050Y115500
X42050Y117500
X42700Y115500
X42700Y117500
X43350Y115500
X43350Y117500
X44000Y115500
X44000Y114200
X44000Y114850
X44000Y116200
X44000Y116850
X44000Y117500
X45900Y115300
X45900Y116100
X45900Y116900
X45900Y114500
X45900Y117700
X45900Y118500
X51000Y114100
X51000Y114900
X51000Y115700
X51000Y117300
X51000Y118100
X51000Y118900
X51000Y119700
X56100Y116900
X56100Y115300
X56100Y116100
X56100Y114500
X56100Y117700
X56100Y118500
X58000Y116200
X58000Y115500
X58000Y116850
X58000Y114200
X58000Y114850
X58000Y117500
X58650Y115500
X58650Y117500
X59300Y115500
X59300Y117500
X60000Y115500
X60000Y116150
X60000Y116800
X60000Y114850
X60000Y114200
X60000Y117500
X60700Y115500
X60700Y117500
X61400Y115500
X61400Y117500
X62000Y114200
X62000Y114850
X62000Y116150
X62000Y116800
X62050Y115500
X62050Y117500
X62700Y115500
X62700Y117500
X63350Y115500
X63350Y117500
X64000Y114200
X64000Y114850
X64000Y115500
X64000Y116200
X64000Y116850
X64000Y117500
X65900Y115300
X65900Y114500
X65900Y116100
X65900Y116900
X65900Y118500
X65900Y117700
X71000Y114100
X71000Y114900
X71000Y115700
X71000Y117300
X71000Y118100
X71000Y118900
X71000Y119700
X76100Y114500
X76100Y116100
X76100Y116900
X76100Y115300
X76100Y117700
X76100Y118500
X78000Y114200
X78000Y114850
X78000Y116200
X78000Y116850
X78000Y115500
X78000Y117500
X78650Y115500
X78650Y117500
X79300Y115500
X79300Y117500
X80000Y114850
X80000Y114200
X80000Y115500
X80000Y116150
X80000Y116800
X80000Y117500
X80700Y115500
X80700Y117500
X81400Y115500
X81400Y117500
X82000Y116150
X82000Y114200
X82000Y116800
X82000Y114850
X82050Y115500
X82050Y117500
X82700Y115500
X82700Y117500
X83350Y115500
X83350Y117500
X84000Y114850
X84000Y116850
X84000Y116200
X84000Y115500
X84000Y114200
X84000Y117500
X85900Y116100
X85900Y116900
X85900Y115300
X85900Y114500
X85900Y117700
X85900Y118500
X91000Y115700
X91000Y114100
X91000Y114900
X91000Y117300
X91000Y118100
X91000Y118900
X91000Y119700
X96100Y116100
X96100Y115300
X96100Y114500
X96100Y116900
X96100Y118500
X96100Y117700
X98000Y116850
X98000Y115500
X98000Y116200
X98000Y114850
X98000Y114200
X98000Y117500
X98650Y115500
X98650Y117500
X99300Y117500
X99300Y115500
X100000Y115500
X100000Y116150
X100000Y114850
X100000Y117500
X100000Y114200
X100000Y116800
X100700Y115500
X100700Y117500
X101400Y115500
X101400Y117500
X102000Y114200
X102000Y116150
X102000Y116800
X102000Y114850
X102050Y115500
X102050Y117500
X102700Y115500
X102700Y117500
X103350Y115500
X103350Y117500
X104000Y114850
X104000Y116850
X104000Y114200
X104000Y115500
X104000Y116200
X104000Y117500
X105900Y115300
X105900Y114500
X105900Y116900
X105900Y116100
X105900Y117700
X105900Y118500
X111000Y114900
X111000Y114100
X111000Y115700
X111000Y117300
X111000Y118100
X111000Y118900
X111000Y119700
X122000Y116300
X126600Y118600
X128300Y114100
X129200Y119900
X129200Y114900
X135500Y118500
X137000Y118500
X138500Y117000
X138500Y120000
X128800Y121700
X128000Y121000
X114800Y126300
X114800Y125500
X114800Y127900
X114800Y127100
X111000Y131700
X111000Y130900
X111000Y130100
X111000Y129300
X106700Y121100
X106700Y127900
X105900Y131300
X105900Y132100
X105900Y130500
X105900Y132900
X104000Y132850
X104000Y132150
X104000Y131500
X103350Y131500
X102700Y131500
X102050Y131500
X102000Y132800
X102000Y132150
X101400Y131500
X100700Y131500
X100000Y131500
X100000Y132800
X100000Y132150
X99300Y131500
X98650Y131500
X98000Y131500
X98000Y132850
X98000Y132200
X96100Y132900
X96100Y130500
X96100Y132100
X96100Y131300
X95300Y127800
X95300Y121200
X91000Y131700
X91000Y130900
X91000Y129300
X91000Y130100
X91000Y124500
X86000Y124500
X85900Y132900
X85900Y132100
X85900Y131300
X85900Y130500
X84000Y131500
X84000Y132850
X84000Y132150
X83350Y131500
X82700Y131500
X82050Y131500
X82000Y132800
X82000Y132150
X81400Y131500
X80700Y131500
X80000Y132800
X80000Y132150
X80000Y131500
X79300Y131500
X78650Y131500
X78000Y131500
X78000Y132850
X78000Y132200
X76100Y131300
X76100Y132100
X76100Y132900
X76100Y130500
X75300Y127900
X75300Y121100
X71000Y131600
X71000Y130800
X71000Y130000
X71000Y129200
X66700Y121100
X66700Y127900
X65900Y132100
X65900Y131300
X65900Y132900
X65900Y130500
X64000Y131500
X64000Y132150
X64000Y132850
X63350Y131500
X62700Y131500
X62050Y131500
X62000Y132150
X62000Y132800
X61400Y131500
X60700Y131500
X60000Y132150
X60000Y132800
X60000Y131500
X58650Y131500
X58000Y131500
X58000Y132200
X58000Y132850
X56100Y132900
X56100Y132100
X56100Y130500
X56100Y131300
X55300Y127800
X55300Y121200
X51000Y131700
X51000Y130900
X51000Y129300
X51000Y130100
X51000Y124500
X46000Y124500
X45900Y132100
X45900Y132900
X45900Y131300
X45900Y130500
X44000Y132850
X44000Y132150
X44000Y131500
X43350Y131500
X42700Y131500
X42050Y131500
X42000Y132800
X42000Y132150
X41400Y131500
X40700Y131500
X40000Y132150
X40000Y132800
X40000Y131500
X39300Y131500
X38650Y131500
X38000Y131500
X38000Y132850
X38000Y132200
X36100Y131300
X36100Y132900
X36100Y132100
X36100Y130500
X35300Y127900
X35300Y121100
X31000Y129300
X31000Y124500
X31000Y131700
X31000Y130900
X31000Y130100
X25700Y130100
X25700Y129300
X25700Y130900
X25700Y131700
X25700Y133100
X25700Y137100
X25700Y135500
X25700Y134700
X25700Y133900
X25700Y138700
X25700Y137900
X31000Y134900
X31000Y135700
X31000Y134100
X31000Y133300
X31000Y137300
X31000Y138100
X31000Y138900
X36100Y133700
X36100Y134500
X36100Y136900
X36100Y136100
X36100Y135300
X36100Y138500
X36100Y137700
X38000Y136200
X38000Y134850
X38000Y136850
X38000Y135500
X38000Y133500
X38000Y134200
X38000Y137500
X38650Y135500
X38650Y133500
X38650Y137500
X39300Y135500
X39300Y133500
X39300Y137500
X40000Y134200
X40000Y134850
X40000Y136800
X40000Y136150
X40000Y135500
X40000Y133500
X40000Y137500
X40700Y135500
X40700Y133500
X40700Y137500
X41400Y135500
X41400Y133500
X41400Y137500
X42000Y136800
X42000Y134850
X42000Y134200
X42000Y136150
X42050Y135500
X42050Y133500
X42050Y137500
X42700Y135500
X42700Y133500
X42700Y137500
X43350Y135500
X43350Y133500
X43350Y137500
X44000Y136850
X44000Y136200
X44000Y134850
X44000Y134200
X44000Y135500
X44000Y133500
X44000Y137500
X45900Y135300
X45900Y136100
X45900Y134500
X45900Y133700
X45900Y136900
X45900Y138500
X45900Y137700
X51000Y134100
X51000Y134900
X51000Y135700
X51000Y133300
X51000Y137300
X51000Y138100
X51000Y138900
X56100Y133700
X56100Y134500
X56100Y135300
X56100Y136100
X56100Y136900
X56100Y137700
X56100Y138500
X58000Y134200
X58000Y134850
X58000Y136200
X58000Y136850
X58000Y133500
X58000Y135500
X58000Y137500
X58650Y133500
X58650Y135500
X58650Y137500
X59300Y135500
X59300Y133500
X59300Y137500
X60000Y134200
X60000Y133500
X60000Y135500
X60000Y136150
X60000Y136800
X60000Y137500
X60000Y134850
X60700Y135500
X60700Y133500
X60700Y137500
X61400Y135500
X61400Y133500
X61400Y137500
X62000Y136150
X62000Y136800
X62000Y134200
X62000Y134850
X62050Y133500
X62050Y135500
X62050Y137500
X62700Y135500
X62700Y133500
X62700Y137500
X63350Y135500
X63350Y133500
X63350Y137500
X64000Y136850
X64000Y133500
X64000Y134200
X64000Y135500
X64000Y134850
X64000Y136200
X64000Y137500
X65900Y135300
X65900Y136900
X65900Y136100
X65900Y134500
X65900Y133700
X65900Y138500
X65900Y137700
X71000Y134000
X71000Y134800
X71000Y133200
X71000Y135600
X71000Y137200
X71000Y138000
X71000Y138800
X76100Y136900
X76100Y134500
X76100Y133700
X76100Y135300
X76100Y136100
X76100Y137700
X76100Y138500
X78000Y135500
X78000Y133500
X78000Y134200
X78000Y136200
X78000Y136850
X78000Y134850
X78000Y137500
X78650Y133500
X78650Y135500
X78650Y137500
X79300Y133500
X79300Y135500
X79300Y137500
X80000Y134200
X80000Y136800
X80000Y134850
X80000Y135500
X80000Y133500
X80000Y136150
X80000Y137500
X80700Y133500
X80700Y135500
X80700Y137500
X81400Y133500
X81400Y135500
X81400Y137500
X82000Y136150
X82000Y134850
X82000Y136800
X82000Y134200
X82050Y133500
X82050Y135500
X82050Y137500
X82700Y133500
X82700Y135500
X82700Y137500
X83350Y133500
X83350Y135500
X83350Y137500
X84000Y136200
X84000Y134850
X84000Y136850
X84000Y133500
X84000Y134200
X84000Y135500
X84000Y137500
X85900Y135300
X85900Y136900
X85900Y136100
X85900Y133700
X85900Y134500
X85900Y138500
X85900Y137700
X91000Y133300
X91000Y134100
X91000Y135700
X91000Y134900
X91000Y138900
X91000Y137300
X91000Y138100
X96100Y133700
X96100Y134500
X96100Y136100
X96100Y136900
X96100Y135300
X96100Y138500
X96100Y137700
X98000Y134200
X98000Y136850
X98000Y136200
X98000Y133500
X98000Y135500
X98000Y134850
X98000Y137500
X98650Y133500
X98650Y135500
X98650Y137500
X99300Y133500
X99300Y135500
X99300Y137500
X100000Y136150
X100000Y136800
X100000Y133500
X100000Y134200
X100000Y134850
X100000Y135500
X100000Y137500
X100700Y135500
X100700Y133500
X100700Y137500
X101400Y135500
X101400Y133500
X101400Y137500
X102000Y136800
X102000Y136150
X102000Y134850
X102000Y134200
X102050Y135500
X102050Y133500
X102050Y137500
X102700Y135500
X102700Y133500
X102700Y137500
X103350Y133500
X103350Y135500
X103350Y137500
X104000Y134850
X104000Y136850
X104000Y136200
X104000Y135500
X104000Y134200
X104000Y133500
X104000Y137500
X105900Y136100
X105900Y135300
X105900Y133700
X105900Y137700
X105900Y138500
X105900Y134500
X105900Y136900
X111000Y134100
X111000Y135700
X111000Y137300
X111000Y138100
X111000Y138900
X111000Y133300
X111000Y134900
X126600Y135700
X128000Y136000
X128000Y138000
X128800Y136000
X131000Y138000
X134500Y137500
X134500Y143400
X134200Y141600
X134200Y142500
X133000Y144000
X131700Y144100
X131000Y142500
X130800Y144100
X129500Y139500
X128000Y144000
X128000Y141000
X111000Y139700
X111000Y144500
X106700Y141100
X95300Y141200
X91000Y139700
X91000Y144500
X86000Y144500
X75300Y141100
X71000Y144500
X71000Y139600
X66700Y141100
X66000Y144500
X55300Y141200
X51000Y139700
X51000Y144500
X46000Y144500
X35300Y141100
X31000Y139700
X31000Y144500
X25700Y139500
X25700Y149400
X25700Y150200
X25700Y151000
X25700Y151800
X31000Y151700
X31000Y150900
X31000Y150100
X31000Y149300
X35300Y147900
X36100Y150500
X36100Y151300
X38000Y151500
X38650Y151500
X39300Y151500
X40000Y151500
X40700Y151500
X41400Y151500
X42050Y151500
X42700Y151500
X43350Y151500
X44000Y151500
X45900Y150500
X45900Y151300
X51000Y149300
X51000Y151700
X51000Y150900
X51000Y150100
X55300Y147800
X56100Y151300
X56100Y150500
X58000Y151500
X58650Y151500
X59300Y151500
X60000Y151500
X60700Y151500
X61400Y151500
X62050Y151500
X62700Y151500
X63350Y151500
X64000Y151500
X65900Y151300
X65900Y150500
X71000Y150100
X71000Y149300
X71000Y151700
X71000Y150900
X75300Y147900
X76100Y150500
X76100Y151300
X78000Y151500
X78650Y151500
X79300Y151500
X80000Y151500
X80700Y151500
X81400Y151500
X82050Y151500
X82700Y151500
X83350Y151500
X84000Y151500
X85900Y150500
X85900Y151300
X91000Y149300
X91000Y150100
X91000Y151700
X91000Y150900
X95300Y147800
X96100Y150500
X96100Y151300
X98000Y151500
X98650Y151500
X99300Y151500
X100000Y151500
X100700Y151500
X101400Y151500
X102050Y151500
X102700Y151500
X103350Y151500
X104000Y151500
X105900Y151300
X105900Y150500
X106700Y147900
X111000Y150900
X111000Y150100
X111000Y149300
X111000Y151700
X121500Y147400
X121500Y149000
X127700Y151800
X128700Y151800
X131000Y146800
X131900Y151200
X132300Y148600
X132400Y150100
X135500Y148500
X135800Y149700
X136700Y149700
X137400Y151100
X138500Y156000
X138500Y153000
X137000Y154500
X136200Y153400
X135500Y152800
X133200Y156800
X131600Y156800
X129900Y154700
X129900Y153600
X127200Y154600
X127100Y156300
X127000Y153700
X126900Y155400
X125800Y156400
X123100Y152200
X116200Y153300
X116200Y154100
X116200Y154900
X116200Y155700
X111000Y153300
X111000Y154100
X111000Y154900
X111000Y155700
X111000Y157300
X111000Y156500
X111000Y158100
X105900Y152100
X105900Y156900
X105900Y156100
X105900Y152900
X105900Y155300
X105900Y154500
X105900Y153700
X105900Y157700
X104000Y157500
X104000Y155500
X104000Y153500
X104000Y156850
X104000Y156200
X104000Y154850
X104000Y154200
X104000Y152850
X104000Y152150
X103350Y157500
X103350Y155500
X103350Y153500
X102700Y157500
X102700Y155500
X102700Y153500
X102050Y157500
X102050Y155500
X102050Y153500
X102000Y154850
X102000Y154200
X102000Y156800
X102000Y156150
X102000Y152800
X102000Y152150
X101400Y155500
X101400Y157500
X101400Y153500
X100700Y157500
X100700Y153500
X100700Y155500
X100000Y155500
X100000Y157500
X100000Y153500
X100000Y152150
X100000Y154200
X100000Y154850
X100000Y156800
X100000Y156150
X100000Y152800
X99300Y155500
X99300Y153500
X99300Y157500
X98650Y155500
X98650Y153500
X98650Y157500
X98000Y154200
X98000Y152850
X98000Y152200
X98000Y157500
X98000Y153500
X98000Y155500
X98000Y156850
X98000Y156200
X98000Y154850
X96100Y155300
X96100Y156900
X96100Y156100
X96100Y153700
X96100Y152900
X96100Y152100
X96100Y154500
X96100Y157700
X91000Y155700
X91000Y154900
X91000Y153300
X91000Y154100
X91000Y157300
X91000Y158100
X85900Y156900
X85900Y153700
X85900Y152900
X85900Y155300
X85900Y152100
X85900Y156100
X85900Y154500
X85900Y157700
X84000Y157500
X84000Y155500
X84000Y152150
X84000Y153500
X84000Y156850
X84000Y156200
X84000Y154850
X84000Y154200
X84000Y152850
X83350Y157500
X83350Y155500
X83350Y153500
X82700Y157500
X82700Y155500
X82700Y153500
X82050Y157500
X82050Y155500
X82050Y153500
X82000Y154850
X82000Y154200
X82000Y156800
X82000Y156150
X82000Y152800
X82000Y152150
X81400Y155500
X81400Y153500
X81400Y157500
X80700Y153500
X80700Y157500
X80700Y155500
X80000Y155500
X80000Y153500
X80000Y156800
X80000Y152150
X80000Y156150
X80000Y154200
X80000Y157500
X80000Y152800
X80000Y154850
X79300Y157500
X79300Y153500
X79300Y155500
X78650Y153500
X78650Y155500
X78650Y157500
X78000Y155500
X78000Y152850
X78000Y156850
X78000Y156200
X78000Y154850
X78000Y152200
X78000Y153500
X78000Y154200
X78000Y157500
X76100Y152900
X76100Y153700
X76100Y154500
X76100Y152100
X76100Y156100
X76100Y156900
X76100Y157700
X76100Y155300
X71000Y155700
X71000Y157300
X71000Y153300
X71000Y154100
X71000Y154900
X71000Y158100
X65900Y155300
X65900Y152900
X65900Y156100
X65900Y153700
X65900Y156900
X65900Y154500
X65900Y152100
X65900Y157700
X64000Y154850
X64000Y157500
X64000Y156850
X64000Y154200
X64000Y152850
X64000Y152150
X64000Y155500
X64000Y153500
X64000Y156200
X63350Y155500
X63350Y153500
X63350Y157500
X62700Y155500
X62700Y153500
X62700Y157500
X62050Y155500
X62050Y153500
X62050Y157500
X62000Y152150
X62000Y154200
X62000Y156800
X62000Y156150
X62000Y152800
X62000Y154850
X61400Y153500
X61400Y155500
X61400Y157500
X60700Y153500
X60700Y155500
X60700Y157500
X60000Y153500
X60000Y157500
X60000Y154200
X60000Y154850
X60000Y156800
X60000Y156150
X60000Y152150
X60000Y155500
X60000Y152800
X59300Y157500
X59300Y153500
X59300Y155500
X58650Y157500
X58650Y155500
X58650Y153500
X58000Y153500
X58000Y154200
X58000Y152850
X58000Y156850
X58000Y155500
X58000Y152200
X58000Y156200
X58000Y154850
X58000Y157500
X56100Y152900
X56100Y153700
X56100Y156100
X56100Y156900
X56100Y155300
X56100Y154500
X56100Y152100
X56100Y157700
X51000Y155700
X51000Y157300
X51000Y154100
X51000Y153300
X51000Y154900
X51000Y158100
X45900Y154500
X45900Y156900
X45900Y155300
X45900Y156100
X45900Y153700
X45900Y152100
X45900Y157700
X45900Y152900
X44000Y153500
X44000Y152150
X44000Y156850
X44000Y157500
X44000Y155500
X44000Y154850
X44000Y156200
X44000Y154200
X44000Y152850
X43350Y157500
X43350Y153500
X43350Y155500
X42700Y157500
X42700Y153500
X42700Y155500
X42050Y157500
X42050Y153500
X42050Y155500
X42000Y154850
X42000Y154200
X42000Y156800
X42000Y156150
X42000Y152800
X42000Y152150
X41400Y157500
X41400Y155500
X41400Y153500
X40700Y157500
X40700Y155500
X40700Y153500
X40000Y156150
X40000Y156800
X40000Y153500
X40000Y157500
X40000Y154850
X40000Y154200
X40000Y152800
X40000Y155500
X40000Y152150
X39300Y153500
X39300Y157500
X39300Y155500
X38650Y157500
X38650Y155500
X38650Y153500
X38000Y152850
X38000Y157500
X38000Y152200
X38000Y154850
X38000Y153500
X38000Y154200
X38000Y155500
X38000Y156850
X38000Y156200
X36100Y152900
X36100Y152100
X36100Y157700
X36100Y155300
X36100Y153700
X36100Y156900
X36100Y154500
X36100Y156100
X31000Y153300
X31000Y155700
X31000Y154900
X31000Y158100
X31000Y157300
X31000Y154100
X25700Y153200
X25700Y158000
X25700Y154000
X25700Y157200
X25700Y154800
X25700Y155600
X25700Y159600
X25700Y158800
X31000Y159700
X31000Y158900
X35300Y161100
X36100Y158500
X45900Y158500
X51000Y158900
X51000Y159700
X55300Y161200
X56100Y158500
X65900Y158500
X71000Y159700
X71000Y158900
X75300Y161100
X76100Y158500
X85900Y158500
X91000Y159700
X91000Y158900
X95300Y161200
X96100Y158500
X98600Y163800
X99600Y163800
X100600Y163800
X101600Y162200
X102600Y163800
X103600Y163800
X105900Y158500
X106700Y161100
X111000Y158900
X125700Y164200
X125700Y163300
X127600Y160800
X127600Y159900
X128100Y164700
X128100Y158800
X130600Y159800
X130600Y160800
X131700Y163200
X133200Y162200
X133300Y163200
X137500Y160600
X130600Y166700
X130600Y165700
X130400Y168500
X127600Y165800
X127600Y166700
X125700Y169200
X125700Y170200
X103000Y171000
X99000Y167300
X95000Y171100
X91000Y167300
X87000Y171100
X83000Y167300
X79000Y171000
X75000Y167300
X71000Y171100
X67000Y167300
X63000Y171100
X59000Y167300
X55000Y171000
X51000Y167300
X47000Y171000
X43000Y167300
X39000Y171000
X43600Y177100
X43600Y176300
X49000Y177100
X49000Y176275
X54300Y177400
X55100Y177400
X67600Y176300
X67600Y177100
X73000Y177100
X73000Y176275
X78400Y177400
X79200Y177400
X91600Y177100
X91600Y176300
X97000Y176275
X97000Y177100
X102400Y177300
X103200Y177300
X115600Y176300
X115600Y177100
X121000Y176275
X121000Y177100
X126400Y177300
X127200Y177300
X133300Y172300
X127200Y183700
X127200Y182900
X127200Y182100
X127200Y181300
X127200Y179700
X127200Y178900
X127200Y180500
X127200Y178100
X126400Y182900
X126400Y183700
X126400Y182100
X126400Y181300
X126400Y178100
X126400Y180500
X126400Y178900
X126400Y179700
X121000Y177900
X121000Y178700
X121000Y179500
X121000Y180300
X120400Y182700
X120000Y183300
X120000Y182100
X119600Y182700
X119200Y183300
X119200Y182100
X118800Y182700
X118400Y183300
X118400Y182100
X118000Y182700
X117600Y183300
X117600Y182100
X117200Y182700
X116800Y183300
X116800Y182100
X116400Y182700
X115600Y179500
X115600Y178700
X115600Y177900
X115600Y180300
X103200Y183700
X103200Y182900
X103200Y182100
X103200Y181300
X103200Y179700
X103200Y178900
X103200Y180500
X103200Y178100
X102400Y182900
X102400Y183700
X102400Y182100
X102400Y181300
X102400Y178100
X102400Y180500
X102400Y178900
X102400Y179700
X97000Y177900
X97000Y178700
X97000Y179500
X97000Y180300
X96400Y182700
X96000Y183300
X96000Y182100
X95600Y182700
X95200Y183300
X95200Y182100
X94800Y182700
X94400Y183300
X94400Y182100
X94000Y182700
X93600Y183300
X93600Y182100
X93200Y182700
X92800Y183300
X92800Y182100
X92400Y182700
X91600Y179500
X91600Y178700
X91600Y180300
X91600Y177900
X79200Y181400
X79200Y183000
X79200Y179000
X79200Y178200
X79200Y183800
X79200Y182200
X79200Y180600
X79200Y179800
X78400Y181400
X78400Y183800
X78400Y178200
X78400Y182200
X78400Y183000
X78400Y179000
X78400Y180600
X78400Y179800
X73000Y180300
X73000Y179500
X73000Y178700
X73000Y177900
X72400Y182700
X72000Y183300
X72000Y182100
X71600Y182700
X71200Y183300
X71200Y182100
X70800Y182700
X70400Y182100
X70400Y183300
X70000Y182700
X69600Y183300
X69600Y182100
X69200Y182700
X68800Y182100
X68800Y183300
X68400Y182700
X67600Y180300
X67600Y179500
X67600Y177900
X67600Y178700
X55100Y183000
X55100Y178200
X55100Y179000
X55100Y183800
X55100Y182200
X55100Y180600
X55100Y179800
X55100Y181400
X54300Y182200
X54300Y183000
X54300Y179800
X54300Y179000
X54300Y180600
X54300Y178200
X54300Y183800
X54300Y181400
X49000Y178700
X49000Y180300
X49000Y177900
X49000Y179500
X48300Y182700
X47900Y183300
X47900Y182100
X47500Y182700
X47100Y183300
X47100Y182100
X46700Y182700
X46300Y183300
X46300Y182100
X45900Y182700
X45500Y182100
X45500Y183300
X45100Y182700
X44700Y182100
X44700Y183300
X44300Y182700
X43600Y180300
X43600Y177900
X43600Y178700
X43600Y179500
X37500Y188900
X37500Y189700
X37500Y188100
X38300Y189200
X39100Y188100
X39100Y188900
X39100Y189700
X39900Y189200
X43100Y186200
X43100Y187000
X43100Y187800
X43100Y189400
X43100Y188600
X43900Y186200
X43900Y187000
X43900Y187800
X43900Y189400
X43900Y188600
X44300Y183900
X45100Y183900
X45900Y183900
X46700Y183900
X47500Y183900
X48300Y183900
X54300Y185400
X54300Y187800
X54300Y187000
X54300Y184600
X54300Y186200
X54300Y188600
X54300Y189400
X55100Y187000
X55100Y185400
X55100Y184600
X55100Y186200
X55100Y187800
X55100Y189400
X55100Y188600
X61500Y188100
X61500Y188900
X61500Y189700
X62300Y189200
X63100Y188100
X63100Y188900
X63100Y189700
X63900Y189200
X67100Y186200
X67100Y187000
X67100Y187800
X67100Y189400
X67100Y188600
X67900Y186200
X67900Y187800
X67900Y187000
X67900Y188600
X67900Y189400
X68400Y183900
X69200Y183900
X70000Y183900
X70800Y183900
X71600Y183900
X72400Y183900
X78400Y187800
X78400Y184600
X78400Y187000
X78400Y185400
X78400Y186200
X78400Y189400
X78400Y188600
X79200Y185400
X79200Y184600
X79200Y186200
X79200Y187000
X79200Y188600
X79200Y189400
X79200Y187800
X85500Y188100
X85500Y188900
X85500Y189700
X86300Y189200
X87100Y188100
X87100Y188900
X87100Y189700
X87900Y189200
X91100Y186200
X91100Y187000
X91100Y187800
X91100Y189400
X91100Y188600
X91900Y186200
X91900Y187000
X91900Y187800
X91900Y188600
X91900Y189400
X92400Y183900
X93200Y183900
X94000Y183900
X94800Y183900
X95600Y183900
X96400Y183900
X102400Y186900
X102400Y187700
X102400Y184500
X102400Y186100
X102400Y185300
X102400Y188500
X102400Y189300
X102400Y190100
X103200Y184500
X103200Y185300
X103200Y187700
X103200Y186900
X103200Y186100
X103200Y190100
X103200Y189300
X103200Y188500
X109500Y188100
X109500Y188900
X109500Y189700
X110300Y189200
X111100Y188100
X111100Y188900
X111100Y189700
X111900Y189200
X115100Y187800
X115100Y187000
X115100Y186200
X115100Y189400
X115100Y188600
X115900Y186200
X115900Y187000
X115900Y189400
X115900Y187800
X115900Y188600
X116400Y183900
X117200Y183900
X118000Y183900
X118800Y183900
X119600Y183900
X120400Y183900
X126400Y186900
X126400Y187700
X126400Y184500
X126400Y185300
X126400Y186100
X126400Y188500
X126400Y189300
X126400Y190100
X127200Y185300
X127200Y186900
X127200Y186100
X127200Y187700
X127200Y190100
X127200Y189300
X127200Y184500
X127200Y188500
X127200Y194100
X127200Y193300
X127200Y196500
X127200Y194900
X127200Y195700
X127200Y192500
X127200Y191700
X127200Y190900
X126400Y195700
X126400Y193300
X126400Y196500
X126400Y194100
X126400Y194900
X126400Y192500
X126400Y191700
X126400Y190900
X115900Y192600
X115900Y190200
X115900Y191000
X115900Y191800
X115900Y195000
X115900Y193400
X115900Y195800
X115900Y194200
X115100Y192600
X115100Y190200
X115100Y191800
X115100Y191000
X115100Y194200
X115100Y193400
X115100Y195800
X115100Y195000
X111900Y192900
X111900Y190700
X111900Y196300
X111900Y194800
X111100Y192100
X111100Y191300
X111100Y190500
X111100Y192900
X111100Y196100
X111100Y193700
X111100Y194500
X111100Y195300
X110300Y192900
X110300Y190700
X110300Y196300
X110300Y194800
X109500Y192900
X109500Y192100
X109500Y191300
X109500Y190500
X109500Y193700
X109500Y196100
X109500Y194500
X109500Y195300
X103200Y194100
X103200Y193300
X103200Y196500
X103200Y194900
X103200Y195700
X103200Y192500
X103200Y191700
X103200Y190900
X102400Y195700
X102400Y193300
X102400Y196500
X102400Y194100
X102400Y194900
X102400Y192500
X102400Y191700
X102400Y190900
X91900Y192600
X91900Y190200
X91900Y191000
X91900Y191800
X91900Y195000
X91900Y193400
X91900Y195800
X91900Y194200
X91100Y192600
X91100Y190200
X91100Y191800
X91100Y191000
X91100Y194200
X91100Y193400
X91100Y195800
X91100Y195000
X87900Y192900
X87900Y190700
X87900Y196300
X87900Y194800
X87100Y192900
X87100Y196100
X87100Y193700
X87100Y194500
X87100Y195300
X87100Y192100
X87100Y191300
X87100Y190500
X86300Y196300
X86300Y194800
X86300Y192900
X86300Y190700
X85500Y190500
X85500Y194500
X85500Y196100
X85500Y192100
X85500Y193700
X85500Y195300
X85500Y192900
X85500Y191300
X79200Y190200
X79200Y191800
X79200Y191000
X79200Y195000
X79200Y193400
X79200Y194200
X79200Y192600
X79200Y195800
X78400Y190200
X78400Y191000
X78400Y195000
X78400Y194200
X78400Y192600
X78400Y193400
X78400Y195800
X78400Y191800
X67900Y191800
X67900Y193400
X67900Y195800
X67900Y194200
X67900Y195000
X67900Y192600
X67900Y190200
X67900Y191000
X67100Y193400
X67100Y195000
X67100Y194200
X67100Y192600
X67100Y190200
X67100Y191800
X67100Y191000
X67100Y195800
X63900Y194800
X63900Y192900
X63900Y190700
X63900Y196300
X63100Y192900
X63100Y192100
X63100Y195300
X63100Y191300
X63100Y196100
X63100Y193700
X63100Y194500
X63100Y190500
X62300Y196300
X62300Y194800
X62300Y190700
X62300Y192900
X61500Y193700
X61500Y196100
X61500Y194500
X61500Y190500
X61500Y192100
X61500Y195300
X61500Y192900
X61500Y191300
X55100Y190200
X55100Y191000
X55100Y195000
X55100Y195800
X55100Y192600
X55100Y194200
X55100Y193400
X55100Y191800
X54300Y190200
X54300Y195800
X54300Y192600
X54300Y191800
X54300Y193400
X54300Y191000
X54300Y194200
X54300Y195000
X43900Y195800
X43900Y192600
X43900Y191000
X43900Y195000
X43900Y191800
X43900Y194200
X43900Y193400
X43900Y190200
X43100Y191800
X43100Y195000
X43100Y195800
X43100Y194200
X43100Y193400
X43100Y190200
X43100Y192600
X43100Y191000
X39900Y196300
X39900Y192900
X39900Y190700
X39900Y194800
X39100Y195300
X39100Y193700
X39100Y192100
X39100Y191300
X39100Y192900
X39100Y196100
X39100Y194500
X39100Y190500
X38300Y194800
X38300Y196300
X38300Y190700
X38300Y192900
X37500Y192100
X37500Y191300
X37500Y190500
X37500Y195300
X37500Y194500
X37500Y193700
X37500Y196100
X37500Y192900
X35500Y201100
X35500Y201700
X35500Y202300
X36300Y202250
X36900Y202250
X37400Y201500
X37500Y196900
X37500Y202250
X38200Y202250
X38900Y202250
X38900Y201500
X39100Y196900
X39500Y202250
X40100Y202250
X40900Y202800
X40900Y202200
X43100Y197400
X43100Y196600
X43900Y196600
X43900Y197400
X47100Y197900
X47200Y200600
X47500Y198700
X54300Y196600
X54300Y197400
X55100Y197400
X55100Y196600
X59500Y202300
X59500Y201700
X59500Y201100
X60300Y202250
X60900Y202250
X61400Y201500
X61500Y196900
X61500Y202250
X62200Y202250
X62900Y201500
X62900Y202250
X63100Y196900
X63500Y202250
X64100Y202250
X64900Y202200
X64900Y202800
X67100Y197400
X67100Y196600
X67900Y197400
X67900Y196600
X71100Y197900
X71200Y200600
X71500Y198700
X78400Y197400
X78400Y196600
X79200Y197400
X79200Y196600
X83500Y202300
X83500Y201700
X83500Y201100
X84300Y202250
X84900Y202250
X85400Y201500
X85500Y196900
X85500Y202250
X86200Y202250
X86900Y201500
X86900Y202250
X87100Y196900
X87500Y202250
X88100Y202250
X88900Y202200
X88900Y202800
X91100Y197400
X91100Y196600
X91900Y196600
X91900Y197400
X95100Y197900
X95200Y200600
X95500Y198700
X102400Y197300
X103200Y197300
X107500Y202300
X107500Y201700
X107500Y201100
X108300Y202250
X108900Y202250
X109400Y201500
X109500Y202250
X109500Y196900
X110200Y202250
X110900Y201500
X110900Y202250
X111100Y196900
X111500Y202250
X112100Y202250
X112900Y202200
X112900Y202800
X115100Y196600
X115100Y197400
X115900Y197400
X115900Y196600
X119100Y197900
X119200Y200600
X119500Y198700
X126400Y197300
X127200Y197300
X112900Y203400
X112900Y204000
X112900Y204600
X112900Y205200
X112600Y206300
X112600Y207500
X112100Y203800
X111800Y206300
X111500Y203800
X111000Y206300
X110900Y203800
X110900Y203000
X110600Y207500
X110200Y203800
X110200Y206300
X109500Y203800
X109400Y203000
X109400Y206300
X108900Y203800
X108600Y206300
X108600Y207500
X108300Y203800
X107800Y206300
X107500Y205300
X107500Y204700
X107500Y204100
X107500Y203500
X107500Y202900
X88900Y203400
X88900Y204000
X88900Y204600
X88900Y205200
X88600Y206300
X88600Y207500
X88100Y203800
X87800Y206300
X87500Y203800
X87000Y206300
X86900Y203800
X86900Y203000
X86600Y207500
X86200Y203800
X86200Y206300
X85500Y203800
X85400Y206300
X85400Y203000
X84900Y203800
X84600Y206300
X84600Y207500
X84300Y203800
X83800Y206300
X83500Y204100
X83500Y205300
X83500Y203500
X83500Y202900
X83500Y204700
X64900Y205200
X64900Y204000
X64900Y204600
X64900Y203400
X64600Y206300
X64600Y207500
X64100Y203800
X63800Y206300
X63500Y203800
X63000Y206300
X62900Y203800
X62900Y203000
X62600Y207500
X62200Y206300
X62200Y203800
X61500Y203800
X61400Y203000
X61400Y206300
X60900Y203800
X60600Y206300
X60600Y207500
X60300Y203800
X59800Y206300
X59500Y205300
X59500Y204700
X59500Y204100
X59500Y203500
X59500Y202900
X40900Y204000
X40900Y205200
X40900Y204600
X40900Y203400
X40600Y207500
X40600Y206300
X40100Y203800
X39800Y206300
X39500Y203800
X39000Y206300
X38900Y203800
X38900Y203000
X38600Y207500
X38200Y206300
X38200Y203800
X37500Y203800
X37400Y203000
X37400Y206300
X36900Y203800
X36600Y206300
X36600Y207500
X36300Y203800
X35800Y206300
X35500Y204700
X35500Y203500
X35500Y202900
X35500Y204100
X35500Y205300
X34600Y209500
X34600Y211200
X36600Y209500
X36600Y211200
X38600Y209500
X38600Y211200
X40600Y211200
X40600Y209500
X42600Y209500
X42600Y211200
X44600Y209500
X44600Y211200
X46600Y211200
X48600Y211200
X50600Y211200
X52600Y211200
X54600Y209500
X54600Y211200
X56600Y209500
X56600Y211200
X58600Y209500
X58600Y211200
X60600Y209500
X60600Y211200
X62600Y209500
X62600Y211200
X64600Y209500
X64600Y211200
X66600Y209500
X66600Y211200
X68600Y209500
X68600Y211200
X70600Y211200
X72600Y211200
X74600Y211200
X76600Y211200
X78600Y211200
X78600Y209500
X80600Y209500
X80600Y211200
X82600Y209500
X82600Y211200
X84600Y209500
X84600Y211200
X86600Y209500
X86600Y211200
X88600Y211200
X88600Y209500
X90600Y211200
X90600Y209500
X92600Y209500
X92600Y211200
X94600Y211200
X96600Y211200
X98600Y211200
X100600Y211200
X102600Y209500
X102600Y211200
X104600Y209500
X104600Y211200
X106600Y209500
X106600Y211200
X108600Y211200
X108600Y209500
X110600Y211200
X110600Y209500
X112600Y209500
X112600Y211200
X114600Y209500
X114600Y211200
X116600Y211200
X116600Y209500
X118600Y211200
X120600Y211200
X122600Y211200
X124600Y211200
T2C.9F197S550
X135800Y116400
X135800Y120800
T3C1.15F139S550
X118436Y140730
X118436Y143270
X118436Y145810
X118436Y148350
X118436Y150890
T4C1.2F139S550
X136900Y103000
X136900Y106500
X136900Y110000
T5C1.8F81S550
X24850Y56500
X24850Y60700
X30350Y60700
X30350Y56500
X131550Y60700
X131550Y56500
X137050Y56500
X137050Y60700
X137050Y64900
X131550Y64900
X30350Y64900
X24850Y64900
X24850Y184200
X24850Y188400
X30350Y184200
X30350Y188400
X131550Y188400
X131550Y184200
X137050Y184200
X137050Y188400
X137050Y192600
X131550Y192600
X30350Y192600
X24850Y192600
T6C4.F35S900
X26000Y41500
X28500Y72000
X133500Y72000
X136000Y41500
X112250Y83250
X71000Y124500
X29750Y83250
X28500Y177000
X29750Y165750
X112250Y165750
X133500Y177000
X136000Y207500
X26000Y207500
M30
